<!-- <svg version="1.1" id="Layer_1" xmlns="http://www.w3.org/2000/svg" xmlns:xlink="http://www.w3.org/1999/xlink" x="0px" y="0px"> -->
<svg xmlns="http://www.w3.org/2000/svg" viewBox="80 200 847.99 418.25">
<style type="text/css">
	.st0{fill:#020203;}
	.st1{fill:#B2CC23;}
	.st2{fill:#179CD4;}
	.st3{fill:#FFFFFF;}
</style>
<g>
	<path class="st0" d="M118.09,500.86l14.57,81.82l0.43-0.08l0.64-6.74l7.93-46.47l6.64-33.87l19.5-3.44l-28.5,116.59l-13.28,2.34
		L96.66,504.64L118.09,500.86z"/>
	<path class="st0" d="M195.22,547.13c0,9.28-0.43,34.98,12.64,32.68c10.71-1.89,12.64-14.38,12.64-22.99l18.64-3.29
		c0,20.54-8.78,40.87-31.5,44.88c-30.21,5.33-33-27.32-33-50.96c0-22.75,2.57-58.78,32.35-64.03c29.35-5.18,32.78,29.57,32.78,52.54
		v3.31L195.22,547.13z M219.21,528.1c0-8.61,0-28.28-12.21-26.12c-12.64,2.23-11.78,21.74-11.78,30.36L219.21,528.1z"/>
	<path class="st0" d="M275.34,486.83l0.43-0.08c4.71-10.55,11.78-17.54,22.93-19.51v20.55l-3.43,0.38
		c-15,2.64-19.71,12.09-19.71,26.23v70.25l-20.35,3.59V476.68l20.14-3.55L275.34,486.83L275.34,486.83z"/>
	<path class="st0" d="M355.47,556.21l-0.43,0.08c-4.07,10.44-8.57,17.64-19.93,19.64c-25.07,4.42-25.5-36.38-25.5-54.49
		c0-18.56,0.64-56.23,26.14-60.72c10.28-1.81,15.21,3.06,19.28,10.74l0.43-0.08v-84.17l20.14-3.55v183.36l-20.14,3.55v-14.36H355.47
		z M356.11,514.56c0-8.84,0.86-39.03-12.64-36.65c-15,2.64-13.28,32.17-13.28,41.22c0,9.28-1.71,39.41,13.28,36.76
		C356.97,553.51,356.11,523.4,356.11,514.56z"/>
	<path class="st0" d="M390.81,418.97c0-7.51,6-14.75,13.5-16.08c7.07-1.25,13.28,3.84,13.28,11.35c0,7.73-6.21,15.01-13.28,16.26
		C396.81,431.83,390.81,426.7,390.81,418.97z M414.17,560.22l-20.14,3.55V452.2l20.14-3.55L414.17,560.22L414.17,560.22z"/>
	<path class="st0" d="M496.65,545.67l-20.14,3.55V365.86l20.14-3.55L496.65,545.67L496.65,545.67z"/>
	<path class="st0" d="M511.85,397.63c0-7.51,6-14.75,13.5-16.08c7.07-1.25,13.28,3.84,13.28,11.35c0,7.73-6.21,15.01-13.28,16.26
		C517.85,410.49,511.85,405.36,511.85,397.63z M535.21,538.87l-20.14,3.55V430.86l20.14-3.55V538.87z"/>
	<path class="st0" d="M553.63,352.26l20.14-3.55v84.17l0.43-0.08c4.07-9.33,9-15.73,19.28-17.54c25.5-4.5,26.14,32.95,26.14,51.5
		c0,18.11-0.43,59.06-25.5,63.48c-11.57,2.04-15.85-3.61-19.93-12.61l-0.43,0.08v14.36l-20.14,3.55L553.63,352.26L553.63,352.26z
		 M599.05,471.72c0-9.06,1.71-39.18-13.29-36.54c-13.5,2.38-12.64,32.27-12.64,41.11s-0.86,39.03,12.64,36.87
		C600.77,510.3,599.05,480.78,599.05,471.72z"/>
	<path class="st0" d="M652.61,466.48c0,9.28-0.43,34.98,12.64,32.68c10.71-1.89,12.64-14.38,12.64-22.99l18.64-3.29
		c0,20.54-8.79,40.87-31.5,44.88c-30.21,5.33-32.99-27.32-32.99-50.96c0-22.75,2.57-58.78,32.35-64.03
		c29.35-5.18,32.78,29.57,32.78,52.54v3.31L652.61,466.48z M676.61,447.44c0-8.61,0-28.28-12.21-26.12
		c-12.64,2.23-11.78,21.74-11.78,30.36L676.61,447.44z"/>
	<path class="st0" d="M732.74,406.18l0.43-0.08c4.71-10.55,11.78-17.54,22.92-19.51v20.55l-3.43,0.38
		c-15,2.64-19.71,12.09-19.71,26.23V504l-20.35,3.59V396.03l20.14-3.55V406.18z"/>
	<path class="st0" d="M811.76,475.75l-0.43,0.08c-4.07,10.44-8.36,17.6-19.93,19.64c-25.07,4.42-25.5-36.38-25.5-54.49
		c0-18.56,0.64-56.23,26.14-60.72c9.43-1.66,15.64,3.21,19.28,10.74l0.43-0.08v-12.37L831.9,375v111.56l-20.14,3.55V475.75z
		 M812.4,434.1c0-8.84,0.86-39.03-12.64-36.65c-15,2.64-13.28,32.17-13.28,41.22c0,9.28-1.71,39.4,13.28,36.76
		C813.26,473.06,812.4,442.94,812.4,434.1z"/>
	<path class="st0" d="M870.46,479.76l-20.14,3.55V299.95l20.14-3.55V479.76z"/>
	<path class="st0" d="M885.66,331.71c0-7.51,6-14.75,13.5-16.08c7.07-1.25,13.28,3.84,13.28,11.35c0,7.73-6.21,15.01-13.28,16.26
		C891.66,344.58,885.66,339.45,885.66,331.71z M909.02,472.96l-20.14,3.55V364.95l20.14-3.55V472.96z"/>
</g>
<path class="st1" d="M724.88,297.41c-5.63,0.98-8.18,0.53-14.81,1.65c-20.94,3.54-42.9,10.45-54.7,27.7
	c-15.52,22.7-20.61,60.81-36.68,74.28c10.71-5.06,17.14-17.66,36.35-22.94c14.44-3.97,29.31-4.83,41.83-16.55
	c12.84-12.11,19.1-31.21,22.07-47.35c0.99-6.63,2.12-11.02,6.07-16.8L724.88,297.41z M711.09,309.36
	c-9.27,8.82-24.32,24.81-32.63,33.09c-16.75,16.7-49.92,49.9-49.92,49.9c-0.2,0.19-3.56,3.9-3.77,3.65
	c-0.36-0.42,3.44-4.08,6.3-7.31c0,0,31.9-35.03,44.98-48.21c16.34-16.46,31.72-30.3,31.72-30.3c12.69-11.3,16.07-12.08,16.07-12.08
	S719.08,301.76,711.09,309.36z"/>

	<path class="st0" d="M118.27,468.75c0,8.06-0.32,15.59-10.91,17.45c-7.33,1.29-10.75-2.64-10.75-10.03v-1.59l5.21-0.92v0.76
		c0,4.03,1.06,7.45,5.62,6.65c5.94-1.05,5.45-6.33,5.45-10.95v-5.04c-1.79,2.41-3.99,3.72-6.76,4.21
		c-10.42,1.84-10.58-12.99-10.58-20.63c0-7.22,0.81-21.38,10.5-23.09c2.85-0.5,5.21,0.43,6.76,2.42l0.16-0.03v-2.94l5.29-0.93
		L118.27,468.75L118.27,468.75z M107.6,464.58c5.62-0.99,5.86-9.51,5.86-18.91c0-7.89-0.49-16.87-6.27-15.85
		c-3.83,0.67-6.19,3.78-6.19,19.56C101.01,454.08,100.93,465.76,107.6,464.58z"/>
	<path class="st0" d="M128.28,413.69c-2.2,0.39-3.99-1.14-3.99-3.41c0-2.18,1.79-4.35,3.99-4.73c2.12-0.37,3.91,1.16,3.91,3.34
		C132.19,411.15,130.4,413.31,128.28,413.69z M130.89,464.93l-5.29,0.93v-43.05l5.29-0.93V464.93z"/>
	<path class="st0" d="M160.93,438.06c0,8.14-0.98,22.41-11.97,24.35s-11.97-11.99-11.97-20.13c0-8.06,0.98-22.33,11.97-24.27
		S160.93,430,160.93,438.06z M142.45,441.32c0,4.2,0.16,17.09,6.51,15.97c6.35-1.12,6.51-14.07,6.51-18.27
		c0-4.11-0.16-17.01-6.51-15.89S142.45,437.21,142.45,441.32z"/>
	<path class="st0" d="M179.33,456.39l-5.7,1l-9.52-41.38l5.37-0.95l5.37,25.99c0.57,2.59,0.97,5.2,1.55,7.79l0.32-0.06
		c0.33-2.75,0.65-5.57,1.14-8.26l5.29-27.87l5.45-0.96L179.33,456.39z"/>
	<path class="st0" d="M213.92,450.29l-5.29,0.93v-3.36l-0.16,0.03c-1.55,2.71-3.91,4.72-6.92,5.25c-6.67,1.18-9.93-2.11-9.93-20.91
		c0-9.65,0.33-21.8,10.42-23.58c2.93-0.52,4.8,0.41,6.43,2.48l0.16-0.03v-2.94l5.29-0.93L213.92,450.29L213.92,450.29z
		 M203.26,412.89c-5.86,1.03-6.19,10.66-6.19,17.96c0,17.79,2.85,18.13,5.94,17.59c5.13-0.9,6.11-6.03,6.11-19.54
		C209.12,419.58,208.47,411.97,203.26,412.89z"/>
	<path class="st0" d="M226.55,408.44c2.12-2.89,4.96-4.99,8.22-5.56c7.41-1.31,8.06,5.63,8.06,11.51v30.8l-5.29,0.93v-30.21
		c0-5.12-0.32-9.01-4.72-8.23c-6.02,1.06-6.27,7.9-6.27,12.44v27.95l-5.29,0.93v-43.05l5.29-0.93V408.44z"/>
	<path class="st0" d="M252.84,391.72c-2.2,0.39-3.99-1.14-3.99-3.41c0-2.18,1.79-4.35,3.99-4.73c2.12-0.37,3.91,1.16,3.91,3.34
		C256.75,389.19,254.96,391.35,252.84,391.72z M255.45,442.96l-5.29,0.93v-43.05l5.29-0.93V442.96z"/> 
</svg>
