<svg id="Ebene_1" data-name="Ebene 1" xmlns="http://www.w3.org/2000/svg" viewBox="0 0 117.4 114.44"><defs><style>.cls-1{fill:#b4dc00;}</style></defs><path class="cls-1" d="M117.9,2.8c-6.2,1.08-9,.58-16.36,1.83C78.43,8.52,54.18,16.16,41.14,35.2,24,60.26,18.39,102.35.66,117.22c11.82-5.59,18.91-19.5,40.11-25.35C56.72,87.48,73.14,86.54,87,73.61c14.17-13.37,21.07-34.47,24.34-52.28,1.1-7.34,2.35-12.17,6.72-18.55ZM102.67,16c-10.24,9.73-26.87,27.38-36,36.52C48.14,71,11.52,107.65,11.52,107.65c-.2.18-3.93,4.29-4.15,4-.4-.47,3.79-4.52,7-8.07,0,0,35.21-38.69,49.65-53.26C82,32.19,99,16.92,99,16.92,113,4.43,116.74,3.56,116.74,3.56S111.49,7.6,102.67,16Z" transform="translate(-0.66 -2.78)"/></svg>