<?xml version="1.0" encoding="iso-8859-1"?>
<!-- Generator: Adobe Illustrator 19.0.0, SVG Export Plug-In . SVG Version: 6.00 Build 0)  -->
<svg version="1.1" id="Layer_1" xmlns="http://www.w3.org/2000/svg" xmlns:xlink="http://www.w3.org/1999/xlink" x="0px" y="0px"
	 viewBox="0 0 512 512" style="enable-background:new 0 0 512 512;" xml:space="preserve">
<path style="fill:#84A7B7;" d="M467.478,233.739c0,129.091-104.648,233.739-233.739,233.739S0,362.83,0,233.739S104.648,0,233.739,0
	S467.478,104.648,467.478,233.739z"/>
<path style="fill:#256277;" d="M467.3,242.449c0.106-2.892,0.178-5.791,0.178-8.71s-0.072-5.818-0.178-8.71H339.922
	c-0.509-36.868-4.238-72.375-10.857-104.509h109.193c-3.311-5.968-6.863-11.785-10.666-17.418H325.111
	c-4.015-16.129-8.799-31.241-14.314-45.029c-9.091-22.728-19.771-40.747-31.541-53.63c-11.628-2.295-23.564-3.724-35.742-4.226
	c24.458,7.968,48.697,45.201,63.758,102.884H160.205c15.062-57.683,39.3-94.916,63.758-102.884
	c-12.178,0.501-24.114,1.931-35.742,4.226c-11.77,12.882-22.45,30.901-31.541,53.63c-5.515,13.788-10.298,28.899-14.313,45.029
	H39.886c-3.803,5.633-7.355,11.45-10.666,17.418h109.193c-6.619,32.134-10.349,67.641-10.857,104.509H0.178
	C0.072,227.921,0,230.822,0,233.739c0,2.917,0.072,5.818,0.178,8.71h127.378c0.509,36.868,4.238,72.375,10.857,104.509H29.22
	c3.311,5.968,6.863,11.785,10.666,17.418h102.481c4.015,16.129,8.799,31.241,14.313,45.029c9.091,22.728,19.771,40.747,31.541,53.63
	c11.628,2.295,23.564,3.724,35.742,4.226c-24.458-7.968-48.697-45.201-63.758-102.884h147.069
	c-15.062,57.684-39.3,94.916-63.758,102.884c12.178-0.501,24.115-1.93,35.742-4.226c11.77-12.882,22.45-30.901,31.54-53.63
	c5.515-13.788,10.298-28.899,14.314-45.029h102.481c3.803-5.633,7.355-11.45,10.666-17.418H329.066
	c6.619-32.134,10.349-67.64,10.857-104.509L467.3,242.449L467.3,242.449z M311.401,346.957H156.078
	c-6.515-30.416-10.574-65.606-11.105-104.509h177.532C321.976,281.351,317.915,316.541,311.401,346.957z M144.973,225.03
	c0.53-38.902,4.59-74.093,11.105-104.509h155.323c6.515,30.416,10.575,65.606,11.105,104.509H144.973z"/>
<path style="fill:#B2D1D8;" d="M123.383,384.923c-1.648,2.057-4.073,3.127-6.518,3.127c-1.832,0-3.675-0.6-5.217-1.835
	C65.097,348.895,38.4,293.319,38.4,233.739s26.697-115.155,73.248-152.476c3.597-2.884,8.852-2.305,11.735,1.291
	c2.884,3.597,2.306,8.851-1.291,11.735c-42.577,34.135-66.996,84.963-66.996,139.45s24.419,105.315,66.995,139.449
	C125.688,376.072,126.266,381.325,123.383,384.923z"/>
<path style="fill:#A5A5A5;" d="M512,256v55.652H189.217V256c0-12.295,9.966-22.261,22.261-22.261h278.261
	C502.034,233.739,512,243.705,512,256z"/>
<path style="fill:#777777;" d="M420.174,261.009v1.113c0,4.61-3.738,8.348-8.348,8.348c-4.61,0-8.348-3.738-8.348-8.348v-1.113
	c0-4.61,3.738-8.348,8.348-8.348C416.436,252.661,420.174,256.398,420.174,261.009z M445.217,252.661
	c-4.61,0-8.348,3.738-8.348,8.348v1.113c0,4.61,3.738,8.348,8.348,8.348s8.348-3.738,8.348-8.348v-1.113
	C453.565,256.398,449.828,252.661,445.217,252.661z M478.609,252.661c-4.61,0-8.348,3.738-8.348,8.348v1.113
	c0,4.61,3.738,8.348,8.348,8.348s8.348-3.738,8.348-8.348v-1.113C486.957,256.398,483.219,252.661,478.609,252.661z"/>
<path style="fill:#F2EFE2;" d="M512,289.391v200.348c0,12.295-9.966,22.261-22.261,22.261H211.478
	c-12.295,0-22.261-9.966-22.261-22.261V289.391h44.522v-66.783c0-6.147,4.983-11.13,11.13-11.13h66.783
	c6.147,0,11.13,4.983,11.13,11.13v66.783H512z"/>
<path style="fill:#E2DFD7;" d="M322.783,222.609v66.783h-89.043v-66.783c0-6.147,4.983-11.13,11.13-11.13h66.783
	C317.799,211.478,322.783,216.461,322.783,222.609z"/>
<path style="fill:#CCCAC4;" d="M294.957,256h-33.391c-3.073,0-5.565-2.492-5.565-5.565v-11.13c0-3.073,2.492-5.565,5.565-5.565
	h33.391c3.073,0,5.565,2.492,5.565,5.565v11.13C300.522,253.508,298.03,256,294.957,256z"/>
<path style="fill:#DBD8D2;" d="M473.043,478.609h-244.87c-3.073,0-5.565-2.492-5.565-5.565V384c0-3.073,2.492-5.565,5.565-5.565
	h244.87c3.073,0,5.565,2.492,5.565,5.565v89.043C478.609,476.117,476.117,478.609,473.043,478.609z M300.522,350.609v-11.13
	c0-3.073-2.492-5.565-5.565-5.565h-66.783c-3.073,0-5.565,2.492-5.565,5.565v11.13c0,3.073,2.492,5.565,5.565,5.565h66.783
	C298.03,356.174,300.522,353.682,300.522,350.609z M478.609,350.609v-11.13c0-3.073-2.492-5.565-5.565-5.565H328.348
	c-3.073,0-5.565,2.492-5.565,5.565v11.13c0,3.073,2.492,5.565,5.565,5.565h144.696C476.117,356.174,478.609,353.682,478.609,350.609
	z"/>
<g>
</g>
<g>
</g>
<g>
</g>
<g>
</g>
<g>
</g>
<g>
</g>
<g>
</g>
<g>
</g>
<g>
</g>
<g>
</g>
<g>
</g>
<g>
</g>
<g>
</g>
<g>
</g>
<g>
</g>
</svg>
