<?xml version="1.0" encoding="iso-8859-1"?>
<!-- Generator: Adobe Illustrator 19.0.0, SVG Export Plug-In . SVG Version: 6.00 Build 0)  -->
<svg version="1.1" id="Layer_1" xmlns="http://www.w3.org/2000/svg" xmlns:xlink="http://www.w3.org/1999/xlink" x="0px" y="0px"
	 viewBox="0 0 500 500" style="enable-background:new 0 0 500 500;" xml:space="preserve">
<path style="fill:#FFC52F;" d="M420,124H80v252h340V124z M384,336c0,1.2,4,4,0,4H122c-1.2,0-6-2.8-6-4V160c0-1.2,4.8,0,6,0h262
	c4,0,0-1.2,0,0V336z"/>
<g>
	<rect x="312" y="340" style="fill:#F0C960;" width="48" height="36"/>
	<rect x="312" y="124" style="fill:#F0C960;" width="48" height="36"/>
</g>
<path d="M422,382H78c-2.4,0-4-1.6-4-4V122c0-2.4,1.6-4,4-4h344c2.4,0,4,1.6,4,4v256C426,380.4,424.4,382,422,382z M82,374h336V126
	H82V374z"/>
<path d="M382,342H118c-2.4,0-4-1.6-4-4V162c0-2.4,1.6-4,4-4h190c2.4,0,4,1.6,4,4s-1.6,4-4,4H122v168h256V166h-10c-2.4,0-4-1.6-4-4
	s1.6-4,4-4h14c2.4,0,4,1.6,4,4v176C386,340.4,384.4,342,382,342z"/>
<path d="M422,104c-2.4,0-4-1.6-4-4V44c0-2.4,1.6-4,4-4s4,1.6,4,4v56C426,102.4,424.4,104,422,104z"/>
<path d="M78,104c-2.4,0-4-1.6-4-4V44c0-2.4,1.6-4,4-4s4,1.6,4,4v56C82,102.4,80.4,104,78,104z"/>
<path d="M422,460c-2.4,0-4-1.6-4-4v-56c0-2.4,1.6-4,4-4s4,1.6,4,4v56C426,458.4,424.4,460,422,460z"/>
<path d="M496,382h-52c-2.4,0-4-1.6-4-4s1.6-4,4-4h52c2.4,0,4,1.6,4,4S498.4,382,496,382z"/>
<path d="M56,382H4c-2.4,0-4-1.6-4-4s1.6-4,4-4h52c2.4,0,4,1.6,4,4S58.4,382,56,382z"/>
<path d="M496,126h-52c-2.4,0-4-1.6-4-4s1.6-4,4-4h52c2.4,0,4,1.6,4,4S498.4,126,496,126z"/>
<path d="M56,126H4c-2.4,0-4-1.6-4-4s1.6-4,4-4h52c2.4,0,4,1.6,4,4S58.4,126,56,126z"/>
<path d="M78,460c-2.4,0-4-1.6-4-4v-56c0-2.4,1.6-4,4-4s4,1.6,4,4v56C82,458.4,80.4,460,78,460z"/>
<g>
</g>
<g>
</g>
<g>
</g>
<g>
</g>
<g>
</g>
<g>
</g>
<g>
</g>
<g>
</g>
<g>
</g>
<g>
</g>
<g>
</g>
<g>
</g>
<g>
</g>
<g>
</g>
<g>
</g>
</svg>
