<svg xmlns="http://www.w3.org/2000/svg" viewBox="0 0 847.99 448.51"><defs><style>.cls-1{fill:#081111;}.cls-2{fill:#beda33;}.cls-3{fill:#599ad0;}.cls-4{fill:#fff;}</style></defs><title>Element 1</title><g id="Ebene_2" data-name="Ebene 2"><g id="Ebene_1-2" data-name="Ebene 1"><path class="cls-1" d="M72,321.11C72,364.22,59.64,373.87,36.4,378,15.28,381.69,2,371.6,2,349.11v-3.36L23,342c-.47,8.72,2.95,17.66,13.86,15.75C51.45,355.18,50,340.83,50,329.8V309.69l-.48.08c-3,10.35-10.25,18.58-20.94,20C.72,334.65,0,293.83,0,273.24c0-19.39-.47-63.13,28.09-68.17,11.65-2,16.77,3.77,21.43,12.53L50,217V203.15l22-3.91ZM36,223.79c-15.08,2.65-13.68,35.47-13.68,44.1,0,9.09-1.4,43.09,14.39,40.31S50.16,274,50.16,264.15,50.16,221.28,36,223.79Z"/><path class="cls-1" d="M114,206.67l.31-.07c5.11-11.43,12.69-19,24.69-21.14v22.27l-3.67.4C119,211,114,221.26,114,236.57v76.15l-22,3.89V195.69l22-3.85Z"/><path class="cls-1" d="M176.65,180.83l-.08,75.65c0,10.78-1.42,26.83,13.44,24.21,14.63-2.58,13-16.89,13-27.66V176.15l21.82-3.84,0,81.65c0,24.91-7,42.46-33.72,47.16C159.24,306.73,155,289.07,155,261.55V184.67Z"/><path class="cls-1" d="M266.83,178.78l.44-.08c4.88-10.68,12.09-17.92,23.7-20,23.21-4.09,23.91,17.09,23.92,35.52l0,83.09L293,281.2V197.62c0-8.39-1.28-18.91-12.89-16.86C265.7,183.28,267,200.08,267,210.39v75.43l-22,3.84V168.74l21.82-3.85Z"/><path class="cls-1" d="M357,270l-22,3.85V75.09l22-3.85Z"/><path class="cls-1" d="M373.17,109.52A18.35,18.35,0,0,1,387.8,92.08c7.66-1.35,14.39,4.17,14.39,12.32,0,8.38-6.72,16.26-14.39,17.61C379.68,123.45,373.17,117.89,373.17,109.52ZM398,262.6l-21,3.86V145.53l21-3.85Z"/><path class="cls-1" d="M418.33,60.35,440,56.5v91.22l.62-.08c4.4-10.11,9.83-17,20.95-19,27.64-4.85,28.38,35.71,28.37,55.85,0,19.6-.43,64-27.62,68.79-12.53,2.22-17.29-3.9-21.71-13.68l-.61.08v15.57l-21.75,3.85Zm49.34,129.46c0-9.82,1.87-42.47-14.39-39.6-14.63,2.58-13.71,35-13.71,44.56s-.92,42.31,13.71,40C469.54,231.64,467.67,199.64,467.67,189.81Z"/><path class="cls-1" d="M525.71,184.12c0,10.07-.45,37.93,13.71,35.42,11.61-2,13.71-15.57,13.72-24.92l20.19-3.56c0,22.27-9.52,44.29-34.12,48.63-32.75,5.78-35.78-29.6-35.78-55.22,0-24.65,2.79-63.7,35.05-69.4,31.83-5.6,35.51,32,35.51,57v3.57Zm26-20.63c0-9.33,0-30.64-13.23-28.31-13.71,2.42-12.78,23.55-12.78,32.91Z"/><path class="cls-1" d="M612.59,118.77l.49-.07c5.11-11.43,12.91-19,24.91-21.15v22.26l-3.68.42C618.05,123.1,613,133.33,613,148.68v76.14l-22,3.88V107.78l21.7-3.85Z"/><path class="cls-1" d="M697,194.37l-.44.11c-4.4,11.3-9,19.06-21.56,21.28-27.16,4.79-27.63-39.44-27.64-59,0-20.13.71-60.94,28.34-65.82,10.23-1.81,16.92,3.48,20.86,11.64l.44-.09V89l21.85-3.84V206.11L697,209.94Zm.76-45.12c0-9.58.94-42.31-13.69-39.73-16.26,2.87-14.41,34.86-14.41,44.69,0,10-1.86,42.7,14.41,39.83C698.69,191.47,697.75,158.83,697.75,149.25Z"/><path class="cls-1" d="M760.76,198.73,739,202.58V3.85L760.8,0Z"/><path class="cls-1" d="M799.7,135.82c0,10.07-.48,37.91,13.69,35.42,11.61-2.06,13.7-15.58,13.7-24.92l20.22-3.58c0,22.29-9.52,44.32-34.13,48.65-32.75,5.78-35.77-29.62-35.77-55.23,0-24.65,2.78-63.7,35.06-69.39,31.8-5.61,35.52,32,35.52,57v3.59Zm26-20.64c0-9.34,0-30.64-13.23-28.31-13.71,2.41-12.78,23.56-12.78,32.92Z"/><path class="cls-2" d="M262.83,60.22c-6.2,1.08-9,.57-16.36,1.82-23.11,3.9-47.36,11.54-60.4,30.57-17.12,25.07-22.75,67.15-40.48,82,11.82-5.59,18.91-19.5,40.11-25.35,16-4.38,32.37-5.32,46.23-18.26C246.1,117.65,253,96.55,256.27,78.74c1.09-7.33,2.35-12.17,6.71-18.55ZM247.6,73.41c-10.24,9.74-26.87,27.38-36,36.52-18.48,18.45-55.1,55.13-55.1,55.13-.2.18-3.93,4.3-4.16,4-.4-.47,3.8-4.52,7-8.08,0,0,35.21-38.69,49.65-53.25,18-18.16,35-33.43,35-33.43C257.94,61.84,261.67,61,261.67,61S256.42,65,247.6,73.41Z"/><path class="cls-1" d="M6.2,113.57a3.7,3.7,0,0,1-4.47-3.81,5.6,5.6,0,0,1,4.47-5.27,3.65,3.65,0,0,1,4.35,3.73A5.59,5.59,0,0,1,6.2,113.57ZM9,188.5l-6,1V123.77l6-1Z"/><path class="cls-1" d="M23,120.23v30.18c0,6.53.58,12.85,6.42,11.82s6.58-7.47,6.58-14V118l6-1V152.3c0,8-4.14,14.14-12.5,15.63S17,164.73,17,156.6V121.28Z"/><path class="cls-1" d="M55.9,118.32A14.8,14.8,0,0,1,65,112.08c8.29-1.45,9,6.28,9,12.86v34.38l-6,1.05V126.63c0-5.73-.23-10-5.15-9.18-6.72,1.19-6.85,8.81-6.85,13.88v31.2l-6,1.05V115.52l5.91-1Z"/><path class="cls-1" d="M106.71,155.35c0,9-.13,17.41-11.95,19.5C86.59,176.29,83,171.9,83,163.64v-1.76l5-1v.84c0,4.5,1.49,8.32,6.58,7.42,6.65-1.17,6.42-7.08,6.42-12.23v-5.62A11.83,11.83,0,0,1,93.3,156c-11.62,2-11.89-14.5-11.89-23,0-8.07.89-23.86,11.69-25.78a7.66,7.66,0,0,1,7.63,2.7l.26,0v-3.27l5.82-1Zm-11.92-4.64c6.26-1.11,6.55-10.61,6.55-21.11,0-8.81-.55-18.84-7-17.7-4.27.75-6.88,4.22-6.91,21.83C87.42,139,87.34,152,94.79,150.71Z"/><path class="cls-1" d="M120,128.51v1.41c0,4.78.66,16.26,7.12,15.13,5.18-.92,5.85-8.57,5.84-12.39l6.05-1.08c-.08,7.33-2.84,17.55-11.49,19.07-12.26,2.17-13.88-12.54-13.9-22.17,0-8.64,1.82-25.26,13.1-27.26,10.89-1.92,12.6,12.48,12.6,20.93l.17,2.91ZM133.32,121l-.08-.83c-.18-4.56-.35-14.28-6.54-13.18-5.64,1-6.92,12.1-6.92,16.41Z"/><polygon class="cls-3" points="280.82 324.87 280.82 448.51 847.99 348.43 847.99 224.78 280.82 324.87"/><path class="cls-4" d="M317,415.67a2.3,2.3,0,0,1-2-.5,2.24,2.24,0,0,1-.83-1.81v-65.3A3.18,3.18,0,0,1,315,346a3.24,3.24,0,0,1,2-1.21l22.79-4a10.68,10.68,0,0,1,5,.21,9.5,9.5,0,0,1,3.88,2.27,11.61,11.61,0,0,1,2.52,3.76,11.74,11.74,0,0,1,.92,4.58v9.31a15,15,0,0,1-1.7,7,12.85,12.85,0,0,1-5.38,5.3,9.45,9.45,0,0,1,4.41,1,8.14,8.14,0,0,1,2.86,2.55,10.06,10.06,0,0,1,1.51,3.59,19,19,0,0,1,.43,4V396a14.87,14.87,0,0,1-.87,4.9,16.42,16.42,0,0,1-2.52,4.65,16.84,16.84,0,0,1-3.93,3.69,13.2,13.2,0,0,1-5.19,2.06Zm24.25-58.48a5.43,5.43,0,0,0-1.75-4.39,5.36,5.36,0,0,0-4.65-1l-9,1.59v19l9-1.59a7.51,7.51,0,0,0,4.65-2.62,7.73,7.73,0,0,0,1.75-5.11ZM325.78,404l9.6-1.69A7.56,7.56,0,0,0,340,399.7a7.78,7.78,0,0,0,1.74-5.11v-8.7A5.58,5.58,0,0,0,340,381.4a5.39,5.39,0,0,0-4.66-1l-9.6,1.69Z"/><path class="cls-4" d="M365.91,407a2.31,2.31,0,0,1-2.79-2.31v-65.3a3.26,3.26,0,0,1,.81-2.09,3.3,3.3,0,0,1,2-1.2l29.79-5.25a2.21,2.21,0,0,1,1.9.52,2.39,2.39,0,0,1,.82,1.9v4.8a3.39,3.39,0,0,1-.82,2.19,3.21,3.21,0,0,1-1.9,1.19L375,345.14v17.6l17.84-3.15a2.21,2.21,0,0,1,1.9.53,2.42,2.42,0,0,1,.82,1.92v4.75a3.46,3.46,0,0,1-.82,2.21,3.16,3.16,0,0,1-1.9,1.19L375,373.34v21.5l21.24-3.75a2.21,2.21,0,0,1,1.89.52,2.36,2.36,0,0,1,.82,1.9v4.8a3.34,3.34,0,0,1-.82,2.2,3.14,3.14,0,0,1-1.89,1.18Z"/><path class="cls-4" d="M407.53,331.59a3.56,3.56,0,0,1,2.79-3.29l6.26-1.1a2.25,2.25,0,0,1,2,.5,2.29,2.29,0,0,1,.82,1.81v65.3a3.56,3.56,0,0,1-2.79,3.29l-6.26,1.1a2.32,2.32,0,0,1-2.79-2.31Z"/><path class="cls-4" d="M469.51,375.77a12.58,12.58,0,0,1-1.12,5.14,17.6,17.6,0,0,1-3,4.68,19.58,19.58,0,0,1-4.27,3.61,14.34,14.34,0,0,1-5,1.93l-23.18,4.08a2.33,2.33,0,0,1-2.81-2.3v-65.3a3.58,3.58,0,0,1,2.81-3.3l23.18-4.08a11.48,11.48,0,0,1,5,.17,11.82,11.82,0,0,1,4.27,2.09,10.85,10.85,0,0,1,3,3.62,10.13,10.13,0,0,1,1.12,4.76Zm-12-38.48c0-2.34-.57-4-1.71-5a5.3,5.3,0,0,0-4.63-1L442,332.92v50.5l9.18-1.62a7.45,7.45,0,0,0,4.63-2.56,8.41,8.41,0,0,0,1.71-5.55Z"/><path class="cls-4" d="M482.38,386.49a2.32,2.32,0,0,1-2.79-2.3v-65.3a3.25,3.25,0,0,1,.82-2.1,3.28,3.28,0,0,1,2-1.2l29.8-5.25a2.18,2.18,0,0,1,1.89.52,2.37,2.37,0,0,1,.83,1.9v4.8a3.39,3.39,0,0,1-.83,2.2,3.19,3.19,0,0,1-1.89,1.18l-20.75,3.66v17.6l17.84-3.15a2.18,2.18,0,0,1,1.89.53,2.4,2.4,0,0,1,.83,1.92v4.75a3.4,3.4,0,0,1-.83,2.21,3.11,3.11,0,0,1-1.89,1.19l-17.84,3.15v21.5l21.23-3.75a2.22,2.22,0,0,1,1.9.52,2.38,2.38,0,0,1,.82,1.91v4.79a3.34,3.34,0,0,1-.82,2.2,3.14,3.14,0,0,1-1.9,1.18Z"/><path class="cls-4" d="M535.84,346.67v27.6a3.54,3.54,0,0,1-2.79,3.29l-6.25,1.1a2.32,2.32,0,0,1-2.79-2.31v-65.3a3.58,3.58,0,0,1,2.81-3.29l23.67-4.17a11.34,11.34,0,0,1,5.09.15,9.19,9.19,0,0,1,3.88,2.16,10.23,10.23,0,0,1,2.47,3.72,12.68,12.68,0,0,1,.88,4.79v10A19.64,19.64,0,0,1,561,333a9.68,9.68,0,0,1-6.54,5.1,9.07,9.07,0,0,1,4.75.72,7.56,7.56,0,0,1,3,2.62,10.54,10.54,0,0,1,1.5,4,29.34,29.34,0,0,1,.39,4.83v19a3.26,3.26,0,0,1-.83,2.1,3.3,3.3,0,0,1-2,1.2L555,373.7a2.29,2.29,0,0,1-2-.5,2.26,2.26,0,0,1-.82-1.81v-21a5.3,5.3,0,0,0-1.9-4.46,5.91,5.91,0,0,0-4.83-.95Zm16-26.62a5,5,0,0,0-6.45-5.37l-9.56,1.69v20.1l9.56-1.69a7.58,7.58,0,0,0,4.69-2.62,7.74,7.74,0,0,0,1.76-5.11Z"/><path class="cls-4" d="M593.45,366.91a2.29,2.29,0,0,1-2-.5,2.26,2.26,0,0,1-.82-1.8v-65.3a3.23,3.23,0,0,1,.82-2.1,3.3,3.3,0,0,1,2-1.2l22.79-4a10.68,10.68,0,0,1,5,.22,9.39,9.39,0,0,1,3.88,2.27,11.57,11.57,0,0,1,2.52,3.75,11.79,11.79,0,0,1,.92,4.59v9.3a15,15,0,0,1-1.7,7.05,12.91,12.91,0,0,1-5.38,5.3,9.36,9.36,0,0,1,4.41,1,8.14,8.14,0,0,1,2.86,2.55,10.19,10.19,0,0,1,1.51,3.58,19.09,19.09,0,0,1,.43,4v11.6a14.93,14.93,0,0,1-.87,4.91,16.23,16.23,0,0,1-2.52,4.64,16.84,16.84,0,0,1-3.93,3.69,13.06,13.06,0,0,1-5.19,2.07Zm24.25-58.47A5.49,5.49,0,0,0,616,304a5.39,5.39,0,0,0-4.65-1l-9,1.6v19l9-1.6a7.46,7.46,0,0,0,4.65-2.62,7.74,7.74,0,0,0,1.75-5.1Zm-15.42,46.81,9.6-1.69a7.46,7.46,0,0,0,4.65-2.62,7.71,7.71,0,0,0,1.75-5.11v-8.7a5.57,5.57,0,0,0-1.75-4.49,5.39,5.39,0,0,0-4.65-1l-9.6,1.69Z"/><path class="cls-4" d="M666.19,283.18a1.89,1.89,0,0,1,1.45.25,1.93,1.93,0,0,1,.78,1.16l14.64,62.72a5.2,5.2,0,0,1,.25,1.06c0,.33,0,.52,0,.59a2.49,2.49,0,0,1-.58,1.55,2.4,2.4,0,0,1-1.55.92L674,352.7a1.47,1.47,0,0,1-1.4-.4,2.92,2.92,0,0,1-.73-1.42L669,338.79l-18.62,3.28-2.91,13.12a4.26,4.26,0,0,1-.73,1.67,2.09,2.09,0,0,1-1.4.9L638.16,359a1.69,1.69,0,0,1-1.55-.38,1.77,1.77,0,0,1-.59-1.35c0-.06,0-.26.05-.6a5.21,5.21,0,0,1,.25-1.15L651,287.67a3,3,0,0,1,.78-1.44,2.55,2.55,0,0,1,1.45-.75Zm-6.5,13.65-7.08,34.45,14.16-2.5Z"/><path class="cls-4" d="M700.81,295.38c0,2,.55,3.44,1.65,4.31a30.75,30.75,0,0,0,5.24,3.08l12.6,6.17a18.43,18.43,0,0,1,4.47,2.77,11.24,11.24,0,0,1,2.61,3.38,13.09,13.09,0,0,1,1.26,4.43,51.4,51.4,0,0,1,.3,6,24.5,24.5,0,0,1-1.46,8.61,20.79,20.79,0,0,1-4.12,6.83,23.12,23.12,0,0,1-6.4,4.87,28,28,0,0,1-8.2,2.75,23.74,23.74,0,0,1-8,.15,14.32,14.32,0,0,1-6.35-2.58,13.17,13.17,0,0,1-4.17-5.36,20,20,0,0,1-1.51-8.19v-4.1a3.6,3.6,0,0,1,2.82-3.3l6.2-1.09a2.29,2.29,0,0,1,2,.5,2.26,2.26,0,0,1,.82,1.8v4.1a7.89,7.89,0,0,0,2.24,6,6.4,6.4,0,0,0,5.91,1.51,9.28,9.28,0,0,0,6.11-3.43,11.16,11.16,0,0,0,2-6.91v-1.5c0-2.06-.5-3.51-1.51-4.33a20.71,20.71,0,0,0-4-2.49l-15.32-7.6a10.94,10.94,0,0,1-5.87-6.27,25.2,25.2,0,0,1-1.41-8.35q0-9.5,5.48-15.77a24.52,24.52,0,0,1,14.7-7.89,23.82,23.82,0,0,1,8-.16,14.45,14.45,0,0,1,6.3,2.59,13.17,13.17,0,0,1,4.17,5.36,20.17,20.17,0,0,1,1.5,8.19v2.2a3.55,3.55,0,0,1-2.81,3.29l-6.2,1.1a2.34,2.34,0,0,1-2.82-2.31v-2.19a8.51,8.51,0,0,0-2-6q-2-2.19-6.11-1.47a9.28,9.28,0,0,0-6.11,3.43,11.18,11.18,0,0,0-2,6.91v1Z"/><path class="cls-4" d="M740.75,340.94a2.27,2.27,0,0,1-2-.5,2.3,2.3,0,0,1-.81-1.81v-65.3a3.26,3.26,0,0,1,.81-2.09,3.21,3.21,0,0,1,2-1.2l29.79-5.26a2.23,2.23,0,0,1,1.9.52,2.39,2.39,0,0,1,.82,1.9V272a3.41,3.41,0,0,1-.82,2.2,3.16,3.16,0,0,1-1.9,1.18L749.79,279v17.6l17.84-3.14a2.19,2.19,0,0,1,1.9.52,2.46,2.46,0,0,1,.82,1.93v4.74a3.47,3.47,0,0,1-.82,2.22,3.2,3.2,0,0,1-1.9,1.19l-17.84,3.14v21.5L771,325a2.2,2.2,0,0,1,1.89.51,2.4,2.4,0,0,1,.82,1.91v4.8a3.34,3.34,0,0,1-.82,2.19A3.16,3.16,0,0,1,771,335.6Z"/><path class="cls-4" d="M814.67,325.1a3.23,3.23,0,0,1-.82,2.1,3.32,3.32,0,0,1-2,1.2l-27.08,4.77a2.31,2.31,0,0,1-2.79-2.3v-65.3a3.27,3.27,0,0,1,.81-2.1,3.3,3.3,0,0,1,2-1.2l6.25-1.1a2.25,2.25,0,0,1,2,.5,2.29,2.29,0,0,1,.82,1.81V321l18-3.18a2.29,2.29,0,0,1,2,.5,2.26,2.26,0,0,1,.82,1.8Z"/></g></g></svg>