<svg xmlns="http://www.w3.org/2000/svg" viewBox="0 0 847.99 394.97"><defs><style>.cls-1{fill:#010909;}.cls-2{fill:#b4dc00;}.cls-3{fill:#119cd4;}.cls-4{fill:#fff;}</style></defs><title>Bern</title><g id="Ebene_2" data-name="Ebene 2"><g id="Ebene_1-2" data-name="Ebene 1"><path class="cls-1" d="M72,321.11C72,364.22,59.63,373.87,36.4,378,15.28,381.69,2,371.6,2,349.12v-3.37L23,342c-.47,8.72,2.95,17.66,13.86,15.75C51.45,355.18,50,340.83,50,329.8V309.69l-.48.08c-3,10.35-10.25,18.58-20.94,20C.72,334.65,0,293.83,0,273.24c0-19.39-.47-63.13,28.09-68.17,11.65-2,16.77,3.77,21.43,12.53L50,217V203.15l22-3.9ZM36,223.79c-15.08,2.65-13.68,35.47-13.68,44.1,0,9.1-1.4,43.09,14.39,40.31S50.15,274,50.15,264.15,50.16,221.28,36,223.79Z"/><path class="cls-1" d="M114,206.68l.31-.08c5.11-11.42,12.69-19,24.69-21.14v22.27l-3.67.41C119,211,114,221.26,114,236.58v76.14l-22,3.89V195.69l22-3.85Z"/><path class="cls-1" d="M176.65,180.83l-.08,75.65c0,10.79-1.42,26.83,13.44,24.21,14.63-2.58,13-16.89,13-27.66V176.15l21.82-3.84,0,81.65c0,24.91-7,42.45-33.72,47.16C159.24,306.73,155,289.07,155,261.55V184.67Z"/><path class="cls-1" d="M266.83,178.79l.44-.09c4.88-10.68,12.09-17.92,23.7-20,23.21-4.09,23.91,17.09,23.92,35.52l0,83.09L293,281.2V197.62c0-8.39-1.28-18.9-12.89-16.86C265.7,183.28,267,200.08,267,210.39v75.42l-22,3.85V168.74l21.82-3.85Z"/><path class="cls-1" d="M357,270l-22,3.86V75.09l22-3.84Z"/><path class="cls-1" d="M373.17,109.52A18.34,18.34,0,0,1,387.8,92.08c7.66-1.35,14.39,4.17,14.39,12.32,0,8.38-6.72,16.26-14.39,17.61C379.68,123.45,373.17,117.89,373.17,109.52ZM398,262.6l-21,3.86V145.53l21-3.85Z"/><path class="cls-1" d="M418.33,60.35,440,56.5v91.22l.62-.08c4.4-10.11,9.83-17,20.95-19,27.64-4.85,28.38,35.71,28.37,55.85,0,19.6-.43,64-27.62,68.79-12.53,2.22-17.29-3.91-21.71-13.68l-.61.08v15.57l-21.75,3.85Zm49.34,129.46c0-9.82,1.87-42.47-14.39-39.6-14.63,2.58-13.71,35-13.71,44.56s-.92,42.31,13.71,40C469.54,231.64,467.67,199.64,467.67,189.81Z"/><path class="cls-1" d="M525.7,184.13c0,10.06-.44,37.92,13.72,35.41,11.61-2,13.71-15.57,13.72-24.92l20.19-3.56c0,22.28-9.52,44.3-34.12,48.63-32.76,5.78-35.78-29.6-35.78-55.22,0-24.65,2.79-63.7,35.05-69.4,31.83-5.6,35.51,32,35.51,57v3.57Zm26-20.64c0-9.33,0-30.64-13.23-28.31-13.71,2.42-12.78,23.55-12.78,32.91Z"/><path class="cls-1" d="M612.59,118.77l.49-.07c5.11-11.43,12.91-19,24.91-21.15v22.26l-3.68.42C618.05,123.1,613,133.33,613,148.68v76.13l-22,3.89V107.78l21.7-3.85Z"/><path class="cls-1" d="M697,194.38l-.44.1c-4.4,11.31-9,19.06-21.56,21.28-27.16,4.79-27.63-39.44-27.64-59,0-20.13.71-60.94,28.34-65.82,10.23-1.81,16.92,3.48,20.86,11.64l.44-.09V89l21.85-3.84V206.11L697,209.94Zm.76-45.13c0-9.58.94-42.31-13.69-39.73-16.26,2.87-14.41,34.86-14.41,44.69,0,10-1.86,42.7,14.41,39.83C698.69,191.47,697.75,158.83,697.75,149.25Z"/><path class="cls-1" d="M760.76,198.73,739,202.58V3.85L760.8,0Z"/><path class="cls-1" d="M799.7,135.82c0,10.07-.48,37.92,13.69,35.42,11.61-2.06,13.7-15.58,13.7-24.92l20.22-3.57c0,22.28-9.52,44.31-34.13,48.64-32.75,5.78-35.77-29.62-35.77-55.23,0-24.65,2.78-63.7,35.06-69.39,31.8-5.61,35.52,32,35.52,57v3.58Zm26-20.63c0-9.35,0-30.65-13.22-28.31-13.71,2.4-12.78,23.55-12.78,32.91Z"/><path class="cls-2" d="M262.83,60.22c-6.2,1.08-9,.57-16.36,1.82-23.11,3.9-47.37,11.54-60.4,30.57-17.12,25.07-22.75,67.15-40.48,82,11.82-5.59,18.91-19.5,40.11-25.35,16-4.38,32.37-5.32,46.23-18.26C246.1,117.65,253,96.55,256.27,78.74c1.09-7.33,2.35-12.17,6.71-18.55ZM247.6,73.41c-10.24,9.74-26.87,27.38-36,36.52-18.48,18.45-55.1,55.13-55.1,55.13-.2.18-3.93,4.29-4.16,4-.4-.47,3.8-4.52,7-8.08,0,0,35.21-38.69,49.65-53.25,18-18.16,35-33.43,35-33.43C257.94,61.84,261.67,61,261.67,61S256.42,65,247.6,73.41Z"/><path class="cls-1" d="M6.2,113.57a3.7,3.7,0,0,1-4.47-3.81A5.57,5.57,0,0,1,6.2,104.5a3.64,3.64,0,0,1,4.35,3.72A5.59,5.59,0,0,1,6.2,113.57ZM9,188.5l-6,1V123.77l6-1Z"/><path class="cls-1" d="M23,120.23v30.18c0,6.53.58,12.85,6.42,11.82s6.58-7.47,6.58-14V118l6-1V152.3c0,8-4.14,14.14-12.5,15.63S17,164.73,17,156.6V121.28Z"/><path class="cls-1" d="M55.9,118.32A14.77,14.77,0,0,1,65,112.08c8.29-1.45,9,6.29,9,12.86v34.38l-6,1.05V126.63c0-5.72-.23-10-5.15-9.18-6.72,1.19-6.85,8.81-6.85,13.88v31.2l-6,1.05V115.52l5.91-1Z"/><path class="cls-1" d="M106.71,155.35c0,9-.13,17.41-11.95,19.5C86.59,176.29,83,171.9,83,163.64v-1.76l5-1v.84c0,4.5,1.49,8.32,6.58,7.42,6.65-1.17,6.42-7.08,6.42-12.23v-5.62A11.83,11.83,0,0,1,93.3,156c-11.62,2-11.89-14.5-11.89-23,0-8.07.89-23.87,11.69-25.78a7.66,7.66,0,0,1,7.63,2.7l.26,0v-3.27l5.82-1Zm-11.92-4.63c6.26-1.12,6.55-10.62,6.55-21.12,0-8.81-.55-18.84-7-17.7-4.27.76-6.88,4.22-6.91,21.84C87.42,139,87.34,152,94.79,150.72Z"/><path class="cls-1" d="M120,128.51v1.41c0,4.78.66,16.26,7.12,15.13,5.18-.92,5.85-8.57,5.84-12.39l6.05-1.08c-.08,7.33-2.84,17.55-11.49,19.07-12.26,2.17-13.88-12.53-13.9-22.17,0-8.64,1.81-25.26,13.09-27.26,10.9-1.92,12.61,12.48,12.61,20.93l.17,2.91ZM133.32,121l-.08-.83c-.18-4.56-.35-14.28-6.54-13.18-5.64,1-6.92,12.1-6.92,16.41Z"/><polygon class="cls-3" points="581.99 271.32 581.99 394.97 847.99 348.07 847.99 224.43 581.99 271.32"/><path class="cls-4" d="M621.06,367.16a2.57,2.57,0,0,1-2.12-.5,2.39,2.39,0,0,1-1-1.8v-65.3a3.85,3.85,0,0,1,3-3.3l22.82-4a10.72,10.72,0,0,1,5,.22,9.43,9.43,0,0,1,3.89,2.27,11,11,0,0,1,2.43,3.75,11.55,11.55,0,0,1,.84,4.59v9.3a14.92,14.92,0,0,1-1.61,7.05,12.84,12.84,0,0,1-5.33,5.3,9.59,9.59,0,0,1,4.43,1,8.17,8.17,0,0,1,2.87,2.55,9.8,9.8,0,0,1,1.35,3.58,18.24,18.24,0,0,1,.29,4v11.6a14.41,14.41,0,0,1-.72,4.91,16,16,0,0,1-2.44,4.64,16.9,16.9,0,0,1-3.89,3.7,13.11,13.11,0,0,1-5.17,2.06ZM645,308.69c0-1.94-.42-3.4-1.59-4.4a5.12,5.12,0,0,0-4.52-1L630,304.9v19l9-1.59a7.06,7.06,0,0,0,4.47-2.62,7.61,7.61,0,0,0,1.56-5.1Zm-15,46.82,9.55-1.7a7.54,7.54,0,0,0,4.68-2.62,7.78,7.78,0,0,0,1.77-5.11v-8.7a5.59,5.59,0,0,0-1.8-4.49,5.35,5.35,0,0,0-4.63-1L630,333.6Z"/><path class="cls-4" d="M693.8,283.43a1.89,1.89,0,0,1,1.45.25,1.93,1.93,0,0,1,.78,1.16l14.64,62.72a5.2,5.2,0,0,1,.25,1.06c0,.33,0,.52,0,.59a2.49,2.49,0,0,1-.58,1.55,2.38,2.38,0,0,1-1.55.92L701.65,353a1.47,1.47,0,0,1-1.4-.4,2.92,2.92,0,0,1-.73-1.42L696.61,339,678,342.32l-2.91,13.12a4.26,4.26,0,0,1-.73,1.67,2.09,2.09,0,0,1-1.4.9l-7.18,1.27a1.7,1.7,0,0,1-1.55-.38,1.76,1.76,0,0,1-.58-1.35c0-.06,0-.26,0-.6a6.5,6.5,0,0,1,.25-1.15l14.64-67.88a3,3,0,0,1,.78-1.44,2.58,2.58,0,0,1,1.45-.75ZM684,275.35a3.75,3.75,0,0,1-1,2.09,3.29,3.29,0,0,1-2,1.17l-6.85,1.2a1.67,1.67,0,0,1-1.63-.53,2.22,2.22,0,0,1-.55-1.81V272a3.07,3.07,0,0,1,.53-2.09,2.7,2.7,0,0,1,1.71-1.17l6.73-1.2a2.46,2.46,0,0,1,2,.53,2.54,2.54,0,0,1,1,1.81Zm3.31,21.73-7.08,34.45,14.16-2.5ZM703,272a3.39,3.39,0,0,1-.86,2.08,3.11,3.11,0,0,1-1.89,1.18l-6.81,1.19a1.88,1.88,0,0,1-1.75-.52,2.29,2.29,0,0,1-.69-1.82v-5.5a3.19,3.19,0,0,1,.68-2.08,2.87,2.87,0,0,1,1.79-1.18l6.76-1.19a2.21,2.21,0,0,1,1.92.52,2.42,2.42,0,0,1,.85,1.82Z"/><path class="cls-4" d="M730,317.56v27.6a3.59,3.59,0,0,1-2.8,3.29l-6.26,1.1a2.42,2.42,0,0,1-2-.5,2.36,2.36,0,0,1-.89-1.81v-65.3a3.74,3.74,0,0,1,2.93-3.29l23.68-4.18a11.38,11.38,0,0,1,5.1.16,9.13,9.13,0,0,1,3.88,2.16,10.24,10.24,0,0,1,2.51,3.72,12.88,12.88,0,0,1,.9,4.79v10a19.79,19.79,0,0,1-1.82,8.57,9.69,9.69,0,0,1-6.56,5.1,9.13,9.13,0,0,1,4.74.71,7.53,7.53,0,0,1,3,2.63,10.4,10.4,0,0,1,1.4,4,30.46,30.46,0,0,1,.28,4.83v19a3.14,3.14,0,0,1-.72,2.1,3.18,3.18,0,0,1-1.94,1.2l-6.28,1.11a2.59,2.59,0,0,1-2.11-.5,2.39,2.39,0,0,1-1-1.81v-21c0-2-.5-3.49-1.77-4.46a5.7,5.7,0,0,0-4.74-.95Zm16-26.63a5,5,0,0,0-6.44-5.36L730,287.26v20.1l9.55-1.69a7.55,7.55,0,0,0,4.69-2.63,7.72,7.72,0,0,0,1.76-5.11Z"/><path class="cls-4" d="M800,267.63a3.45,3.45,0,0,1,2.72-3.3l6.24-1.1a2.6,2.6,0,0,1,2.1.5,2.44,2.44,0,0,1,.94,1.81v65.2a3.85,3.85,0,0,1-3,3.3l-8,1.4a2,2,0,0,1-2-.49,9.54,9.54,0,0,1-1.06-1.76l-18.9-41v44.3a3.27,3.27,0,0,1-.84,2.1,3.21,3.21,0,0,1-2,1.19l-6.26,1.1a2.4,2.4,0,0,1-2-.5,2.35,2.35,0,0,1-.88-1.8v-65.3a3.71,3.71,0,0,1,2.91-3.3l8-1.4a2,2,0,0,1,2,.49,10.23,10.23,0,0,1,1.12,1.76l19,41Z"/></g></g></svg>