<svg xmlns="http://www.w3.org/2000/svg" viewBox="0 0 847.99 437.55"><defs><style>.cls-1{fill:#010909;}.cls-2{fill:#b4dc00;}.cls-3{fill:#079bd4;}.cls-4{fill:#119cd4;}.cls-5{fill:#fff;}</style></defs><title>Graubünden</title><g id="Ebene_2" data-name="Ebene 2"><g id="Ebene_1-2" data-name="Ebene 1"><path class="cls-1" d="M72,321.11C72,364.22,59.63,373.87,36.4,378,15.28,381.69,2,371.6,2,349.12v-3.37L23,342c-.47,8.72,2.95,17.66,13.86,15.75C51.45,355.18,50,340.83,50,329.8V309.69l-.48.08c-3,10.35-10.25,18.58-20.94,20C.72,334.65,0,293.83,0,273.24c0-19.39-.47-63.13,28.09-68.17,11.65-2,16.77,3.77,21.43,12.53L50,217V203.15l22-3.9ZM36,223.79c-15.08,2.65-13.68,35.47-13.68,44.1,0,9.1-1.4,43.09,14.39,40.31S50.15,274,50.15,264.15,50.16,221.28,36,223.79Z"/><path class="cls-1" d="M114,206.67l.31-.07c5.11-11.43,12.69-19,24.69-21.14v22.27l-3.67.41C119,211,114,221.26,114,236.58v76.14l-22,3.89V195.69l22-3.85Z"/><path class="cls-1" d="M176.65,180.83l-.08,75.65c0,10.79-1.42,26.84,13.44,24.21,14.63-2.58,13-16.89,13-27.66V176.15l21.82-3.84,0,81.65c0,24.91-7,42.46-33.72,47.16C159.24,306.73,155,289.07,155,261.55V184.67Z"/><path class="cls-1" d="M266.83,178.79l.44-.09c4.88-10.68,12.09-17.92,23.7-20,23.21-4.09,23.91,17.09,23.92,35.52l0,83.09L293,281.2V197.62c0-8.39-1.28-18.91-12.89-16.87C265.7,183.28,267,200.08,267,210.39v75.43l-22,3.84V168.74l21.82-3.85Z"/><path class="cls-1" d="M357,270l-22,3.86V75.09l22-3.84Z"/><path class="cls-1" d="M373.17,109.52A18.34,18.34,0,0,1,387.8,92.08c7.66-1.35,14.39,4.17,14.39,12.32,0,8.38-6.72,16.26-14.39,17.61C379.68,123.45,373.17,117.89,373.17,109.52ZM398,262.6l-21,3.86V145.53l21-3.85Z"/><path class="cls-1" d="M418.33,60.35,440,56.5v91.22l.62-.08c4.4-10.11,9.83-17,20.95-19,27.64-4.85,28.38,35.71,28.37,55.85,0,19.6-.43,64-27.62,68.79-12.53,2.22-17.29-3.9-21.71-13.68l-.61.08v15.57l-21.75,3.85Zm49.34,129.46c0-9.82,1.87-42.47-14.39-39.6-14.63,2.58-13.71,35-13.71,44.56s-.92,42.31,13.71,40C469.54,231.64,467.67,199.64,467.67,189.81Z"/><path class="cls-1" d="M525.7,184.13c0,10.06-.44,37.92,13.72,35.41,11.61-2,13.71-15.57,13.72-24.92l20.19-3.56c0,22.28-9.52,44.3-34.12,48.63-32.76,5.78-35.78-29.6-35.78-55.22,0-24.65,2.79-63.7,35.05-69.4,31.83-5.6,35.51,32,35.51,57v3.57Zm26-20.64c0-9.33,0-30.64-13.23-28.31-13.71,2.42-12.78,23.55-12.78,32.91Z"/><path class="cls-1" d="M612.59,118.77l.49-.07c5.11-11.43,12.91-19,24.91-21.15v22.26l-3.68.42C618.05,123.1,613,133.33,613,148.68v76.14l-22,3.88V107.78l21.7-3.85Z"/><path class="cls-1" d="M697,194.38l-.44.1c-4.4,11.31-9,19.06-21.56,21.28-27.16,4.79-27.63-39.44-27.64-59,0-20.13.71-60.94,28.34-65.82,10.23-1.81,16.92,3.48,20.86,11.64l.44-.09V89l21.85-3.84V206.11L697,209.94Zm.76-45.13c0-9.58.94-42.31-13.69-39.73-16.26,2.87-14.41,34.86-14.41,44.69,0,10-1.86,42.7,14.41,39.83C698.69,191.47,697.75,158.83,697.75,149.25Z"/><path class="cls-1" d="M760.76,198.73,739,202.58V3.85L760.8,0Z"/><path class="cls-1" d="M799.7,135.82c0,10.07-.48,37.92,13.69,35.42,11.61-2.06,13.7-15.58,13.7-24.92l20.22-3.57c0,22.28-9.52,44.31-34.13,48.64-32.75,5.78-35.77-29.62-35.77-55.23,0-24.65,2.78-63.7,35.06-69.39,31.8-5.61,35.52,32,35.52,57v3.58Zm26-20.63c0-9.35,0-30.65-13.22-28.32-13.71,2.41-12.78,23.56-12.78,32.92Z"/><path class="cls-2" d="M262.83,60.22c-6.2,1.08-9,.57-16.36,1.82-23.11,3.9-47.37,11.54-60.4,30.57-17.12,25.06-22.75,67.15-40.48,82,11.82-5.59,18.91-19.5,40.11-25.35,16-4.38,32.37-5.32,46.23-18.26C246.1,117.65,253,96.55,256.27,78.74c1.09-7.33,2.35-12.17,6.71-18.55ZM247.6,73.41c-10.24,9.74-26.87,27.38-36,36.52-18.48,18.45-55.1,55.13-55.1,55.13-.2.18-3.93,4.29-4.16,4-.4-.47,3.8-4.52,7-8.08,0,0,35.21-38.69,49.65-53.26,18-18.15,35-33.42,35-33.42C257.94,61.84,261.67,61,261.67,61S256.42,65,247.6,73.41Z"/><path class="cls-1" d="M6.2,113.57a3.7,3.7,0,0,1-4.47-3.81A5.58,5.58,0,0,1,6.2,104.5a3.64,3.64,0,0,1,4.35,3.72A5.59,5.59,0,0,1,6.2,113.57ZM9,188.5l-6,1V123.77l6-1Z"/><path class="cls-1" d="M23,120.23v30.18c0,6.53.58,12.85,6.42,11.82s6.58-7.47,6.58-14V118l6-1V152.3c0,8-4.14,14.14-12.5,15.63S17,164.73,17,156.6V121.28Z"/><path class="cls-1" d="M55.9,118.32A14.77,14.77,0,0,1,65,112.08c8.29-1.45,9,6.29,9,12.86v34.38l-6,1.05V126.63c0-5.72-.23-10-5.15-9.18-6.72,1.19-6.85,8.81-6.85,13.88v31.2l-6,1.05V115.52l5.91-1Z"/><path class="cls-1" d="M106.71,155.35c0,9-.13,17.41-11.95,19.5C86.59,176.29,83,171.9,83,163.64v-1.76l5-1v.84c0,4.5,1.49,8.32,6.58,7.42,6.65-1.17,6.42-7.08,6.42-12.23v-5.62A11.83,11.83,0,0,1,93.3,156c-11.62,2-11.89-14.5-11.89-23,0-8.07.89-23.86,11.69-25.78a7.66,7.66,0,0,1,7.63,2.7l.26,0v-3.27l5.82-1Zm-11.92-4.63c6.26-1.12,6.55-10.62,6.55-21.12,0-8.81-.55-18.84-7-17.7-4.27.76-6.88,4.22-6.91,21.84C87.42,139,87.34,152,94.79,150.72Z"/><path class="cls-1" d="M120,128.51v1.41c0,4.78.66,16.26,7.12,15.13,5.18-.92,5.85-8.57,5.84-12.39l6.05-1.08c-.08,7.33-2.84,17.55-11.49,19.07-12.26,2.17-13.88-12.53-13.9-22.17,0-8.64,1.81-25.26,13.09-27.26,10.9-1.92,12.61,12.48,12.61,20.93l.17,2.91ZM133.32,121l-.08-.83c-.18-4.55-.35-14.28-6.54-13.18-5.64,1-6.92,12.1-6.92,16.41Z"/><path class="cls-3" d="M601.11,322.11a7.76,7.76,0,0,0,1.74-5.11v-5.9a5.47,5.47,0,0,0-1.74-4.39,5.42,5.42,0,0,0-4.66-1l-9,1.59v19l9-1.59A7.49,7.49,0,0,0,601.11,322.11Z"/><path class="cls-3" d="M750,278.65l-9.18,1.62v50.5l9.18-1.62a7.46,7.46,0,0,0,4.63-2.57,8.37,8.37,0,0,0,1.71-5.55v-36.4q0-3.5-1.71-5A5.3,5.3,0,0,0,750,278.65Z"/><path class="cls-3" d="M597,334.33,587.43,336v21.9l9.61-1.69a7.54,7.54,0,0,0,4.65-2.62,7.78,7.78,0,0,0,1.75-5.11v-8.7a5.59,5.59,0,0,0-1.75-4.49A5.37,5.37,0,0,0,597,334.33Z"/><polygon class="cls-3" points="488.03 360.35 502.19 357.85 495.11 325.9 488.03 360.35"/><path class="cls-3" d="M447,332.09l-9.56,1.69v20.1l9.56-1.69a7.57,7.57,0,0,0,4.69-2.63,7.69,7.69,0,0,0,1.75-5.1v-7a5,5,0,0,0-6.44-5.37Z"/><path class="cls-4" d="M343.66,313.9V437.55l504.33-89V224.91Zm304.49-42.78a3.3,3.3,0,0,1,.77-2.09,3,3,0,0,1,1.84-1.18l6.79-1.19a2.07,2.07,0,0,1,1.85.52,2.39,2.39,0,0,1,.77,1.82v5.5a3.33,3.33,0,0,1-.77,2.08,3,3,0,0,1-1.85,1.18L650.76,279a2,2,0,0,1-1.84-.52,2.33,2.33,0,0,1-.77-1.81Zm-19.31,3.4a3.33,3.33,0,0,1,.78-2.09,3,3,0,0,1,1.84-1.17l6.79-1.2a2.1,2.1,0,0,1,1.85.52,2.4,2.4,0,0,1,.77,1.82v5.5a3.38,3.38,0,0,1-.77,2.09,3,3,0,0,1-1.85,1.17l-6.79,1.2a2.06,2.06,0,0,1-1.84-.53,2.34,2.34,0,0,1-.78-1.81Zm-213.65,121a3.38,3.38,0,0,1-.82,2.2,3.15,3.15,0,0,1-1.87,1.18L406.05,400a2.13,2.13,0,0,1-1.87-.51,2.4,2.4,0,0,1-.82-1.91v-1.4a17.12,17.12,0,0,1-5.53,5.77,19,19,0,0,1-6.88,2.72,15.43,15.43,0,0,1-5.87-.07,10.82,10.82,0,0,1-5.05-2.51,13.26,13.26,0,0,1-3.49-5.43,25.26,25.26,0,0,1-1.31-8.72v-36.1a23.31,23.31,0,0,1,1.55-8.62,21.53,21.53,0,0,1,4.26-6.85,23.71,23.71,0,0,1,6.33-4.87,25.86,25.86,0,0,1,7.79-2.67,22,22,0,0,1,7.79-.08,15.32,15.32,0,0,1,6.34,2.63,13.41,13.41,0,0,1,4.26,5.35,19.35,19.35,0,0,1,1.54,8.08v1.7a3.26,3.26,0,0,1-.81,2.09,3.21,3.21,0,0,1-2,1.2l-6.15,1.09a2.33,2.33,0,0,1-2.79-2.31v-1.7a7.91,7.91,0,0,0-2.23-6,6.49,6.49,0,0,0-5.92-1.45A9.17,9.17,0,0,0,389.3,343a10.78,10.78,0,0,0-2.23,6.79v36.1a7.85,7.85,0,0,0,2.23,6,6.5,6.5,0,0,0,5.91,1.46,9.27,9.27,0,0,0,5.92-3.55,10.84,10.84,0,0,0,2.23-6.79v-13.3l-5.82,1a2.18,2.18,0,0,1-1.89-.53,2.4,2.4,0,0,1-.83-1.92v-4.75a3.4,3.4,0,0,1,.83-2.21,3.18,3.18,0,0,1,1.89-1.2l15-2.63a2.14,2.14,0,0,1,1.87.52,2.38,2.38,0,0,1,.82,1.91Zm50.43-8.79a3.55,3.55,0,0,1-2.81,3.3l-6.3,1.11a2.34,2.34,0,0,1-2.82-2.31v-21a5.27,5.27,0,0,0-1.9-4.46,5.91,5.91,0,0,0-4.83-.95l-9.56,1.69v27.6a3.56,3.56,0,0,1-2.79,3.29l-6.25,1.1a2.31,2.31,0,0,1-2.79-2.31v-65.3a3.55,3.55,0,0,1,2.81-3.29L452,321a11.23,11.23,0,0,1,5.1.16,9.25,9.25,0,0,1,3.88,2.16,10.36,10.36,0,0,1,2.47,3.72,12.87,12.87,0,0,1,.87,4.79v10a19.78,19.78,0,0,1-1.79,8.57,9.68,9.68,0,0,1-6.55,5.1,9.06,9.06,0,0,1,4.75.72,7.43,7.43,0,0,1,3,2.62,10.49,10.49,0,0,1,1.51,4,30.29,30.29,0,0,1,.38,4.83Zm52.57-7.12a2.43,2.43,0,0,1-1.55.92l-7.18,1.27a1.49,1.49,0,0,1-1.41-.4,2.91,2.91,0,0,1-.72-1.42l-2.91-12.09-18.63,3.28-2.9,13.12a4.57,4.57,0,0,1-.73,1.67,2.13,2.13,0,0,1-1.41.9l-7.18,1.27a1.71,1.71,0,0,1-1.55-.38,1.79,1.79,0,0,1-.58-1.34c0-.07,0-.27.05-.61a5.77,5.77,0,0,1,.24-1.15l14.65-67.88a3.16,3.16,0,0,1,.77-1.44,2.61,2.61,0,0,1,1.46-.75l13-2.3a2,2,0,0,1,1.46.25,1.91,1.91,0,0,1,.77,1.16l14.65,62.72a4.56,4.56,0,0,1,.24,1.06c0,.33,0,.52,0,.59A2.49,2.49,0,0,1,518.19,379.58Zm47.23-25.18a23.37,23.37,0,0,1-1.55,8.63,21.85,21.85,0,0,1-4.27,6.85,24,24,0,0,1-6.35,4.87,26.28,26.28,0,0,1-7.81,2.68,22.09,22.09,0,0,1-7.81.07,15.23,15.23,0,0,1-6.35-2.63,13.29,13.29,0,0,1-4.27-5.35,19.27,19.27,0,0,1-1.55-8.07v-50.6a3.58,3.58,0,0,1,2.81-3.3l6.21-1.09a2.29,2.29,0,0,1,2,.5,2.26,2.26,0,0,1,.82,1.8v50.6a7.89,7.89,0,0,0,2.23,6,6.52,6.52,0,0,0,5.92,1.46,9.27,9.27,0,0,0,5.92-3.55,10.82,10.82,0,0,0,2.23-6.79v-50.6a3.55,3.55,0,0,1,2.81-3.3l6.21-1.09a2.33,2.33,0,0,1,2.81,2.3Zm50.43-4.49a14.93,14.93,0,0,1-.87,4.91,16.78,16.78,0,0,1-6.45,8.33,13.06,13.06,0,0,1-5.19,2.07l-24.73,4.36a2.32,2.32,0,0,1-2-.5,2.27,2.27,0,0,1-.83-1.81V302a3.58,3.58,0,0,1,2.82-3.29l22.79-4a10.5,10.5,0,0,1,5,.22,9.31,9.31,0,0,1,3.88,2.26,11.48,11.48,0,0,1,2.53,3.76,11.79,11.79,0,0,1,.92,4.59v9.3a15,15,0,0,1-1.7,7,13,13,0,0,1-5.38,5.3,9.27,9.27,0,0,1,4.41,1,8,8,0,0,1,2.86,2.54,10.12,10.12,0,0,1,1.5,3.59,19.11,19.11,0,0,1,.44,4ZM664.24,337a23.11,23.11,0,0,1-1.55,8.62,21.53,21.53,0,0,1-4.26,6.85,23.86,23.86,0,0,1-6.36,4.87,25.94,25.94,0,0,1-7.8,2.68,22.34,22.34,0,0,1-7.81.08,15.26,15.26,0,0,1-6.35-2.63,13.26,13.26,0,0,1-4.27-5.35,19.13,19.13,0,0,1-1.55-8.08v-50.6a3.55,3.55,0,0,1,2.81-3.29l6.21-1.1a2.31,2.31,0,0,1,2,.5,2.27,2.27,0,0,1,.83,1.81v50.6a7.83,7.83,0,0,0,2.23,6,6.5,6.5,0,0,0,5.92,1.46,9.22,9.22,0,0,0,5.91-3.54,10.81,10.81,0,0,0,2.23-6.8v-50.6a3.58,3.58,0,0,1,2.82-3.29l6.2-1.1a2.32,2.32,0,0,1,2,.5,2.26,2.26,0,0,1,.82,1.81Zm54.51,5.09a3.58,3.58,0,0,1-2.81,3.29l-8,1.4a1.94,1.94,0,0,1-2-.49,8.93,8.93,0,0,1-1.07-1.76l-18.91-41v44.3a3.22,3.22,0,0,1-.82,2.09,3.28,3.28,0,0,1-2,1.2l-6.25,1.1a2.31,2.31,0,0,1-2.79-2.31v-65.3a3.55,3.55,0,0,1,2.81-3.29l7.95-1.41a2,2,0,0,1,2,.5,8.92,8.92,0,0,1,1.06,1.76l18.92,41V279a3.26,3.26,0,0,1,.81-2.09,3.3,3.3,0,0,1,2-1.2l6.25-1.1a2.32,2.32,0,0,1,2.79,2.31Zm49.65-19a12.78,12.78,0,0,1-1.11,5.15,17.64,17.64,0,0,1-3,4.68,19.21,19.21,0,0,1-4.26,3.6,14.15,14.15,0,0,1-5,1.93l-23.18,4.09a2.29,2.29,0,0,1-2-.5,2.26,2.26,0,0,1-.82-1.81V275a3.22,3.22,0,0,1,.82-2.09,3.28,3.28,0,0,1,2-1.2L755,267.57a11.48,11.48,0,0,1,5,.17,11.8,11.8,0,0,1,4.26,2.1,10.78,10.78,0,0,1,3,3.62,10.2,10.2,0,0,1,1.11,4.75ZM820.1,327l-7.18,1.26a1.49,1.49,0,0,1-1.41-.4,3,3,0,0,1-.72-1.42l-2.91-12.09-18.62,3.28-2.91,13.12a4.41,4.41,0,0,1-.73,1.67,2.13,2.13,0,0,1-1.41.9L777,334.59a1.72,1.72,0,0,1-1.56-.38,1.79,1.79,0,0,1-.58-1.34c0-.07,0-.27.05-.61a5.77,5.77,0,0,1,.24-1.15l14.65-67.88a3.16,3.16,0,0,1,.77-1.44,2.61,2.61,0,0,1,1.46-.75l13-2.29a1.8,1.8,0,0,1,2.23,1.4l14.65,62.72a4.56,4.56,0,0,1,.24,1.06c0,.33.05.52.05.59a2.49,2.49,0,0,1-.58,1.55A2.44,2.44,0,0,1,820.1,327Z"/><polygon class="cls-3" points="791.49 306.84 805.65 304.35 798.57 272.39 791.49 306.84"/><path class="cls-5" d="M412.5,357.47l-15,2.63a3.18,3.18,0,0,0-1.89,1.2,3.4,3.4,0,0,0-.83,2.21v4.75a2.4,2.4,0,0,0,.83,1.92,2.18,2.18,0,0,0,1.89.53l5.82-1V383a10.84,10.84,0,0,1-2.23,6.79,9.27,9.27,0,0,1-5.92,3.55,6.5,6.5,0,0,1-5.91-1.46,7.85,7.85,0,0,1-2.23-6v-36.1A10.78,10.78,0,0,1,389.3,343a9.17,9.17,0,0,1,5.91-3.54,6.49,6.49,0,0,1,5.92,1.45,7.91,7.91,0,0,1,2.23,6v1.7a2.33,2.33,0,0,0,2.79,2.31l6.15-1.09a3.21,3.21,0,0,0,2-1.2,3.26,3.26,0,0,0,.81-2.09v-1.7a19.35,19.35,0,0,0-1.54-8.08,13.41,13.41,0,0,0-4.26-5.35,15.32,15.32,0,0,0-6.34-2.63,22,22,0,0,0-7.79.08,25.86,25.86,0,0,0-7.79,2.67,23.71,23.71,0,0,0-6.33,4.87,21.53,21.53,0,0,0-4.26,6.85,23.31,23.31,0,0,0-1.55,8.62v36.1a25.26,25.26,0,0,0,1.31,8.72,13.26,13.26,0,0,0,3.49,5.43,10.82,10.82,0,0,0,5.05,2.51,15.43,15.43,0,0,0,5.87.07,19,19,0,0,0,6.88-2.72,17.12,17.12,0,0,0,5.53-5.77v1.4a2.4,2.4,0,0,0,.82,1.91,2.13,2.13,0,0,0,1.87.51l6.45-1.13a3.15,3.15,0,0,0,1.87-1.18,3.38,3.38,0,0,0,.82-2.2V359.9a2.38,2.38,0,0,0-.82-1.91A2.14,2.14,0,0,0,412.5,357.47Z"/><path class="cls-5" d="M463.73,358.83a7.43,7.43,0,0,0-3-2.62,9.06,9.06,0,0,0-4.75-.72,9.68,9.68,0,0,0,6.55-5.1,19.78,19.78,0,0,0,1.79-8.57v-10a12.87,12.87,0,0,0-.87-4.79,10.36,10.36,0,0,0-2.47-3.72,9.25,9.25,0,0,0-3.88-2.16A11.23,11.23,0,0,0,452,321l-23.66,4.18a3.55,3.55,0,0,0-2.81,3.29v65.3a2.31,2.31,0,0,0,2.79,2.31l6.25-1.1a3.56,3.56,0,0,0,2.79-3.29v-27.6l9.56-1.69a5.91,5.91,0,0,1,4.83.95,5.27,5.27,0,0,1,1.9,4.46v21a2.34,2.34,0,0,0,2.82,2.31l6.3-1.11a3.55,3.55,0,0,0,2.81-3.3v-19a30.29,30.29,0,0,0-.38-4.83A10.49,10.49,0,0,0,463.73,358.83ZM453.4,344.46a7.69,7.69,0,0,1-1.75,5.1,7.57,7.57,0,0,1-4.69,2.63l-9.56,1.69v-20.1l9.56-1.69a5,5,0,0,1,6.44,5.37Z"/><path class="cls-5" d="M518.48,376.38l-14.65-62.72a1.91,1.91,0,0,0-.77-1.16,2,2,0,0,0-1.46-.25l-13,2.3a2.61,2.61,0,0,0-1.46.75,3.16,3.16,0,0,0-.77,1.44l-14.65,67.88a5.77,5.77,0,0,0-.24,1.15c0,.34-.05.54-.05.61a1.79,1.79,0,0,0,.58,1.34,1.71,1.71,0,0,0,1.55.38l7.18-1.27a2.13,2.13,0,0,0,1.41-.9,4.57,4.57,0,0,0,.73-1.67l2.9-13.12,18.63-3.28L507.33,380a2.91,2.91,0,0,0,.72,1.42,1.49,1.49,0,0,0,1.41.4l7.18-1.27a2.43,2.43,0,0,0,1.55-.92,2.49,2.49,0,0,0,.58-1.55c0-.07,0-.26,0-.59A4.56,4.56,0,0,0,518.48,376.38Zm-30.45-16,7.08-34.45,7.08,32Z"/><path class="cls-5" d="M562.61,301.5l-6.21,1.09a3.55,3.55,0,0,0-2.81,3.3v50.6a10.82,10.82,0,0,1-2.23,6.79,9.27,9.27,0,0,1-5.92,3.55,6.52,6.52,0,0,1-5.92-1.46,7.89,7.89,0,0,1-2.23-6v-50.6a2.26,2.26,0,0,0-.82-1.8,2.29,2.29,0,0,0-2-.5l-6.21,1.09a3.58,3.58,0,0,0-2.81,3.3v50.6a19.27,19.27,0,0,0,1.55,8.07,13.29,13.29,0,0,0,4.27,5.35,15.23,15.23,0,0,0,6.35,2.63,22.09,22.09,0,0,0,7.81-.07,26.28,26.28,0,0,0,7.81-2.68,24,24,0,0,0,6.35-4.87,21.85,21.85,0,0,0,4.27-6.85,23.37,23.37,0,0,0,1.55-8.63V303.8a2.33,2.33,0,0,0-2.81-2.3Z"/><path class="cls-5" d="M613.91,330.7a8,8,0,0,0-2.86-2.54,9.27,9.27,0,0,0-4.41-1,13,13,0,0,0,5.38-5.3,15,15,0,0,0,1.7-7v-9.3a11.79,11.79,0,0,0-.92-4.59,11.48,11.48,0,0,0-2.53-3.76,9.31,9.31,0,0,0-3.88-2.26,10.5,10.5,0,0,0-5-.22l-22.79,4a3.58,3.58,0,0,0-2.82,3.29v65.3a2.27,2.27,0,0,0,.83,1.81,2.32,2.32,0,0,0,2,.5l24.73-4.36a13.06,13.06,0,0,0,5.19-2.07,16.78,16.78,0,0,0,6.45-8.33,14.93,14.93,0,0,0,.87-4.91v-11.6a19.11,19.11,0,0,0-.44-4A10.12,10.12,0,0,0,613.91,330.7Zm-26.48-23.38,9-1.59a5.42,5.42,0,0,1,4.66,1,5.47,5.47,0,0,1,1.74,4.39V317a7.76,7.76,0,0,1-1.74,5.11,7.49,7.49,0,0,1-4.66,2.62l-9,1.59Zm16,41.18a7.78,7.78,0,0,1-1.75,5.11,7.54,7.54,0,0,1-4.65,2.62l-9.61,1.69V336l9.61-1.69a5.37,5.37,0,0,1,4.65,1,5.59,5.59,0,0,1,1.75,4.49Z"/><path class="cls-5" d="M650.76,279l6.79-1.19a3,3,0,0,0,1.85-1.18,3.33,3.33,0,0,0,.77-2.08V269a2.39,2.39,0,0,0-.77-1.82,2.07,2.07,0,0,0-1.85-.52l-6.79,1.19a3,3,0,0,0-1.84,1.18,3.3,3.3,0,0,0-.77,2.09v5.5a2.33,2.33,0,0,0,.77,1.81A2,2,0,0,0,650.76,279Z"/><path class="cls-5" d="M631.46,282.36l6.79-1.2A3,3,0,0,0,640.1,280a3.38,3.38,0,0,0,.77-2.09v-5.5a2.4,2.4,0,0,0-.77-1.82,2.1,2.1,0,0,0-1.85-.52l-6.79,1.2a3,3,0,0,0-1.84,1.17,3.33,3.33,0,0,0-.78,2.09V280a2.34,2.34,0,0,0,.78,1.81A2.06,2.06,0,0,0,631.46,282.36Z"/><path class="cls-5" d="M661.43,284.07l-6.2,1.1a3.58,3.58,0,0,0-2.82,3.29v50.6a10.81,10.81,0,0,1-2.23,6.8,9.22,9.22,0,0,1-5.91,3.54,6.5,6.5,0,0,1-5.92-1.46,7.83,7.83,0,0,1-2.23-6v-50.6a2.27,2.27,0,0,0-.83-1.81,2.31,2.31,0,0,0-2-.5l-6.21,1.1a3.55,3.55,0,0,0-2.81,3.29V344a19.13,19.13,0,0,0,1.55,8.08,13.26,13.26,0,0,0,4.27,5.35,15.26,15.26,0,0,0,6.35,2.63,22.34,22.34,0,0,0,7.81-.08,25.94,25.94,0,0,0,7.8-2.68,23.86,23.86,0,0,0,6.36-4.87,21.53,21.53,0,0,0,4.26-6.85,23.11,23.11,0,0,0,1.55-8.62v-50.6a2.26,2.26,0,0,0-.82-1.81A2.32,2.32,0,0,0,661.43,284.07Z"/><path class="cls-5" d="M716,274.56l-6.25,1.1a3.3,3.3,0,0,0-2,1.2,3.26,3.26,0,0,0-.81,2.09v44.2l-18.92-41a8.92,8.92,0,0,0-1.06-1.76,2,2,0,0,0-2-.5L677,281.34a3.55,3.55,0,0,0-2.81,3.29v65.3a2.31,2.31,0,0,0,2.79,2.31l6.25-1.1a3.28,3.28,0,0,0,2-1.2,3.22,3.22,0,0,0,.82-2.09v-44.3l18.91,41a8.93,8.93,0,0,0,1.07,1.76,1.94,1.94,0,0,0,2,.49l8-1.4a3.58,3.58,0,0,0,2.81-3.29v-65.2a2.32,2.32,0,0,0-2.79-2.31Z"/><path class="cls-5" d="M764.28,269.84a11.8,11.8,0,0,0-4.26-2.1,11.48,11.48,0,0,0-5-.17l-23.18,4.09a3.28,3.28,0,0,0-2,1.2A3.22,3.22,0,0,0,729,275v65.3a2.26,2.26,0,0,0,.82,1.81,2.29,2.29,0,0,0,2,.5L755,338.47a14.15,14.15,0,0,0,5-1.93,19.21,19.21,0,0,0,4.26-3.6,17.64,17.64,0,0,0,3-4.68,12.78,12.78,0,0,0,1.11-5.15v-44.9a10.2,10.2,0,0,0-1.11-4.75A10.78,10.78,0,0,0,764.28,269.84ZM756.38,321a8.37,8.37,0,0,1-1.71,5.55,7.46,7.46,0,0,1-4.63,2.57l-9.18,1.62v-50.5l9.18-1.62a5.3,5.3,0,0,1,4.63,1q1.71,1.5,1.71,5Z"/><path class="cls-5" d="M822.18,323.93a4.56,4.56,0,0,0-.24-1.06l-14.65-62.72a1.8,1.8,0,0,0-2.23-1.4l-13,2.29a2.61,2.61,0,0,0-1.46.75,3.16,3.16,0,0,0-.77,1.44l-14.65,67.88a5.77,5.77,0,0,0-.24,1.15c0,.34-.05.54-.05.61a1.79,1.79,0,0,0,.58,1.34,1.72,1.72,0,0,0,1.56.38l7.17-1.27a2.13,2.13,0,0,0,1.41-.9,4.41,4.41,0,0,0,.73-1.67l2.91-13.12,18.62-3.28,2.91,12.09a3,3,0,0,0,.72,1.42,1.49,1.49,0,0,0,1.41.4L820.1,327a2.44,2.44,0,0,0,1.55-.93,2.49,2.49,0,0,0,.58-1.55C822.23,324.45,822.21,324.26,822.18,323.93Zm-30.69-17.09,7.08-34.45,7.08,31.95Z"/></g></g></svg>