<svg xmlns="http://www.w3.org/2000/svg" viewBox="0 0 847.99 409.66"><defs><style>.cls-1{fill:#119cd4;}.cls-2{fill:#fff;}.cls-3{fill:#010909;}.cls-4{fill:#b4dc00;}</style></defs><title>Luzern</title><g id="Ebene_2" data-name="Ebene 2"><g id="Ebene_1-2" data-name="Ebene 1"><polygon class="cls-1" points="500.03 286.02 500.03 409.66 847.99 348.26 847.99 224.61 500.03 286.02"/><path class="cls-2" d="M564.77,368.9A3.23,3.23,0,0,1,564,371a3.3,3.3,0,0,1-2,1.2L534.88,377a2.33,2.33,0,0,1-2.79-2.31v-65.3a3.25,3.25,0,0,1,.82-2.1,3.19,3.19,0,0,1,2-1.19l6.25-1.11a2.33,2.33,0,0,1,2.79,2.31v57.5l18-3.18a2.29,2.29,0,0,1,2,.5,2.26,2.26,0,0,1,.82,1.8Z"/><path class="cls-2" d="M611.91,345.89a23.17,23.17,0,0,1-1.56,8.63,21.64,21.64,0,0,1-4.26,6.85,24,24,0,0,1-6.35,4.87,26.28,26.28,0,0,1-7.81,2.68,22.09,22.09,0,0,1-7.81.07,15.23,15.23,0,0,1-6.35-2.63A13.24,13.24,0,0,1,573.5,361a19.35,19.35,0,0,1-1.55-8.08v-36.1a23.4,23.4,0,0,1,1.55-8.63,21.78,21.78,0,0,1,4.27-6.85,24.23,24.23,0,0,1,6.35-4.87,26.16,26.16,0,0,1,7.81-2.67,22.1,22.1,0,0,1,7.81-.08,15.37,15.37,0,0,1,6.35,2.63,13.25,13.25,0,0,1,4.26,5.35,19.11,19.11,0,0,1,1.56,8.07Zm-11.84-34a7.87,7.87,0,0,0-2.23-6,6.47,6.47,0,0,0-5.91-1.45A9.22,9.22,0,0,0,586,308a10.78,10.78,0,0,0-2.23,6.79v36.1a7.85,7.85,0,0,0,2.23,6,6.52,6.52,0,0,0,5.92,1.46,9.25,9.25,0,0,0,5.91-3.55,10.76,10.76,0,0,0,2.23-6.79Z"/><path class="cls-2" d="M620.44,353.79a17.57,17.57,0,0,1,.34-4.21,11,11,0,0,1,1.11-2.55l27.26-50-23.86,4.2a2.17,2.17,0,0,1-1.89-.51,2.39,2.39,0,0,1-.83-1.91v-5.3a3.35,3.35,0,0,1,.83-2.19,3.21,3.21,0,0,1,1.89-1.19l35.11-6.19a2.21,2.21,0,0,1,1.89.52,2.36,2.36,0,0,1,.82,1.9v5.2q0,1.41-.09,2.52a5.82,5.82,0,0,1-.68,2.22L634,348.39l26.47-4.66a2.19,2.19,0,0,1,1.9.51,2.41,2.41,0,0,1,.82,1.91v5.3a3.39,3.39,0,0,1-.82,2.19,3.18,3.18,0,0,1-1.9,1.19l-37.34,6.58a2.18,2.18,0,0,1-1.89-.52,2.36,2.36,0,0,1-.82-1.9Z"/><path class="cls-2" d="M698.22,277.27a1.81,1.81,0,0,1,2.23,1.41L715.1,341.4a4.56,4.56,0,0,1,.24,1.06c0,.32,0,.52,0,.59a2.55,2.55,0,0,1-.58,1.55,2.42,2.42,0,0,1-1.56.92l-7.17,1.27a1.49,1.49,0,0,1-1.41-.4,2.91,2.91,0,0,1-.73-1.43L701,332.88l-18.62,3.28-2.91,13.11a4.37,4.37,0,0,1-.72,1.68,2.13,2.13,0,0,1-1.41.9l-7.18,1.27a1.7,1.7,0,0,1-1.55-.38,1.76,1.76,0,0,1-.58-1.35c0-.06,0-.27.05-.61a5.55,5.55,0,0,1,.24-1.14L683,281.76a3,3,0,0,1,.78-1.44,2.65,2.65,0,0,1,1.46-.76Zm-10.28-8.08a3.29,3.29,0,0,1-.78,2.08,3,3,0,0,1-1.84,1.18l-6.79,1.19a2,2,0,0,1-1.84-.52,2.34,2.34,0,0,1-.78-1.81v-5.5a3.31,3.31,0,0,1,.78-2.09,3,3,0,0,1,1.84-1.18l6.79-1.19a2,2,0,0,1,1.84.52,2.36,2.36,0,0,1,.78,1.82Zm3.78,21.73-7.08,34.45,14.16-2.5Zm15.52-25.14a3.31,3.31,0,0,1-.78,2.09,2.92,2.92,0,0,1-1.84,1.17l-6.79,1.2a2.06,2.06,0,0,1-1.84-.52,2.36,2.36,0,0,1-.78-1.82v-5.5a3.31,3.31,0,0,1,.78-2.08,3,3,0,0,1,1.84-1.18l6.79-1.19a2,2,0,0,1,1.84.52,2.35,2.35,0,0,1,.78,1.81Z"/><path class="cls-2" d="M734.4,311.39V339a3.56,3.56,0,0,1-2.79,3.29l-6.26,1.1a2.32,2.32,0,0,1-2.79-2.31v-65.3a3.6,3.6,0,0,1,2.82-3.3L749,268.31a11.34,11.34,0,0,1,5.09.15,9.26,9.26,0,0,1,3.88,2.17,10.34,10.34,0,0,1,2.48,3.71,13,13,0,0,1,.87,4.8v10a19.64,19.64,0,0,1-1.8,8.57,9.66,9.66,0,0,1-6.54,5.1,9.16,9.16,0,0,1,4.75.71,7.6,7.6,0,0,1,3,2.63,10.48,10.48,0,0,1,1.5,4,29.16,29.16,0,0,1,.39,4.83v19a3.58,3.58,0,0,1-2.81,3.29l-6.31,1.12a2.33,2.33,0,0,1-2-.5,2.26,2.26,0,0,1-.82-1.81v-21a5.28,5.28,0,0,0-1.9-4.46,5.87,5.87,0,0,0-4.83-1Zm16-26.62a5,5,0,0,0-6.44-5.36l-9.56,1.68V301.2l9.56-1.69a7.6,7.6,0,0,0,4.68-2.63,7.72,7.72,0,0,0,1.76-5.11Z"/><path class="cls-2" d="M804.32,261.46a3.56,3.56,0,0,1,2.79-3.29l6.25-1.1a2.31,2.31,0,0,1,2.79,2.31v65.2a3.22,3.22,0,0,1-.82,2.09,3.26,3.26,0,0,1-2,1.21l-8,1.4a2,2,0,0,1-2-.49,9.31,9.31,0,0,1-1.06-1.77l-18.92-41v44.3a3.22,3.22,0,0,1-.82,2.09,3.16,3.16,0,0,1-2,1.2l-6.25,1.1a2.32,2.32,0,0,1-2.79-2.3v-65.3a3.23,3.23,0,0,1,.82-2.1,3.32,3.32,0,0,1,2-1.2l8-1.4a2,2,0,0,1,2,.49,9.24,9.24,0,0,1,1.07,1.76l18.91,41Z"/><path class="cls-3" d="M72,321.11C72,364.22,59.63,373.87,36.4,378,15.28,381.69,2,371.6,2,349.12v-3.37L23,342c-.47,8.72,2.95,17.66,13.86,15.75C51.45,355.18,50,340.83,50,329.8V309.69l-.48.08c-3,10.35-10.25,18.58-20.94,20C.72,334.65,0,293.83,0,273.24c0-19.39-.47-63.13,28.09-68.17,11.65-2,16.77,3.77,21.43,12.53L50,217V203.15l22-3.9ZM36,223.79c-15.08,2.65-13.68,35.47-13.68,44.1,0,9.1-1.4,43.09,14.39,40.31S50.15,274,50.15,264.15,50.16,221.28,36,223.79Z"/><path class="cls-3" d="M114,206.67l.31-.07c5.11-11.43,12.69-19,24.69-21.14v22.27l-3.67.41C119,211,114,221.26,114,236.58v76.14l-22,3.89V195.69l22-3.85Z"/><path class="cls-3" d="M176.65,180.83l-.08,75.65c0,10.79-1.42,26.84,13.44,24.21,14.63-2.58,13-16.89,13-27.66V176.15l21.82-3.84,0,81.65c0,24.91-7,42.45-33.72,47.16C159.24,306.73,155,289.07,155,261.55V184.67Z"/><path class="cls-3" d="M266.83,178.79l.44-.09c4.88-10.68,12.09-17.92,23.7-20,23.21-4.09,23.91,17.09,23.92,35.52l0,83.09L293,281.2V197.62c0-8.39-1.28-18.91-12.89-16.87C265.7,183.28,267,200.08,267,210.39v75.43l-22,3.84V168.74l21.82-3.85Z"/><path class="cls-3" d="M357,270l-22,3.86V75.09l22-3.84Z"/><path class="cls-3" d="M373.17,109.52A18.34,18.34,0,0,1,387.8,92.08c7.66-1.35,14.39,4.17,14.39,12.32,0,8.38-6.72,16.26-14.39,17.61C379.68,123.45,373.17,117.89,373.17,109.52ZM398,262.6l-21,3.86V145.53l21-3.85Z"/><path class="cls-3" d="M418.33,60.35,440,56.5v91.22l.62-.08c4.4-10.11,9.83-17,20.95-19,27.64-4.85,28.38,35.71,28.37,55.85,0,19.6-.43,64-27.62,68.79-12.53,2.22-17.29-3.9-21.71-13.68l-.61.08v15.57l-21.75,3.85Zm49.34,129.46c0-9.82,1.87-42.47-14.39-39.6-14.63,2.58-13.71,35-13.71,44.56s-.92,42.31,13.71,40C469.54,231.64,467.67,199.64,467.67,189.81Z"/><path class="cls-3" d="M525.7,184.13c0,10.06-.44,37.92,13.72,35.41,11.61-2,13.71-15.57,13.72-24.92l20.19-3.56c0,22.28-9.52,44.3-34.12,48.63-32.76,5.78-35.78-29.6-35.78-55.22,0-24.65,2.79-63.7,35.05-69.4,31.83-5.6,35.51,32,35.51,57v3.57Zm26-20.64c0-9.33,0-30.64-13.23-28.31-13.71,2.42-12.78,23.55-12.78,32.91Z"/><path class="cls-3" d="M612.59,118.77l.49-.07c5.11-11.43,12.91-19,24.91-21.15v22.26l-3.68.42C618.05,123.1,613,133.33,613,148.68v76.14l-22,3.88V107.78l21.7-3.85Z"/><path class="cls-3" d="M697,194.38l-.44.1c-4.4,11.31-9,19.06-21.56,21.28-27.16,4.79-27.63-39.44-27.64-59,0-20.13.71-60.94,28.34-65.82,10.23-1.81,16.92,3.48,20.86,11.64l.44-.09V89l21.85-3.84V206.11L697,209.94Zm.76-45.13c0-9.58.94-42.31-13.69-39.73-16.26,2.87-14.41,34.86-14.41,44.69,0,10-1.86,42.7,14.41,39.83C698.69,191.47,697.75,158.83,697.75,149.25Z"/><path class="cls-3" d="M760.76,198.73,739,202.58V3.85L760.8,0Z"/><path class="cls-3" d="M799.7,135.82c0,10.07-.48,37.92,13.69,35.42,11.61-2.06,13.7-15.58,13.7-24.92l20.22-3.57c0,22.28-9.52,44.31-34.13,48.64-32.75,5.78-35.77-29.62-35.77-55.23,0-24.65,2.78-63.7,35.06-69.39,31.8-5.61,35.52,32,35.52,57v3.58Zm26-20.63c0-9.35,0-30.65-13.22-28.32-13.71,2.41-12.78,23.56-12.78,32.92Z"/><path class="cls-4" d="M262.83,60.22c-6.2,1.08-9,.57-16.36,1.82-23.11,3.9-47.37,11.54-60.4,30.57-17.12,25.06-22.75,67.15-40.48,82,11.82-5.59,18.91-19.5,40.11-25.35,16-4.38,32.37-5.32,46.23-18.26C246.1,117.65,253,96.55,256.27,78.74c1.09-7.33,2.35-12.17,6.71-18.55ZM247.6,73.41c-10.24,9.74-26.87,27.38-36,36.52-18.48,18.45-55.1,55.13-55.1,55.13-.2.18-3.93,4.29-4.16,4-.4-.47,3.8-4.52,7-8.08,0,0,35.21-38.69,49.65-53.26,18-18.15,35-33.42,35-33.42C257.94,61.84,261.67,61,261.67,61S256.42,65,247.6,73.41Z"/><path class="cls-3" d="M6.2,113.57a3.7,3.7,0,0,1-4.47-3.81A5.58,5.58,0,0,1,6.2,104.5a3.64,3.64,0,0,1,4.35,3.72A5.59,5.59,0,0,1,6.2,113.57ZM9,188.5l-6,1V123.77l6-1Z"/><path class="cls-3" d="M23,120.23v30.18c0,6.53.58,12.85,6.42,11.82s6.58-7.47,6.58-14V118l6-1V152.3c0,8-4.14,14.14-12.5,15.63S17,164.73,17,156.6V121.28Z"/><path class="cls-3" d="M55.9,118.32A14.77,14.77,0,0,1,65,112.08c8.29-1.45,9,6.29,9,12.86v34.38l-6,1.05V126.63c0-5.72-.23-10-5.15-9.18-6.72,1.19-6.85,8.81-6.85,13.88v31.2l-6,1.05V115.52l5.91-1Z"/><path class="cls-3" d="M106.71,155.35c0,9-.13,17.41-11.95,19.5C86.59,176.29,83,171.9,83,163.64v-1.76l5-1v.84c0,4.5,1.49,8.32,6.58,7.42,6.65-1.17,6.42-7.08,6.42-12.23v-5.62A11.83,11.83,0,0,1,93.3,156c-11.62,2-11.89-14.5-11.89-23,0-8.07.89-23.86,11.69-25.78a7.66,7.66,0,0,1,7.63,2.7l.26,0v-3.27l5.82-1Zm-11.92-4.63c6.26-1.12,6.55-10.62,6.55-21.12,0-8.81-.55-18.84-7-17.7-4.27.76-6.88,4.22-6.91,21.84C87.42,139,87.34,152,94.79,150.72Z"/><path class="cls-3" d="M120,128.51v1.41c0,4.78.66,16.26,7.12,15.13,5.18-.92,5.85-8.57,5.84-12.39l6.05-1.08c-.08,7.33-2.84,17.55-11.49,19.07-12.26,2.17-13.88-12.53-13.9-22.17,0-8.64,1.81-25.26,13.09-27.26,10.9-1.92,12.61,12.48,12.61,20.93l.17,2.91ZM133.32,121l-.08-.83c-.18-4.55-.35-14.28-6.54-13.18-5.64,1-6.92,12.1-6.92,16.41Z"/></g></g></svg>