<svg xmlns="http://www.w3.org/2000/svg" viewBox="0 0 848.12 408.76"><defs><style>.cls-1{fill:#010909;}.cls-2{fill:#b4dc00;}.cls-3{fill:#fff;}.cls-4{fill:#079bd4;}</style></defs><title>Element 2</title><g id="Ebene_2" data-name="Ebene 2"><g id="Ebene_1-2" data-name="Ebene 1"><path class="cls-1" d="M22.38,192.38l14.55,81.71.42-.07.65-6.73,7.91-46.41,6.64-33.82L72,183.63,43.56,300.06,30.29,302.4,1,196.16Z"/><path class="cls-1" d="M99.4,238.59c0,9.27-.43,34.93,12.62,32.63,10.7-1.88,12.63-14.36,12.63-23L143.26,245c0,20.51-8.77,40.81-31.45,44.81-30.17,5.32-32.95-27.28-32.95-50.89,0-22.72,2.56-58.69,32.31-63.94,29.31-5.17,32.73,29.53,32.73,52.47v3.31Zm24-19c0-8.6,0-28.24-12.19-26.09-12.63,2.23-11.77,21.72-11.77,30.32Z"/><path class="cls-1" d="M179.42,178.37l.42-.07c4.71-10.54,11.77-17.52,22.9-19.48v20.51l-3.43.38c-15,2.65-19.68,12.08-19.68,26.2v70.16l-20.33,3.58V168.24l20.12-3.55Z"/><path class="cls-1" d="M241,122.28v31.55l10.69-1.89v16.33L241,170.15v95.09l-20.12,3.55V173.7L210,175.63V159.3l10.91-1.92V125.82Z"/><path class="cls-1" d="M271.73,81.35l18.41-3.25-2.57,38.18-13.27,2.34Z"/><path class="cls-1" d="M340.2,247.76l-20.11,3.54V68.19l20.11-3.55Z"/><path class="cls-1" d="M355.39,99.91a16.91,16.91,0,0,1,13.48-16.06,11.15,11.15,0,0,1,13.27,11.34c0,7.72-6.21,15-13.27,16.24C361.38,112.75,355.39,107.63,355.39,99.91ZM378.71,241l-20.11,3.54V133.1l20.11-3.55Z"/><path class="cls-1" d="M397.11,54.61l20.11-3.55v84.06l.43-.08c4.07-9.32,9-15.7,19.26-17.52C462.37,113,463,150.43,463,169c0,18.09-.43,59-25.46,63.4-11.56,2-15.83-3.61-19.9-12.6l-.43.07v14.34l-20.11,3.55Zm45.36,119.3c0-9,1.71-39.14-13.26-36.49-13.49,2.37-12.63,32.23-12.63,41.05s-.86,39,12.63,36.83C444.18,212.43,442.47,183,442.47,173.91Z"/><path class="cls-1" d="M496,168.67c0,9.26-.42,34.93,12.63,32.63,10.7-1.89,12.62-14.36,12.62-23l18.62-3.29c0,20.52-8.78,40.82-31.45,44.82-30.17,5.32-33-27.28-33-50.89,0-22.72,2.57-58.7,32.31-63.94,29.32-5.17,32.74,29.52,32.74,52.47v3.31Zm24-19c0-8.61,0-28.24-12.2-26.09C495.1,125.8,496,145.28,496,153.88Z"/><path class="cls-1" d="M576,108.45l.43-.08c4.71-10.53,11.77-17.52,22.89-19.48v20.52l-3.42.38c-15,2.64-19.68,12.08-19.68,26.2v70.16l-20.33,3.58V98.31L576,94.77Z"/><path class="cls-1" d="M653.85,178.11l-.42.08c-4.07,10.42-8.35,17.57-19.91,19.61-25,4.41-25.46-36.32-25.46-54.42,0-18.53.64-56.15,26.11-60.64,9.41-1.66,15.62,3.2,19.26,10.73l.42-.08V81L674,77.49V188.9l-20.12,3.55Zm.65-41.59c0-8.83.85-39-12.63-36.6-15,2.64-13.26,32.12-13.26,41.17,0,9.26-1.71,39.35,13.26,36.7C655.36,175.42,654.5,145.34,654.5,136.52Z"/><path class="cls-1" d="M712.69,70.66v69.72c0,9.93-1.29,24.71,12.41,22.3,13.48-2.38,12-15.57,12-25.5V66.36l20.11-3.55v75.24c0,22.94-6.63,39.11-31.24,43.45-29.31,5.17-33.38-11.1-33.38-36.47V74.21Z"/><path class="cls-1" d="M792.92,56.52,808.11,92l5.13-17.45L822,51.38l21-3.69-24.4,56.81,29.53,53.7-23.75,4.18-10.69-22.16c-2.79-6.35-6-12.84-7.06-19.93l-.43.07c-.65,8.72-4.07,17.27-7.28,25.77l-8.56,22.25-21,3.7,27-63.66-27-47.76Z"/><path class="cls-2" d="M565.89,0c-5.63,1-8.17.53-14.8,1.65C530.18,5.2,508.24,12.1,496.47,29.33,481,52,475.89,90.06,459.84,103.51c10.7-5.06,17.12-17.64,36.3-22.92,14.42-4,29.27-4.82,41.77-16.53C550.74,52,557,32.9,560,16.78c1-6.62,2.11-11,6.07-16.78Z"/><path class="cls-3" d="M564.85.71s-3.38.78-16.05,12.07c0,0-15.37,13.82-31.68,30.25C504.05,56.2,472.2,91.18,472.2,91.18c-2.86,3.24-6.66,6.89-6.3,7.3.21.25,3.57-3.45,3.77-3.64,0,0,33.12-33.16,49.86-49.84,8.29-8.26,23.32-24.24,32.58-33C560.09,4.37,564.85.71,564.85.71Z"/><path class="cls-1" d="M7.81,105.22a5.05,5.05,0,0,1-3.95,4.68A3.28,3.28,0,0,1,0,106.51a4.73,4.73,0,0,1,3.86-4.57A3.2,3.2,0,0,1,7.81,105.22ZM6.49,118.65v59.88l-5.26.93V119.59Z"/><path class="cls-1" d="M17.72,139.65v1.45c0,9.86,2.63,14.64,6.75,13.91,3.33-.59,5.88-4.83,6.06-11.65l5-.88c-.44,9.84-4.92,16.06-11.15,17.16-7.8,1.38-11.75-5.34-11.75-20.09s4.65-23.61,12-24.91,11.4,5.5,11.4,20.33v1.45Zm7.1-20.16c-4,.72-6.75,6.08-7.1,15.73l13.42-2.37C31.05,123.37,28.6,118.83,24.82,119.49Z"/><path class="cls-1" d="M46.05,111.68v28.4c0,7.42,1.32,10.62,5.88,9.82s5.79-4.46,5.79-11.87V109.62l5.17-.91V138c0,10-3.16,15.39-11,16.76s-11-2.84-11-12.88V112.59Z"/><path class="cls-1" d="M75.88,106.42v4A11.34,11.34,0,0,1,84,104.46c6.22-1.1,8.51,3,8.51,12.34v30l-5.18.92V116.89c0-6.24-1-8.68-5.18-8s-6.22,4.81-6.22,12v28.86l-5.18.91V107.34Z"/><path class="cls-1" d="M103.07,124.6v1.45c0,9.86,2.63,14.64,6.75,13.91,3.34-.58,5.88-4.83,6.06-11.65l5-.88c-.44,9.85-4.92,16.06-11.14,17.16C101.93,146,98,139.25,98,124.5s4.65-23.61,12-24.91,11.41,5.5,11.4,20.33c0,.45,0,1,0,1.45Zm7.1-20.15c-4,.71-6.75,6.07-7.1,15.72l13.42-2.37C116.41,108.32,114,103.78,110.17,104.45Z"/><path class="cls-1" d="M132.46,135.79a7.92,7.92,0,0,0,6.57-7.94c0-3.89-2.8-5.66-7-8.62-4.92-3.48-8.07-6-8.07-11.42a12.57,12.57,0,0,1,17.8-11.47v5.52a8.51,8.51,0,0,0-6.93-2,7.17,7.17,0,0,0-6,6.93c0,3.62,2.54,5.25,6.32,7.84,5.43,3.74,8.86,6.4,8.86,12.28A13.84,13.84,0,0,1,132.8,140.7a11,11,0,0,1-8.33-1.69v-6.33C127.1,135.29,129.82,136.25,132.46,135.79Z"/><polygon class="cls-4" points="362.79 285.12 362.79 408.76 848.12 323.12 848.12 199.47 362.79 285.12"/><path class="cls-3" d="M427.92,302.8a3.22,3.22,0,0,1,.82-2.09,3.16,3.16,0,0,1,2-1.2L437,298.4a2.33,2.33,0,0,1,2.79,2.31v65.2a3.23,3.23,0,0,1-.82,2.1,3.32,3.32,0,0,1-2,1.2l-7.95,1.4a2,2,0,0,1-2-.49,9.78,9.78,0,0,1-1.07-1.76l-18.91-41v44.3a3.23,3.23,0,0,1-.82,2.1,3.19,3.19,0,0,1-2,1.19l-6.25,1.11a2.32,2.32,0,0,1-2.79-2.31v-65.3a3.55,3.55,0,0,1,2.81-3.3l7.95-1.4a2,2,0,0,1,2,.49A10.14,10.14,0,0,1,409,306l18.91,41Z"/><path class="cls-3" d="M452.92,366.39a2.32,2.32,0,0,1-2.79-2.31v-65.3a3.56,3.56,0,0,1,2.79-3.29l29.79-5.25a2.22,2.22,0,0,1,1.9.51,2.41,2.41,0,0,1,.82,1.91v4.8a3.39,3.39,0,0,1-.82,2.19,3.15,3.15,0,0,1-1.9,1.19L462,304.5v17.6L479.81,319a2.18,2.18,0,0,1,1.89.52,2.42,2.42,0,0,1,.82,1.93v4.74a3.41,3.41,0,0,1-.82,2.22,3.16,3.16,0,0,1-1.89,1.19L462,332.7v21.5l21.24-3.75a2.21,2.21,0,0,1,1.89.52,2.36,2.36,0,0,1,.82,1.9v4.8a3.36,3.36,0,0,1-.82,2.2,3.14,3.14,0,0,1-1.89,1.18Z"/><path class="cls-3" d="M522.19,286.08A3.25,3.25,0,0,1,523,284a3.3,3.3,0,0,1,2-1.2l6.21-1.09A2.33,2.33,0,0,1,534,284v50.6a23.31,23.31,0,0,1-1.55,8.62,21.78,21.78,0,0,1-4.27,6.86,24.23,24.23,0,0,1-6.35,4.87,26.26,26.26,0,0,1-7.81,2.67,22.1,22.1,0,0,1-7.81.08,15.23,15.23,0,0,1-6.35-2.63,13.36,13.36,0,0,1-4.27-5.35,19.27,19.27,0,0,1-1.55-8.07V291a3.21,3.21,0,0,1,.83-2.1,3.27,3.27,0,0,1,2-1.2l6.21-1.09a2.29,2.29,0,0,1,2,.5,2.26,2.26,0,0,1,.82,1.8v50.6a7.91,7.91,0,0,0,2.23,6A6.49,6.49,0,0,0,514,347a9.22,9.22,0,0,0,5.92-3.54,10.84,10.84,0,0,0,2.23-6.79Z"/><path class="cls-3" d="M571.65,291.86a7.88,7.88,0,0,0-2.23-6,6.52,6.52,0,0,0-5.92-1.46,9.2,9.2,0,0,0-5.92,3.59,11,11,0,0,0-2.23,6.75v36.1a7.91,7.91,0,0,0,2.23,6,6.49,6.49,0,0,0,5.92,1.45,9.16,9.16,0,0,0,5.92-3.59,10.9,10.9,0,0,0,2.23-6.74v-1.71a3.22,3.22,0,0,1,.82-2.09,3.32,3.32,0,0,1,2-1.2l6.21-1.09a2.31,2.31,0,0,1,2.81,2.3v1.7a23.31,23.31,0,0,1-1.55,8.62,21.89,21.89,0,0,1-4.27,6.86,24,24,0,0,1-6.35,4.86,26,26,0,0,1-7.81,2.68,22.1,22.1,0,0,1-7.81.08,15.37,15.37,0,0,1-6.35-2.63,13.36,13.36,0,0,1-4.27-5.35,19.28,19.28,0,0,1-1.55-8.08v-36.1a23.35,23.35,0,0,1,1.55-8.62,21.85,21.85,0,0,1,4.27-6.85,24,24,0,0,1,6.35-4.87,26,26,0,0,1,7.81-2.68,22.34,22.34,0,0,1,7.81-.08,15.38,15.38,0,0,1,6.35,2.64,13.33,13.33,0,0,1,4.27,5.34,19.35,19.35,0,0,1,1.55,8.08v1.7a3.58,3.58,0,0,1-2.81,3.3l-6.21,1.09a2.29,2.29,0,0,1-2-.5,2.26,2.26,0,0,1-.82-1.81Z"/><path class="cls-3" d="M620.43,294.65V268.74a3.2,3.2,0,0,1,.82-2.08,3.25,3.25,0,0,1,2-1.2l6.25-1.1a2.31,2.31,0,0,1,2.79,2.31V332a3.26,3.26,0,0,1-.81,2.09,3.3,3.3,0,0,1-2,1.2l-6.25,1.1a2.32,2.32,0,0,1-2.79-2.31v-28.8L604,308.14v28.8a3.56,3.56,0,0,1-2.79,3.3l-6.25,1.1a2.32,2.32,0,0,1-2.79-2.31v-65.3a3.22,3.22,0,0,1,.82-2.09,3.16,3.16,0,0,1,2-1.2l6.25-1.11a2.31,2.31,0,0,1,2,.5,2.26,2.26,0,0,1,.82,1.8v25.91Z"/><path class="cls-3" d="M669.7,257.27a1.88,1.88,0,0,1,1.45.24,1.93,1.93,0,0,1,.78,1.16l14.65,62.72a5.88,5.88,0,0,1,.24,1.06c0,.33,0,.52,0,.59a2.51,2.51,0,0,1-.59,1.55,2.43,2.43,0,0,1-1.55.93l-7.18,1.26a1.47,1.47,0,0,1-1.4-.4,2.88,2.88,0,0,1-.73-1.42l-2.91-12.09-18.62,3.28L651,329.27a4.26,4.26,0,0,1-.73,1.67,2.09,2.09,0,0,1-1.4.9l-7.18,1.27a1.7,1.7,0,0,1-1.55-.38,1.76,1.76,0,0,1-.58-1.35c0-.06,0-.26.05-.6a5.77,5.77,0,0,1,.24-1.15l14.64-67.88a3.08,3.08,0,0,1,.78-1.44,2.58,2.58,0,0,1,1.45-.75Zm-3.78-20.34a1.84,1.84,0,0,1,1.79.39c.36.4.73.84,1.12,1.3l7.56,10.27a1.72,1.72,0,0,1,.39,1c0,.66-.52,1.09-1.55,1.27l-5.14.91A1.57,1.57,0,0,1,669,252a4.49,4.49,0,0,1-.87-.75l-4.85-5.44L658.45,253a7.77,7.77,0,0,1-.87,1.05,2,2,0,0,1-1.07.49l-5.14.91c-1,.18-1.55-.06-1.55-.73a2.52,2.52,0,0,1,.38-1.17l7.57-12.93c.39-.6.76-1.17,1.12-1.7a2.52,2.52,0,0,1,1.79-1Zm-2.72,34-7.08,34.45,14.16-2.5Z"/><path class="cls-3" d="M727.89,247a2.18,2.18,0,0,1,1.89.53,2.42,2.42,0,0,1,.83,1.93v4.74a3.38,3.38,0,0,1-.83,2.21,3.18,3.18,0,0,1-1.89,1.2l-11.06,1.94v57.51a3.26,3.26,0,0,1-.81,2.09,3.3,3.3,0,0,1-2,1.2l-6.25,1.1a2.32,2.32,0,0,1-2.79-2.3V261.64l-11,1.95a2.19,2.19,0,0,1-1.9-.52,2.42,2.42,0,0,1-.82-1.93V256.4a3.41,3.41,0,0,1,.82-2.22A3.15,3.15,0,0,1,694,253Z"/><path class="cls-3" d="M741.44,315.52a2.33,2.33,0,0,1-2.79-2.31v-65.3a3.3,3.3,0,0,1,.82-2.1,3.22,3.22,0,0,1,2-1.19l29.8-5.26a2.21,2.21,0,0,1,1.89.52,2.37,2.37,0,0,1,.83,1.9v4.8a3.37,3.37,0,0,1-.83,2.2,3.14,3.14,0,0,1-1.89,1.18l-20.75,3.66v17.6l17.84-3.15a2.18,2.18,0,0,1,1.89.53,2.4,2.4,0,0,1,.83,1.92v4.75a3.4,3.4,0,0,1-.83,2.21,3.11,3.11,0,0,1-1.89,1.19l-17.84,3.15v21.5l21.24-3.74a2.17,2.17,0,0,1,1.89.51,2.38,2.38,0,0,1,.82,1.91v4.8a3.34,3.34,0,0,1-.82,2.19,3.16,3.16,0,0,1-1.89,1.19Z"/><path class="cls-3" d="M815.37,299.68a3.55,3.55,0,0,1-2.81,3.3l-27.08,4.77a2.31,2.31,0,0,1-2.79-2.31v-65.3a3.54,3.54,0,0,1,2.79-3.29l6.25-1.1a2.25,2.25,0,0,1,2,.5,2.29,2.29,0,0,1,.82,1.81v57.5l18-3.18a2.32,2.32,0,0,1,2.81,2.3Z"/></g></g></svg>