<?xml version="1.0" encoding="UTF-8" standalone="no"?>
<!-- Generator: Adobe Illustrator 23.0.2, SVG Export Plug-In . SVG Version: 6.00 Build 0)  -->

<svg
   xmlns:dc="http://purl.org/dc/elements/1.1/"
   xmlns:cc="http://creativecommons.org/ns#"
   xmlns:rdf="http://www.w3.org/1999/02/22-rdf-syntax-ns#"
   xmlns:svg="http://www.w3.org/2000/svg"
   xmlns="http://www.w3.org/2000/svg"
   xmlns:sodipodi="http://sodipodi.sourceforge.net/DTD/sodipodi-0.dtd"
   xmlns:inkscape="http://www.inkscape.org/namespaces/inkscape"
   version="1.1"
   id="Layer_1"
   x="0px"
   y="0px"
   viewBox="0 0 1005.8543 554.63757"
   xml:space="preserve"
   sodipodi:docname="NidObWalden.svg"
   inkscape:version="0.92.2 (5c3e80d, 2017-08-06)"
   width="1005.8543"
   height="554.63757"><metadata
     id="metadata81"><rdf:RDF><cc:Work
         rdf:about=""><dc:format>image/svg+xml</dc:format><dc:type
           rdf:resource="http://purl.org/dc/dcmitype/StillImage" /><dc:title></dc:title></cc:Work></rdf:RDF></metadata><defs
     id="defs79" /><sodipodi:namedview
     pagecolor="#ffffff"
     bordercolor="#666666"
     borderopacity="1"
     objecttolerance="10"
     gridtolerance="10"
     guidetolerance="10"
     inkscape:pageopacity="0"
     inkscape:pageshadow="2"
     inkscape:window-width="2560"
     inkscape:window-height="1361"
     id="namedview77"
     showgrid="false"
     inkscape:zoom="0.46825396"
     inkscape:cx="361.30618"
     inkscape:cy="396.15088"
     inkscape:window-x="2551"
     inkscape:window-y="-9"
     inkscape:window-maximized="1"
     inkscape:current-layer="Layer_1" /><style
     type="text/css"
     id="style2">
	.st0{fill:#179CD4;}
	.st1{fill:#FFFFFF;}
	.st2{fill:#050A0A;}
	.st3{fill:#B2CC23;}
</style><g
     id="g34"
     transform="matrix(1.1861622,0,0,1.1861622,-94.904236,-362.95377)"
     style="stroke-width:0.84305507"><polygon
       class="st0"
       points="250.62,773.58 928,654.05 928,530.4 250.62,649.94 "
       id="polygon4"
       style="fill:#179cd4;stroke-width:0.7454347" /><g
       id="g32"
       style="stroke-width:0.84305507"><path
         class="st1"
         d="m 316.35,667.52 c 0,-0.73 0.27,-1.43 0.82,-2.09 0.54,-0.66 1.2,-1.06 1.97,-1.2 l 6.25,-1.1 c 0.77,-0.13 1.43,0.03 1.97,0.5 0.54,0.47 0.82,1.07 0.82,1.81 v 65.2 c 0,0.73 -0.28,1.43 -0.82,2.09 -0.55,0.66 -1.21,1.06 -1.99,1.2 l -7.95,1.4 c -0.97,0.17 -1.65,0.01 -2.04,-0.49 -0.39,-0.5 -0.74,-1.09 -1.07,-1.76 L 295.4,692.12 v 44.3 c 0,0.73 -0.27,1.43 -0.82,2.09 -0.55,0.66 -1.2,1.06 -1.97,1.2 l -6.25,1.1 c -0.77,0.13 -1.43,-0.03 -1.97,-0.5 -0.55,-0.47 -0.82,-1.07 -0.82,-1.81 v -65.3 c 0,-0.73 0.27,-1.43 0.82,-2.09 0.55,-0.66 1.21,-1.06 1.99,-1.2 l 7.95,-1.4 c 0.97,-0.17 1.65,-0.01 2.04,0.49 0.39,0.5 0.74,1.09 1.07,1.76 l 18.91,40.96 z"
         id="path6"
         inkscape:connector-curvature="0"
         style="fill:#ffffff;stroke-width:0.84305507" /><path
         class="st1"
         d="m 338.56,663.5 c 0,-0.73 0.27,-1.43 0.82,-2.09 0.55,-0.66 1.2,-1.06 1.97,-1.2 l 6.25,-1.1 c 0.77,-0.14 1.43,0.03 1.97,0.5 0.54,0.47 0.82,1.07 0.82,1.81 v 65.3 c 0,0.73 -0.27,1.43 -0.82,2.09 -0.55,0.66 -1.2,1.06 -1.97,1.2 l -6.25,1.1 c -0.77,0.14 -1.43,-0.03 -1.97,-0.5 -0.55,-0.47 -0.82,-1.07 -0.82,-1.81 z"
         id="path8"
         inkscape:connector-curvature="0"
         style="fill:#ffffff;stroke-width:0.84305507" /><path
         class="st1"
         d="m 400.53,707.67 c 0,1.73 -0.37,3.45 -1.11,5.15 -0.75,1.7 -1.75,3.26 -3.01,4.68 -1.26,1.42 -2.68,2.62 -4.27,3.6 -1.58,0.98 -3.25,1.62 -4.99,1.93 l -23.18,4.09 c -0.78,0.14 -1.44,-0.03 -1.99,-0.5 -0.55,-0.47 -0.82,-1.07 -0.82,-1.8 v -65.3 c 0,-0.73 0.27,-1.43 0.82,-2.1 0.55,-0.66 1.21,-1.06 1.99,-1.2 l 23.18,-4.09 c 1.75,-0.31 3.41,-0.25 4.99,0.17 1.58,0.42 3.01,1.12 4.27,2.1 1.26,0.98 2.26,2.19 3.01,3.62 0.74,1.44 1.11,3.02 1.11,4.75 z m -12.02,-38.48 c 0,-2.33 -0.57,-4 -1.71,-5 -1.14,-1 -2.68,-1.33 -4.64,-0.98 l -9.17,1.62 v 50.5 l 9.17,-1.62 c 1.95,-0.34 3.5,-1.2 4.64,-2.57 1.14,-1.37 1.71,-3.22 1.71,-5.55 z"
         id="path10"
         inkscape:connector-curvature="0"
         style="fill:#ffffff;stroke-width:0.84305507" /><path
         class="st1"
         d="m 438.94,676.2 c 0.71,-0.13 1.34,0.05 1.89,0.52 0.55,0.47 0.82,1.11 0.82,1.9 v 4 c 0,0.8 -0.28,1.53 -0.82,2.2 -0.55,0.66 -1.18,1.06 -1.89,1.18 l -28.22,4.98 c -0.71,0.12 -1.34,-0.05 -1.89,-0.52 -0.55,-0.47 -0.82,-1.1 -0.82,-1.9 v -4 c 0,-0.8 0.27,-1.53 0.82,-2.2 0.55,-0.66 1.18,-1.06 1.89,-1.18 z"
         id="path12"
         inkscape:connector-curvature="0"
         style="fill:#ffffff;stroke-width:0.84305507" /><path
         class="st1"
         d="m 482.1,637.09 c 0,0.2 -0.07,0.58 -0.19,1.13 l -26.87,77.14 c -0.52,1.42 -1,2.29 -1.46,2.61 -0.45,0.31 -1.03,0.53 -1.75,0.66 l -3.69,0.65 c -0.58,0.1 -1.02,0.01 -1.31,-0.27 -0.29,-0.28 -0.44,-0.69 -0.44,-1.22 0,-0.33 0.1,-0.72 0.29,-1.15 l 26.87,-77.14 c 0.45,-1.35 0.92,-2.18 1.41,-2.5 0.49,-0.32 1.08,-0.54 1.79,-0.67 l 3.69,-0.65 c 0.52,-0.09 0.92,0.01 1.21,0.29 0.3,0.28 0.45,0.65 0.45,1.12 z"
         id="path14"
         inkscape:connector-curvature="0"
         style="fill:#ffffff;stroke-width:0.84305507" /><path
         class="st1"
         d="m 528.55,680.6 c 0,3.13 -0.52,6.01 -1.55,8.62 -1.04,2.62 -2.46,4.9 -4.27,6.85 -1.81,1.95 -3.93,3.58 -6.35,4.87 -2.42,1.29 -5.03,2.19 -7.81,2.68 -2.78,0.49 -5.38,0.51 -7.81,0.08 -2.42,-0.44 -4.54,-1.32 -6.35,-2.63 -1.81,-1.31 -3.23,-3.1 -4.27,-5.35 -1.04,-2.25 -1.55,-4.94 -1.55,-8.08 v -36.1 c 0,-3.13 0.52,-6.01 1.55,-8.62 1.03,-2.61 2.46,-4.9 4.27,-6.85 1.81,-1.95 3.93,-3.58 6.35,-4.87 2.42,-1.29 5.03,-2.19 7.81,-2.68 2.78,-0.49 5.38,-0.52 7.81,-0.08 2.42,0.44 4.54,1.32 6.35,2.63 1.81,1.31 3.23,3.1 4.27,5.35 1.03,2.25 1.55,4.95 1.55,8.08 z m -11.83,-34.01 c 0,-2.6 -0.74,-4.6 -2.23,-6.01 -1.49,-1.4 -3.46,-1.89 -5.92,-1.46 -2.46,0.43 -4.43,1.61 -5.92,3.54 -1.49,1.93 -2.23,4.19 -2.23,6.79 v 36.1 c 0,2.6 0.74,4.6 2.23,6.01 1.49,1.41 3.46,1.89 5.92,1.46 2.46,-0.43 4.43,-1.61 5.92,-3.54 1.49,-1.93 2.23,-4.19 2.23,-6.79 z"
         id="path16"
         inkscape:connector-curvature="0"
         style="fill:#ffffff;stroke-width:0.84305507" /><path
         class="st1"
         d="m 541.25,695.86 c -0.78,0.14 -1.44,-0.03 -1.99,-0.5 -0.55,-0.47 -0.83,-1.07 -0.83,-1.8 v -65.3 c 0,-0.73 0.28,-1.43 0.83,-2.1 0.55,-0.66 1.21,-1.06 1.99,-1.2 l 22.79,-4.02 c 1.81,-0.32 3.47,-0.25 5,0.22 1.52,0.47 2.81,1.22 3.88,2.27 1.07,1.05 1.91,2.3 2.52,3.75 0.61,1.46 0.92,2.99 0.92,4.59 v 9.3 c 0,2.54 -0.57,4.88 -1.7,7.05 -1.13,2.17 -2.93,3.93 -5.38,5.3 1.75,0.03 3.22,0.37 4.41,1.02 1.2,0.66 2.15,1.51 2.86,2.55 0.71,1.04 1.21,2.24 1.5,3.59 0.29,1.35 0.44,2.69 0.44,4.02 v 11.6 c 0,1.6 -0.29,3.24 -0.87,4.9 -0.58,1.67 -1.42,3.22 -2.52,4.64 -1.1,1.43 -2.41,2.66 -3.93,3.69 -1.52,1.04 -3.25,1.72 -5.19,2.06 z m 24.25,-58.48 c 0,-1.93 -0.58,-3.4 -1.75,-4.39 -1.16,-0.99 -2.72,-1.32 -4.66,-0.98 l -9.02,1.59 v 19 l 9.02,-1.59 c 1.94,-0.34 3.49,-1.21 4.66,-2.62 1.16,-1.41 1.75,-3.11 1.75,-5.11 z m -15.42,46.82 9.6,-1.69 c 1.94,-0.34 3.49,-1.22 4.66,-2.62 1.16,-1.4 1.75,-3.11 1.75,-5.11 v -8.7 c 0,-2 -0.58,-3.5 -1.75,-4.49 -1.16,-1 -2.72,-1.32 -4.66,-0.98 l -9.6,1.69 z"
         id="path18"
         inkscape:connector-curvature="0"
         style="fill:#ffffff;stroke-width:0.84305507" /><path
         class="st1"
         d="m 647.26,674.37 c -0.13,0.76 -0.44,1.46 -0.92,2.11 -0.49,0.65 -1.12,1.05 -1.89,1.18 l -10.96,1.93 c -0.78,0.14 -1.41,-0.04 -1.89,-0.52 -0.49,-0.48 -0.79,-1.08 -0.92,-1.79 l -9.41,-53.54 -9.41,56.86 c -0.13,0.76 -0.44,1.46 -0.92,2.11 -0.48,0.65 -1.11,1.05 -1.89,1.18 l -10.96,1.93 c -0.78,0.14 -1.41,-0.04 -1.89,-0.52 -0.49,-0.48 -0.79,-1.08 -0.92,-1.79 l -10.67,-61.82 c -0.13,-0.51 -0.21,-0.95 -0.24,-1.31 -0.03,-0.36 -0.05,-0.61 -0.05,-0.74 0,-0.67 0.21,-1.25 0.63,-1.76 0.42,-0.51 0.95,-0.82 1.6,-0.93 l 5.72,-1.01 c 0.78,-0.14 1.47,0.03 2.08,0.48 0.61,0.46 0.98,1.08 1.12,1.85 l 8.63,51.88 8.34,-54.97 c 0.13,-0.76 0.44,-1.46 0.92,-2.11 0.49,-0.65 1.12,-1.05 1.89,-1.18 l 12.03,-2.12 c 0.78,-0.14 1.41,0.04 1.89,0.52 0.48,0.48 0.79,1.08 0.92,1.79 l 8.34,52.03 8.63,-54.92 c 0.13,-0.82 0.5,-1.57 1.12,-2.25 0.61,-0.67 1.31,-1.08 2.08,-1.22 l 5.72,-1.01 c 0.65,-0.11 1.18,0.01 1.6,0.37 0.42,0.36 0.63,0.87 0.63,1.54 0,0.13 -0.02,0.39 -0.05,0.76 -0.03,0.37 -0.11,0.84 -0.24,1.39 z"
         id="path20"
         inkscape:connector-curvature="0"
         style="fill:#ffffff;stroke-width:0.84305507" /><path
         class="st1"
         d="m 692.45,598.3 c 0.58,-0.1 1.07,-0.02 1.46,0.24 0.39,0.27 0.65,0.65 0.78,1.16 l 14.65,62.72 c 0.13,0.38 0.21,0.73 0.24,1.06 0.03,0.33 0.05,0.53 0.05,0.59 0,0.53 -0.19,1.05 -0.58,1.55 -0.39,0.5 -0.91,0.81 -1.55,0.92 l -7.18,1.27 c -0.58,0.1 -1.05,-0.03 -1.41,-0.4 -0.36,-0.37 -0.6,-0.84 -0.73,-1.42 l -2.91,-12.09 -18.62,3.28 -2.91,13.11 c -0.13,0.62 -0.37,1.18 -0.73,1.68 -0.36,0.5 -0.83,0.8 -1.41,0.9 l -7.18,1.27 c -0.65,0.11 -1.16,-0.01 -1.55,-0.38 -0.39,-0.36 -0.58,-0.81 -0.58,-1.35 0,-0.07 0.02,-0.27 0.05,-0.61 0.03,-0.34 0.11,-0.72 0.24,-1.14 l 14.64,-67.88 c 0.13,-0.56 0.39,-1.03 0.78,-1.44 0.39,-0.4 0.87,-0.65 1.46,-0.76 z m -6.5,13.64 -7.08,34.45 14.16,-2.5 z"
         id="path22"
         inkscape:connector-curvature="0"
         style="fill:#ffffff;stroke-width:0.84305507" /><path
         class="st1"
         d="m 749.09,656.41 c 0,0.73 -0.28,1.43 -0.82,2.1 -0.55,0.66 -1.21,1.06 -1.99,1.2 l -27.08,4.78 c -0.77,0.14 -1.43,-0.03 -1.97,-0.5 -0.54,-0.47 -0.82,-1.07 -0.82,-1.81 v -65.3 c 0,-0.73 0.27,-1.43 0.82,-2.09 0.55,-0.66 1.2,-1.06 1.97,-1.2 l 6.25,-1.1 c 0.77,-0.14 1.43,0.03 1.97,0.5 0.54,0.47 0.82,1.07 0.82,1.81 v 57.5 l 18.04,-3.18 c 0.78,-0.14 1.44,0.03 1.99,0.5 0.55,0.47 0.82,1.07 0.82,1.8 z"
         id="path24"
         inkscape:connector-curvature="0"
         style="fill:#ffffff;stroke-width:0.84305507" /><path
         class="st1"
         d="m 796.42,637.87 c 0,1.73 -0.37,3.45 -1.11,5.15 -0.74,1.7 -1.75,3.26 -3.01,4.68 -1.26,1.42 -2.68,2.62 -4.27,3.6 -1.59,0.98 -3.25,1.62 -4.99,1.93 l -23.18,4.09 c -0.78,0.14 -1.44,-0.03 -1.99,-0.5 -0.55,-0.47 -0.82,-1.07 -0.82,-1.8 v -65.3 c 0,-0.73 0.27,-1.43 0.82,-2.1 0.55,-0.66 1.21,-1.06 1.99,-1.2 l 23.18,-4.09 c 1.75,-0.31 3.41,-0.25 4.99,0.17 1.58,0.42 3.01,1.12 4.27,2.1 1.26,0.98 2.26,2.18 3.01,3.62 0.74,1.44 1.11,3.02 1.11,4.75 z m -12.03,-38.48 c 0,-2.33 -0.57,-4 -1.71,-5 -1.14,-1 -2.68,-1.33 -4.64,-0.98 l -9.17,1.62 v 50.5 l 9.17,-1.62 c 1.95,-0.34 3.5,-1.2 4.64,-2.57 1.14,-1.37 1.71,-3.22 1.71,-5.55 z"
         id="path26"
         inkscape:connector-curvature="0"
         style="fill:#ffffff;stroke-width:0.84305507" /><path
         class="st1"
         d="m 809.29,648.6 c -0.77,0.14 -1.43,-0.03 -1.97,-0.5 -0.55,-0.47 -0.82,-1.07 -0.82,-1.81 v -65.3 c 0,-0.73 0.27,-1.43 0.82,-2.09 0.55,-0.66 1.2,-1.06 1.97,-1.2 l 29.8,-5.25 c 0.71,-0.12 1.34,0.05 1.89,0.52 0.55,0.47 0.82,1.1 0.82,1.9 v 4.8 c 0,0.8 -0.28,1.53 -0.82,2.2 -0.55,0.66 -1.18,1.06 -1.89,1.18 l -20.75,3.66 v 17.6 l 17.85,-3.15 c 0.71,-0.12 1.34,0.05 1.89,0.53 0.55,0.48 0.83,1.12 0.83,1.92 v 4.74 c 0,0.81 -0.28,1.55 -0.83,2.22 -0.55,0.67 -1.18,1.07 -1.89,1.19 l -17.85,3.15 v 21.5 l 21.24,-3.75 c 0.71,-0.13 1.34,0.05 1.89,0.52 0.55,0.47 0.82,1.1 0.82,1.91 v 4.8 c 0,0.8 -0.28,1.53 -0.82,2.2 -0.55,0.66 -1.18,1.06 -1.89,1.18 z"
         id="path28"
         inkscape:connector-curvature="0"
         style="fill:#ffffff;stroke-width:0.84305507" /><path
         class="st1"
         d="m 883.22,567.56 c 0,-0.73 0.27,-1.43 0.82,-2.09 0.55,-0.66 1.2,-1.06 1.97,-1.2 l 6.25,-1.1 c 0.77,-0.14 1.43,0.03 1.97,0.5 0.55,0.47 0.82,1.07 0.82,1.81 v 65.2 c 0,0.73 -0.28,1.43 -0.82,2.1 -0.55,0.66 -1.21,1.06 -1.99,1.2 l -7.95,1.4 c -0.97,0.17 -1.65,0.01 -2.04,-0.49 -0.39,-0.5 -0.74,-1.08 -1.07,-1.76 l -18.91,-40.96 v 44.3 c 0,0.73 -0.27,1.43 -0.82,2.09 -0.54,0.66 -1.2,1.06 -1.97,1.2 l -6.25,1.1 c -0.77,0.14 -1.43,-0.03 -1.97,-0.5 -0.55,-0.47 -0.82,-1.07 -0.82,-1.81 v -65.3 c 0,-0.73 0.27,-1.43 0.82,-2.1 0.55,-0.66 1.21,-1.06 1.99,-1.2 l 7.95,-1.4 c 0.97,-0.17 1.65,-0.01 2.04,0.49 0.39,0.5 0.74,1.09 1.07,1.76 l 18.91,40.96 z"
         id="path30"
         inkscape:connector-curvature="0"
         style="fill:#ffffff;stroke-width:0.84305507" /></g></g><g
     id="g60"
     transform="matrix(1.1861622,0,0,1.1861622,-94.904236,-362.95377)"
     style="stroke-width:0.84305507"><path
       class="st2"
       d="m 152,627.1 c -0.02,43.1 -12.35,52.75 -35.59,56.84 C 95.29,687.68 82,677.59 82,655.11 v -3.37 l 20.96,-3.72 c -0.47,8.72 2.95,17.66 13.86,15.75 C 131.46,661.18 130,646.83 130,635.8 v -20.11 l -0.48,0.09 c -3.03,10.35 -10.25,18.58 -20.94,19.97 -27.86,4.9 -28.56,-35.91 -28.57,-56.51 0,-19.39 -0.48,-63.13 28.09,-68.17 11.64,-2.05 16.77,3.77 21.43,12.53 l 0.47,-0.58 v -13.88 l 22.02,-3.9 z m -36.02,-97.32 c -15.08,2.65 -13.68,35.47 -13.68,44.1 0,9.1 -1.39,43.09 14.39,40.31 15.8,-2.78 13.48,-34.24 13.48,-44.05 -0.01,-9.8 0,-42.87 -14.19,-40.36 z"
       id="path36"
       inkscape:connector-curvature="0"
       style="fill:#050a0a;stroke-width:0.7454347" /><path
       class="st2"
       d="m 194,512.66 0.31,-0.08 C 199.42,501.16 207,493.57 219,491.44 v 22.27 l -3.67,0.4 C 199.06,516.98 194,527.23 194,542.55 v 76.14 l -22,3.89 v -120.9 l 22,-3.85 z"
       id="path38"
       inkscape:connector-curvature="0"
       style="fill:#050a0a;stroke-width:0.7454347" /><path
       class="st2"
       d="m 256.66,486.82 -0.08,75.66 c 0,10.78 -1.42,26.83 13.44,24.21 14.62,-2.58 12.98,-16.9 12.98,-27.66 v -76.88 l 21.82,-3.84 -0.02,81.65 c 0.01,24.91 -7.02,42.46 -33.73,47.17 -31.82,5.61 -36.08,-12.05 -36.08,-39.58 v -76.88 z"
       id="path40"
       inkscape:connector-curvature="0"
       style="fill:#050a0a;stroke-width:0.7454347" /><path
       class="st2"
       d="m 346.84,484.77 0.44,-0.09 c 4.88,-10.67 12.09,-17.92 23.7,-19.97 23.21,-4.09 23.91,17.1 23.92,35.52 l -0.04,83.09 -21.86,3.87 v -83.58 c 0,-8.39 -1.28,-18.91 -12.89,-16.87 -14.4,2.53 -13.11,19.33 -13.11,29.63 v 75.43 l -22,3.84 V 474.73 l 21.82,-3.86 z"
       id="path42"
       inkscape:connector-curvature="0"
       style="fill:#050a0a;stroke-width:0.7454347" /><path
       class="st2"
       d="m 437,575.96 -22,3.86 V 381.08 l 22,-3.85 z"
       id="path44"
       inkscape:connector-curvature="0"
       style="fill:#050a0a;stroke-width:0.7454347" /><path
       class="st2"
       d="m 453.18,415.51 c 0,-8.15 6.5,-16.01 14.63,-17.44 7.66,-1.35 14.39,4.17 14.39,12.32 0,8.38 -6.72,16.26 -14.39,17.61 -8.12,1.44 -14.63,-4.12 -14.63,-12.49 z M 478,568.59 457,572.45 V 451.52 l 21,-3.85 z"
       id="path46"
       inkscape:connector-curvature="0"
       style="fill:#050a0a;stroke-width:0.7454347" /><path
       class="st2"
       d="M 498.34,366.34 520,362.49 v 91.22 l 0.62,-0.08 c 4.4,-10.12 9.83,-17.05 20.96,-19.02 27.64,-4.85 28.38,35.71 28.36,55.85 0.02,19.59 -0.43,64 -27.62,68.79 -12.53,2.22 -17.3,-3.91 -21.71,-13.68 l -0.61,0.08 v 15.57 l -21.75,3.86 z m 49.34,129.46 c 0,-9.82 1.87,-42.47 -14.39,-39.6 -14.63,2.58 -13.71,34.97 -13.71,44.56 0,9.59 -0.92,42.31 13.71,39.96 16.26,-3.1 14.39,-35.09 14.39,-44.92 z"
       id="path48"
       inkscape:connector-curvature="0"
       style="fill:#050a0a;stroke-width:0.7454347" /><path
       class="st2"
       d="m 605.72,490.11 c 0.02,10.07 -0.45,37.93 13.71,35.42 11.61,-2.05 13.71,-15.57 13.72,-24.92 l 20.19,-3.56 c 0,22.27 -9.52,44.3 -34.13,48.63 -32.75,5.78 -35.77,-29.6 -35.77,-55.22 0,-24.66 2.79,-63.7 35.05,-69.4 31.82,-5.6 35.51,32.03 35.51,56.97 v 3.57 z m 26.02,-20.63 c 0,-9.33 0.03,-30.64 -13.23,-28.31 -13.71,2.43 -12.78,23.56 -12.78,32.91 z"
       id="path50"
       inkscape:connector-curvature="0"
       style="fill:#050a0a;stroke-width:0.7454347" /><path
       class="st2"
       d="m 692.6,424.76 0.5,-0.07 c 5.11,-11.43 12.91,-19.01 24.91,-21.14 v 22.26 l -3.68,0.42 c -16.26,2.87 -21.32,13.1 -21.32,28.45 v 76.14 l -22,3.88 V 413.76 l 21.7,-3.84 z"
       id="path52"
       inkscape:connector-curvature="0"
       style="fill:#050a0a;stroke-width:0.7454347" /><path
       class="st2"
       d="m 777,500.36 -0.44,0.1 c -4.4,11.31 -9.01,19.07 -21.56,21.29 -27.17,4.78 -27.63,-39.44 -27.65,-59.06 0,-20.13 0.71,-60.94 28.34,-65.82 10.23,-1.81 16.92,3.49 20.86,11.64 l 0.44,-0.08 v -13.41 l 21.85,-3.85 -0.01,120.92 -21.83,3.84 z m 0.76,-45.12 c 0,-9.58 0.94,-42.31 -13.69,-39.73 -16.26,2.87 -14.4,34.86 -14.4,44.69 0,10.05 -1.86,42.7 14.4,39.84 14.63,-2.58 13.69,-35.22 13.69,-44.8 z"
       id="path54"
       inkscape:connector-curvature="0"
       style="fill:#050a0a;stroke-width:0.7454347" /><path
       class="st2"
       d="M 840.77,504.72 819,508.57 V 309.84 l 21.81,-3.85 z"
       id="path56"
       inkscape:connector-curvature="0"
       style="fill:#050a0a;stroke-width:0.7454347" /><path
       class="st2"
       d="m 879.71,441.81 c 0.01,10.07 -0.47,37.91 13.7,35.41 11.61,-2.06 13.69,-15.58 13.69,-24.92 l 20.22,-3.57 c 0,22.28 -9.53,44.31 -34.13,48.64 -32.75,5.78 -35.77,-29.62 -35.77,-55.23 0,-24.65 2.78,-63.7 35.06,-69.39 31.8,-5.62 35.52,32.03 35.52,56.95 v 3.58 z m 26.01,-20.64 c 0,-9.34 0.01,-30.64 -13.23,-28.31 -13.71,2.41 -12.78,23.56 -12.78,32.91 z"
       id="path58"
       inkscape:connector-curvature="0"
       style="fill:#050a0a;stroke-width:0.7454347" /></g><path
     class="st3"
     d="m 311.75959,71.43066 c -7.34234,1.28106 -10.71104,0.68798 -19.40561,2.15882 -27.41221,4.62603 -56.17664,13.68831 -71.63233,36.26097 -20.31896,29.72522 -26.98519,79.65079 -48.0277,97.28902 14.02043,-6.63065 22.43032,-23.13016 47.57695,-30.0692 18.93116,-5.1954 38.39607,-6.32225 54.83629,-21.65933 16.81977,-15.85899 24.99242,-40.887 28.87118,-62.01255 1.30478,-8.69457 2.78748,-14.4356 7.971,-22.00332 z m -18.06525,15.64548 c -12.14629,11.553218 -31.86031,32.47712 -42.74928,43.31864 -21.92028,21.88469 -65.35753,65.39312 -65.35753,65.39312 -0.23723,0.22537 -4.66163,5.1005 -4.93444,4.78023 -0.47446,-0.55749 4.49555,-5.36145 8.26755,-9.58419 0,0 41.76477,-45.89261 58.89295,-63.16313 21.39837,-21.5407 41.55126,-39.6534 41.55126,-39.6534 16.60627,-14.81517 21.03066,-15.83527 21.03066,-15.83527 0,0 -6.23922,4.78024 -16.70117,14.744 z"
     id="path62"
     inkscape:connector-curvature="0"
     style="fill:#b2cc23;stroke-width:1" /><g
     id="g74"
     transform="matrix(1.1861622,0,0,1.1861622,-94.904236,-362.95377)"
     style="stroke-width:0.84305507"><path
       class="st2"
       d="m 86.21,419.56 c -2.45,0.44 -4.45,-1.28 -4.47,-3.81 0,-2.45 2.01,-4.85 4.47,-5.27 2.36,-0.42 4.36,1.28 4.36,3.73 0,2.53 -2.01,4.94 -4.36,5.35 z m 2.78,74.93 -5.99,1.04 v -65.77 l 5.96,-1.04 z"
       id="path64"
       inkscape:connector-curvature="0"
       style="fill:#050a0a;stroke-width:0.7454347" /><path
       class="st2"
       d="m 103,426.22 v 30.18 c 0,6.54 0.58,12.85 6.42,11.83 5.98,-1.07 6.58,-7.47 6.58,-14.04 V 424 l 6,-1.05 v 35.33 c 0,8.06 -4.14,14.15 -12.5,15.63 -8.28,1.46 -12.5,-3.2 -12.5,-11.33 v -35.32 z"
       id="path66"
       inkscape:connector-curvature="0"
       style="fill:#050a0a;stroke-width:0.7454347" /><path
       class="st2"
       d="m 135.91,424.31 c 2.37,-3.25 5.5,-5.59 9.13,-6.24 8.28,-1.45 8.97,6.29 8.97,12.86 v 34.38 l -6,1.05 v -33.73 c 0,-5.73 -0.23,-10.05 -5.15,-9.18 -6.72,1.18 -6.85,8.81 -6.85,13.88 v 31.19 l -6,1.05 v -48.06 l 5.91,-1.04 z"
       id="path68"
       inkscape:connector-curvature="0"
       style="fill:#050a0a;stroke-width:0.7454347" /><path
       class="st2"
       d="m 186.72,461.34 c 0.01,8.98 -0.13,17.41 -11.94,19.5 -8.18,1.44 -11.77,-2.95 -11.77,-11.2 v -1.76 l 5,-1.03 v 0.84 c 0,4.5 1.49,8.33 6.58,7.42 6.65,-1.17 6.42,-7.07 6.42,-12.23 v -5.62 c -2,2.69 -4.61,4.15 -7.69,4.71 -11.63,2.05 -11.9,-14.5 -11.9,-23.04 0.02,-8.06 0.89,-23.86 11.7,-25.77 3.18,-0.56 5.9,0.51 7.63,2.69 l 0.26,-0.02 v -3.27 l 5.82,-1.04 z M 174.8,456.7 c 6.26,-1.11 6.55,-10.62 6.55,-21.12 0,-8.81 -0.55,-18.84 -7.02,-17.7 -4.27,0.76 -6.88,4.22 -6.9,21.84 0,5.25 -0.08,18.3 7.37,16.98 z"
       id="path70"
       inkscape:connector-curvature="0"
       style="fill:#050a0a;stroke-width:0.7454347" /><path
       class="st2"
       d="m 200,434.5 v 1.41 c 0,4.78 0.66,16.27 7.12,15.13 5.18,-0.92 5.85,-8.57 5.84,-12.39 l 6.05,-1.08 c -0.09,7.33 -2.84,17.54 -11.49,19.07 -12.26,2.17 -13.88,-12.54 -13.9,-22.17 0,-8.64 1.81,-25.26 13.09,-27.25 10.9,-1.92 12.61,12.48 12.61,20.92 l 0.16,2.91 z m 13.34,-7.56 -0.09,-0.83 c -0.18,-4.56 -0.35,-14.28 -6.54,-13.18 -5.64,0.98 -6.92,12.1 -6.92,16.41 z"
       id="path72"
       inkscape:connector-curvature="0"
       style="fill:#050a0a;stroke-width:0.7454347" /></g></svg>