<svg xmlns="http://www.w3.org/2000/svg" viewBox="0 0 847.99 460.19"><defs><style>.cls-1{fill:#5799d0;}.cls-2{fill:#fff;}.cls-3{fill:#081111;}.cls-4{fill:#b1c633;}</style></defs><title>Element 1</title><g id="Ebene_2" data-name="Ebene 2"><g id="Ebene_1-2" data-name="Ebene 1"><polygon class="cls-1" points="212.57 336.55 212.57 460.19 847.99 348.06 847.99 224.42 212.57 336.55"/><path class="cls-2" d="M256.17,373.43a5.19,5.19,0,0,0,1.65,4.31,31.25,31.25,0,0,0,5.24,3.07L275.67,387a18.66,18.66,0,0,1,4.46,2.76,11.44,11.44,0,0,1,2.62,3.39,13.49,13.49,0,0,1,1.26,4.43,53.82,53.82,0,0,1,.29,6,24.44,24.44,0,0,1-1.46,8.6,20.69,20.69,0,0,1-4.12,6.83,23,23,0,0,1-6.4,4.88,28,28,0,0,1-8.19,2.74,23.56,23.56,0,0,1-8,.16,14.32,14.32,0,0,1-6.35-2.58,13.13,13.13,0,0,1-4.17-5.37,20.09,20.09,0,0,1-1.5-8.18v-4.1a3.25,3.25,0,0,1,.82-2.1,3.3,3.3,0,0,1,2-1.2l6.21-1.09a2.33,2.33,0,0,1,2.81,2.3v4.1a7.9,7.9,0,0,0,2.23,6,6.41,6.41,0,0,0,5.91,1.5,9.25,9.25,0,0,0,6.11-3.42,11.18,11.18,0,0,0,2-6.91v-1.5c0-2.07-.5-3.51-1.5-4.34a22.19,22.19,0,0,0-4-2.49l-15.32-7.6a11,11,0,0,1-5.87-6.26,25.25,25.25,0,0,1-1.41-8.35q0-9.51,5.48-15.77a24.44,24.44,0,0,1,14.7-7.89,23.57,23.57,0,0,1,8-.16,14.33,14.33,0,0,1,6.3,2.59,13.1,13.1,0,0,1,4.17,5.36,20.16,20.16,0,0,1,1.51,8.19v2.2a3.58,3.58,0,0,1-2.82,3.29l-6.2,1.1a2.32,2.32,0,0,1-2-.5,2.26,2.26,0,0,1-.82-1.81v-2.2a8.45,8.45,0,0,0-2-6q-2-2.19-6.11-1.47a9.28,9.28,0,0,0-6.11,3.43,11.14,11.14,0,0,0-2,6.91Z"/><path class="cls-2" d="M320.57,361.07a7.87,7.87,0,0,0-2.23-6,6.48,6.48,0,0,0-5.91-1.45,9.16,9.16,0,0,0-5.92,3.59,10.84,10.84,0,0,0-2.23,6.74V400a7.85,7.85,0,0,0,2.23,6,6.5,6.5,0,0,0,5.92,1.46,9.18,9.18,0,0,0,5.91-3.6,10.82,10.82,0,0,0,2.23-6.74v-1.7a3.61,3.61,0,0,1,2.81-3.3l6.21-1.09a2.29,2.29,0,0,1,2,.5,2.26,2.26,0,0,1,.82,1.8v1.7a23.37,23.37,0,0,1-1.55,8.63,21.67,21.67,0,0,1-4.27,6.85,24,24,0,0,1-6.35,4.87,26.18,26.18,0,0,1-7.81,2.68,22.09,22.09,0,0,1-7.81.07,15.11,15.11,0,0,1-6.35-2.63,13.33,13.33,0,0,1-4.27-5.34,19.28,19.28,0,0,1-1.55-8.08V366a23.31,23.31,0,0,1,1.55-8.62,21.89,21.89,0,0,1,4.27-6.86,24.23,24.23,0,0,1,6.35-4.87,26.26,26.26,0,0,1,7.81-2.67,22.1,22.1,0,0,1,7.81-.08,15.37,15.37,0,0,1,6.35,2.63,13.36,13.36,0,0,1,4.27,5.35A19.27,19.27,0,0,1,332.4,359v1.7a3.23,3.23,0,0,1-.82,2.1,3.3,3.3,0,0,1-2,1.2l-6.21,1.09a2.33,2.33,0,0,1-2.81-2.3Z"/><path class="cls-2" d="M369.35,363.87V338a3.27,3.27,0,0,1,.82-2.09,3.22,3.22,0,0,1,2-1.19l6.26-1.11a2.33,2.33,0,0,1,2.79,2.31v65.3a3.56,3.56,0,0,1-2.79,3.3l-6.26,1.1a2.32,2.32,0,0,1-2.79-2.31v-28.8L353,377.36v28.8a3.31,3.31,0,0,1-.81,2.1,3.24,3.24,0,0,1-2,1.19l-6.25,1.1a2.32,2.32,0,0,1-2.79-2.3V343a3.56,3.56,0,0,1,2.79-3.3l6.25-1.1a2.31,2.31,0,0,1,2.79,2.3v25.91Z"/><path class="cls-2" d="M418.62,326.48a1.91,1.91,0,0,1,1.46.25,1.89,1.89,0,0,1,.77,1.16l14.65,62.72a4.48,4.48,0,0,1,.24,1.05c0,.33.05.53.05.6a2.49,2.49,0,0,1-.58,1.55,2.43,2.43,0,0,1-1.55.92L426.48,396a1.49,1.49,0,0,1-1.41-.4,3,3,0,0,1-.73-1.43l-2.91-12.08-18.62,3.28-2.91,13.11a4.37,4.37,0,0,1-.72,1.68,2.13,2.13,0,0,1-1.41.9l-7.18,1.27A1.74,1.74,0,0,1,389,402a1.77,1.77,0,0,1-.58-1.35c0-.06,0-.27.05-.61a5.55,5.55,0,0,1,.24-1.14L403.4,331a2.89,2.89,0,0,1,.77-1.44,2.65,2.65,0,0,1,1.46-.76Zm-6.5,13.65-7.07,34.45,14.15-2.5Z"/><path class="cls-2" d="M454.8,388.1a3.41,3.41,0,0,1-.82,2.2,3.17,3.17,0,0,1-1.88,1.18l-6.35,1.12a2.28,2.28,0,0,1-2-.5,2.31,2.31,0,0,1-.82-1.81V325a3.32,3.32,0,0,1,.82-2.1,3.22,3.22,0,0,1,2-1.19l29.8-5.26a2.21,2.21,0,0,1,1.89.52,2.37,2.37,0,0,1,.83,1.9v4.8a3.37,3.37,0,0,1-.83,2.2,3.14,3.14,0,0,1-1.89,1.18L454.8,330.7v17.6l17.84-3.14a2.18,2.18,0,0,1,1.89.52,2.43,2.43,0,0,1,.83,1.93v4.74a3.42,3.42,0,0,1-.83,2.22,3.21,3.21,0,0,1-1.89,1.19L454.8,358.9Z"/><path class="cls-2" d="M497.86,380.51a3.43,3.43,0,0,1-.82,2.2,3.17,3.17,0,0,1-1.88,1.18L488.81,385a2.25,2.25,0,0,1-2-.5,2.29,2.29,0,0,1-.82-1.8V317.4a3.56,3.56,0,0,1,2.79-3.3l29.8-5.25a2.18,2.18,0,0,1,1.89.52,2.37,2.37,0,0,1,.83,1.9v4.8a3.39,3.39,0,0,1-.83,2.2,3.14,3.14,0,0,1-1.89,1.18l-20.75,3.66v17.6l17.84-3.15a2.18,2.18,0,0,1,1.89.53,2.4,2.4,0,0,1,.83,1.92v4.75a3.4,3.4,0,0,1-.83,2.21,3.11,3.11,0,0,1-1.89,1.19l-17.84,3.15Z"/><path class="cls-2" d="M557.31,330.73V304.82a3.51,3.51,0,0,1,2.79-3.28l6.25-1.11a2.33,2.33,0,0,1,2.79,2.31V368a3.25,3.25,0,0,1-.82,2.1,3.19,3.19,0,0,1-2,1.19l-6.25,1.11a2.32,2.32,0,0,1-2.79-2.31v-28.8l-16.39,2.89V373a3.27,3.27,0,0,1-.82,2.09,3.19,3.19,0,0,1-2,1.2l-6.26,1.1a2.32,2.32,0,0,1-2.79-2.31V309.81a3.23,3.23,0,0,1,.82-2.1,3.28,3.28,0,0,1,2-1.2l6.26-1.1a2.25,2.25,0,0,1,2,.5,2.29,2.29,0,0,1,.82,1.8v25.91Z"/><path class="cls-2" d="M606.58,293.34a1.93,1.93,0,0,1,1.45.24,2,2,0,0,1,.78,1.17l14.64,62.72a4.37,4.37,0,0,1,.24,1c0,.33,0,.53,0,.59a2.5,2.5,0,0,1-.58,1.56,2.43,2.43,0,0,1-1.55.92l-7.18,1.27a1.47,1.47,0,0,1-1.41-.41,3,3,0,0,1-.72-1.42L609.39,349l-18.62,3.28-2.91,13.11a4.39,4.39,0,0,1-.73,1.68,2.13,2.13,0,0,1-1.41.9l-7.17,1.26a1.72,1.72,0,0,1-1.56-.37,1.82,1.82,0,0,1-.58-1.35c0-.07,0-.27.05-.61a5.55,5.55,0,0,1,.24-1.14l14.65-67.88a3.06,3.06,0,0,1,.77-1.44,2.62,2.62,0,0,1,1.46-.76ZM600.08,307,593,341.43l14.16-2.49Z"/><path class="cls-2" d="M658.56,287a3.22,3.22,0,0,1,.82-2.09,3.28,3.28,0,0,1,2-1.2l6.21-1.1a2.33,2.33,0,0,1,2,.5,2.29,2.29,0,0,1,.82,1.81v50.6a23.31,23.31,0,0,1-1.55,8.62,21.73,21.73,0,0,1-4.27,6.85,23.81,23.81,0,0,1-6.35,4.87,26,26,0,0,1-7.81,2.68,22.1,22.1,0,0,1-7.81.08,15.37,15.37,0,0,1-6.35-2.63,13.27,13.27,0,0,1-4.27-5.35,19.28,19.28,0,0,1-1.55-8.08v-50.6a3.22,3.22,0,0,1,.82-2.09,3.28,3.28,0,0,1,2-1.2l6.21-1.1a2.33,2.33,0,0,1,2,.5,2.29,2.29,0,0,1,.82,1.81v50.6a7.83,7.83,0,0,0,2.23,6,6.5,6.5,0,0,0,5.92,1.46,9.22,9.22,0,0,0,5.91-3.54,10.81,10.81,0,0,0,2.23-6.8V287Z"/><path class="cls-2" d="M691.05,296.74c0,2,.55,3.44,1.65,4.31a29.93,29.93,0,0,0,5.23,3.08l12.61,6.18a18.66,18.66,0,0,1,4.46,2.76,11.32,11.32,0,0,1,2.62,3.39,13,13,0,0,1,1.26,4.43,53.7,53.7,0,0,1,.29,6,24.44,24.44,0,0,1-1.45,8.6,20.86,20.86,0,0,1-4.12,6.83,23.3,23.3,0,0,1-6.4,4.88,28.09,28.09,0,0,1-8.2,2.74,23.49,23.49,0,0,1-8,.15,14.14,14.14,0,0,1-6.36-2.58,13.2,13.2,0,0,1-4.17-5.36A20.12,20.12,0,0,1,679,334v-4.1a3.23,3.23,0,0,1,.82-2.1,3.32,3.32,0,0,1,2-1.2l6.21-1.1a2.35,2.35,0,0,1,2,.5,2.29,2.29,0,0,1,.82,1.81v4.1a7.9,7.9,0,0,0,2.23,6,6.43,6.43,0,0,0,5.92,1.5,9.3,9.3,0,0,0,6.11-3.43,11.19,11.19,0,0,0,2-6.9v-1.5c0-2.07-.5-3.52-1.5-4.34a21.73,21.73,0,0,0-4-2.49l-15.33-7.6a11,11,0,0,1-5.87-6.26,25.51,25.51,0,0,1-1.4-8.36q0-9.49,5.48-15.76a24.42,24.42,0,0,1,14.69-7.89,23.32,23.32,0,0,1,8-.16,14.31,14.31,0,0,1,6.31,2.58,13.22,13.22,0,0,1,4.17,5.37,20.12,20.12,0,0,1,1.5,8.18V293a3.23,3.23,0,0,1-.82,2.1,3.32,3.32,0,0,1-2,1.2l-6.21,1.1a2.33,2.33,0,0,1-2-.5,2.26,2.26,0,0,1-.82-1.81v-2.2a8.45,8.45,0,0,0-2-6q-2-2.19-6.11-1.47a9.34,9.34,0,0,0-6.11,3.42,11.24,11.24,0,0,0-2,6.91v1Z"/><path class="cls-2" d="M731,342.3a2.32,2.32,0,0,1-2.79-2.3V274.69A3.56,3.56,0,0,1,731,271.4l29.8-5.25a2.18,2.18,0,0,1,1.89.52,2.37,2.37,0,0,1,.83,1.9v4.8a3.35,3.35,0,0,1-.83,2.19,3.16,3.16,0,0,1-1.89,1.19L740,280.41V298l17.85-3.15a2.18,2.18,0,0,1,1.89.53,2.4,2.4,0,0,1,.83,1.92v4.74a3.4,3.4,0,0,1-.83,2.22,3.11,3.11,0,0,1-1.89,1.19L740,308.61v21.5l21.24-3.75a2.23,2.23,0,0,1,1.9.52,2.39,2.39,0,0,1,.82,1.9v4.8a3.41,3.41,0,0,1-.82,2.2,3.16,3.16,0,0,1-1.9,1.18Z"/><path class="cls-2" d="M804.91,261.27a3.31,3.31,0,0,1,.81-2.1,3.24,3.24,0,0,1,2-1.19l6.25-1.11a2.33,2.33,0,0,1,2.79,2.31v65.2a3.28,3.28,0,0,1-.82,2.1,3.32,3.32,0,0,1-2,1.2l-8,1.4a2,2,0,0,1-2-.49,9.24,9.24,0,0,1-1.07-1.76l-18.91-41v44.3a3.25,3.25,0,0,1-.82,2.1,3.19,3.19,0,0,1-2,1.19l-6.25,1.11a2.32,2.32,0,0,1-2.79-2.31V267a3.55,3.55,0,0,1,2.81-3.3l7.95-1.4a2,2,0,0,1,2,.49A10.14,10.14,0,0,1,786,264.5l18.91,41v-44.2Z"/><path class="cls-3" d="M72,321.11C72,364.22,59.63,373.87,36.4,378,15.29,381.69,2,371.6,2,349.12v-3.37L23,342c-.47,8.72,2.95,17.66,13.86,15.75C51.45,355.18,50,340.83,50,329.8V309.69l-.48.08c-3,10.35-10.25,18.58-20.94,20C.72,334.65,0,293.83,0,273.24c0-19.39-.47-63.13,28.09-68.17,11.65-2,16.77,3.77,21.43,12.53L50,217V203.15l22-3.9ZM36,223.79c-15.08,2.65-13.68,35.47-13.68,44.1,0,9.1-1.4,43.09,14.39,40.31S50.15,274,50.15,264.15,50.16,221.28,36,223.79Z"/><path class="cls-3" d="M114,206.68l.31-.08c5.11-11.42,12.69-19,24.69-21.14v22.28l-3.67.4C119,211,114,221.26,114,236.58v76.14l-22,3.89V195.69l22-3.85Z"/><path class="cls-3" d="M176.65,180.83l-.08,75.65c0,10.79-1.42,26.84,13.44,24.21,14.63-2.58,13-16.89,13-27.66V176.15l21.82-3.84,0,81.65c0,24.91-7,42.46-33.73,47.17-31.82,5.6-36.07-12.06-36.07-39.58V184.67Z"/><path class="cls-3" d="M266.83,178.79l.44-.09c4.88-10.68,12.09-17.92,23.7-20,23.21-4.09,23.91,17.09,23.92,35.52l0,83.09L293,281.2V197.62c0-8.39-1.28-18.9-12.89-16.86C265.7,183.28,267,200.08,267,210.39v75.42l-22,3.85V168.74l21.82-3.85Z"/><path class="cls-3" d="M357,270l-22,3.86V75.09l22-3.85Z"/><path class="cls-3" d="M373.17,109.52A18.34,18.34,0,0,1,387.8,92.08c7.66-1.35,14.39,4.17,14.39,12.32,0,8.38-6.72,16.26-14.39,17.61C379.68,123.45,373.17,117.89,373.17,109.52ZM398,262.6l-21,3.86V145.54l21-3.86Z"/><path class="cls-3" d="M418.33,60.35,440,56.5v91.22l.62-.08c4.4-10.11,9.83-17,20.95-19,27.64-4.85,28.38,35.71,28.37,55.85,0,19.6-.43,64-27.62,68.79-12.53,2.22-17.29-3.9-21.71-13.68l-.61.08v15.57l-21.75,3.85Zm49.34,129.46c0-9.82,1.87-42.47-14.39-39.6-14.63,2.58-13.71,35-13.71,44.56s-.92,42.31,13.71,40C469.54,231.64,467.67,199.64,467.67,189.81Z"/><path class="cls-3" d="M525.71,184.13c0,10.06-.45,37.92,13.71,35.42,11.61-2.06,13.71-15.57,13.72-24.93l20.19-3.56c0,22.28-9.52,44.3-34.12,48.63-32.75,5.78-35.78-29.6-35.78-55.22,0-24.65,2.79-63.7,35.05-69.4,31.83-5.6,35.51,32,35.51,57v3.57Zm26-20.64c0-9.33,0-30.64-13.23-28.31-13.71,2.42-12.78,23.56-12.78,32.91Z"/><path class="cls-3" d="M612.59,118.77l.49-.07c5.11-11.43,12.91-19,24.91-21.15v22.26l-3.68.42C618.05,123.1,613,133.33,613,148.68v76.14l-22,3.88V107.77l21.7-3.84Z"/><path class="cls-3" d="M697,194.38l-.44.1c-4.4,11.31-9,19.06-21.56,21.29-27.16,4.78-27.63-39.45-27.64-59.06,0-20.13.71-60.94,28.34-65.82,10.23-1.81,16.92,3.48,20.86,11.64l.44-.08V89l21.85-3.85V206.11L697,209.94V194.38Zm.76-45.13c0-9.58.94-42.31-13.69-39.73-16.26,2.87-14.41,34.86-14.41,44.69,0,10-1.86,42.7,14.41,39.83C698.69,191.47,697.75,158.83,697.75,149.25Z"/><path class="cls-3" d="M760.76,198.73,739,202.58V3.85L760.8,0Z"/><path class="cls-3" d="M799.7,135.82c0,10.07-.48,37.92,13.69,35.42,11.61-2.06,13.7-15.58,13.7-24.92l20.22-3.57c0,22.28-9.52,44.31-34.13,48.64-32.75,5.78-35.77-29.62-35.77-55.23,0-24.65,2.78-63.7,35.06-69.39,31.8-5.61,35.52,32,35.52,57v3.59Zm26-20.63c0-9.35,0-30.65-13.23-28.32-13.71,2.41-12.78,23.56-12.78,32.92Z"/><path class="cls-4" d="M262.83,60.22c-6.2,1.08-9,.57-16.36,1.82-23.11,3.9-47.36,11.53-60.4,30.57-17.12,25.07-22.75,67.15-40.48,82,11.82-5.59,18.91-19.5,40.11-25.35,16-4.38,32.37-5.32,46.23-18.26C246.1,117.65,253,96.55,256.27,78.74c1.09-7.33,2.35-12.17,6.71-18.55ZM247.6,73.41c-10.24,9.74-26.87,27.38-36,36.52-18.48,18.45-55.1,55.13-55.1,55.13-.2.18-3.93,4.29-4.16,4-.4-.47,3.8-4.52,7-8.08,0,0,35.21-38.69,49.65-53.26,18-18.15,35-33.42,35-33.42C257.94,61.84,261.67,61,261.67,61S256.42,65,247.6,73.41Z"/><path class="cls-3" d="M6.2,113.57a3.7,3.7,0,0,1-4.47-3.81,5.59,5.59,0,0,1,4.47-5.27,3.65,3.65,0,0,1,4.35,3.73A5.6,5.6,0,0,1,6.2,113.57ZM9,188.5l-6,1V123.77l6-1Z"/><path class="cls-3" d="M23,120.23v30.18c0,6.54.58,12.85,6.42,11.82s6.58-7.47,6.58-14V118l6-1V152.3c0,8-4.14,14.14-12.5,15.63S17,164.73,17,156.6V121.28Z"/><path class="cls-3" d="M55.9,118.32A14.81,14.81,0,0,1,65,112.08c8.29-1.45,9,6.29,9,12.86v34.38l-6,1.05V126.64c0-5.73-.23-10-5.15-9.19-6.72,1.19-6.85,8.81-6.85,13.89v31.19l-6,1.05V115.52l5.91-1Z"/><path class="cls-3" d="M106.71,155.35c0,9-.13,17.41-11.95,19.5C86.59,176.29,83,171.9,83,163.64v-1.76l5-1v.84c0,4.5,1.49,8.32,6.58,7.42,6.65-1.17,6.42-7.07,6.42-12.23v-5.62A11.83,11.83,0,0,1,93.3,156c-11.62,2-11.89-14.5-11.89-23,0-8.07.89-23.87,11.69-25.78a7.66,7.66,0,0,1,7.63,2.7l.26,0v-3.27l5.83-1Zm-11.92-4.63c6.26-1.12,6.55-10.62,6.55-21.12,0-8.81-.55-18.84-7-17.7-4.27.75-6.88,4.22-6.91,21.84C87.42,139,87.34,152,94.79,150.72Z"/><path class="cls-3" d="M120,128.51v1.41c0,4.78.66,16.26,7.12,15.13,5.18-.92,5.85-8.57,5.84-12.39l6.05-1.08c-.08,7.33-2.84,17.55-11.49,19.07-12.26,2.17-13.88-12.53-13.9-22.17,0-8.64,1.82-25.26,13.1-27.26,10.89-1.92,12.6,12.48,12.6,20.93l.17,2.91ZM133.32,121l-.08-.83c-.18-4.56-.35-14.28-6.54-13.18-5.64,1-6.92,12.1-6.92,16.41Z"/></g></g></svg>