<svg xmlns="http://www.w3.org/2000/svg" viewBox="0 0 847.99 434.4"><defs><style>.cls-1{fill:#010909;}.cls-2{fill:#b4dc00;}.cls-3{fill:#079bd4;}.cls-4{fill:#119cd4;}.cls-5{fill:#fff;}</style></defs><title>Solothurn</title><g id="Ebene_2" data-name="Ebene 2"><g id="Ebene_1-2" data-name="Ebene 1"><path class="cls-1" d="M72,321.11C72,364.22,59.63,373.87,36.4,378,15.28,381.69,2,371.6,2,349.12v-3.37L23,342c-.47,8.72,2.95,17.66,13.86,15.75C51.45,355.18,50,340.83,50,329.8V309.69l-.48.08c-3,10.35-10.25,18.58-20.94,20C.72,334.65,0,293.83,0,273.24c0-19.39-.47-63.13,28.09-68.17,11.65-2,16.77,3.77,21.43,12.53L50,217V203.15l22-3.9ZM36,223.79c-15.08,2.65-13.68,35.47-13.68,44.1,0,9.1-1.4,43.09,14.39,40.31S50.15,274,50.15,264.15,50.16,221.29,36,223.79Z"/><path class="cls-1" d="M114,206.67l.31-.07c5.11-11.43,12.69-19,24.69-21.14v22.27l-3.67.41C119,211,114,221.26,114,236.58v76.14l-22,3.89V195.69l22-3.85Z"/><path class="cls-1" d="M176.65,180.83l-.08,75.65c0,10.79-1.42,26.84,13.44,24.21,14.63-2.58,13-16.89,13-27.66V176.15l21.82-3.84,0,81.65c0,24.91-7,42.46-33.72,47.16C159.24,306.73,155,289.07,155,261.55V184.67Z"/><path class="cls-1" d="M266.83,178.79l.44-.09c4.88-10.68,12.09-17.92,23.7-20,23.21-4.09,23.91,17.09,23.92,35.52l0,83.09L293,281.2V197.62c0-8.39-1.28-18.91-12.89-16.86C265.7,183.29,267,200.08,267,210.39v75.43l-22,3.84V168.74l21.82-3.85Z"/><path class="cls-1" d="M357,270l-22,3.86V75.09l22-3.84Z"/><path class="cls-1" d="M373.17,109.52A18.34,18.34,0,0,1,387.8,92.08c7.66-1.35,14.39,4.17,14.39,12.32,0,8.38-6.72,16.26-14.39,17.61C379.68,123.45,373.17,117.89,373.17,109.52ZM398,262.6l-21,3.86V145.53l21-3.85Z"/><path class="cls-1" d="M418.33,60.35,440,56.5v91.22l.62-.08c4.4-10.11,9.83-17,20.95-19,27.64-4.85,28.38,35.71,28.37,55.85,0,19.6-.43,64-27.62,68.79-12.53,2.22-17.29-3.9-21.71-13.68l-.61.08v15.57l-21.75,3.86Zm49.34,129.46c0-9.82,1.87-42.47-14.39-39.6-14.63,2.58-13.71,35-13.71,44.56s-.92,42.31,13.71,40C469.54,231.64,467.67,199.64,467.67,189.81Z"/><path class="cls-1" d="M525.7,184.13c0,10.06-.44,37.92,13.72,35.41,11.61-2,13.71-15.57,13.72-24.92l20.19-3.56c0,22.28-9.52,44.3-34.12,48.63-32.76,5.78-35.78-29.6-35.78-55.22,0-24.65,2.79-63.7,35.05-69.4,31.83-5.6,35.51,32,35.51,57v3.57Zm26-20.64c0-9.33,0-30.64-13.23-28.31-13.71,2.42-12.78,23.55-12.78,32.91Z"/><path class="cls-1" d="M612.59,118.77l.49-.07c5.11-11.43,12.91-19,24.91-21.15v22.26l-3.68.42C618.05,123.1,613,133.33,613,148.68v76.14l-22,3.88V107.78l21.7-3.85Z"/><path class="cls-1" d="M697,194.38l-.44.1c-4.4,11.31-9,19.06-21.56,21.28-27.16,4.79-27.63-39.44-27.64-59,0-20.13.71-60.94,28.34-65.82,10.23-1.81,16.92,3.48,20.86,11.64l.44-.09V89l21.85-3.85V206.11L697,209.94Zm.76-45.13c0-9.58.94-42.31-13.69-39.73-16.26,2.87-14.41,34.86-14.41,44.69,0,10-1.86,42.7,14.41,39.83C698.69,191.47,697.75,158.83,697.75,149.25Z"/><path class="cls-1" d="M760.76,198.73,739,202.58V3.85L760.8,0Z"/><path class="cls-1" d="M799.7,135.82c0,10.07-.48,37.92,13.69,35.42,11.61-2.06,13.7-15.58,13.7-24.92l20.22-3.57c0,22.28-9.52,44.31-34.13,48.64-32.75,5.78-35.77-29.62-35.77-55.23,0-24.65,2.78-63.7,35.06-69.39,31.8-5.61,35.52,32,35.52,57v3.58Zm26-20.63c0-9.35,0-30.65-13.22-28.32-13.71,2.42-12.78,23.56-12.78,32.92Z"/><path class="cls-2" d="M262.83,60.22c-6.2,1.08-9,.57-16.36,1.82-23.11,3.9-47.37,11.54-60.4,30.57-17.12,25.06-22.75,67.15-40.48,82,11.82-5.59,18.91-19.5,40.11-25.35,16-4.38,32.37-5.32,46.23-18.26C246.1,117.65,253,96.55,256.27,78.74c1.09-7.33,2.35-12.17,6.71-18.55ZM247.6,73.41c-10.24,9.74-26.87,27.38-36,36.52-18.48,18.45-55.1,55.13-55.1,55.13-.2.18-3.93,4.29-4.16,4-.4-.47,3.8-4.52,7-8.08,0,0,35.21-38.69,49.65-53.25,18-18.16,35-33.43,35-33.43C257.94,61.84,261.67,61,261.67,61S256.42,65,247.6,73.41Z"/><path class="cls-1" d="M6.2,113.57a3.7,3.7,0,0,1-4.47-3.81A5.58,5.58,0,0,1,6.2,104.5a3.64,3.64,0,0,1,4.35,3.72A5.59,5.59,0,0,1,6.2,113.57ZM9,188.5l-6,1V123.77l6-1Z"/><path class="cls-1" d="M23,120.23v30.18c0,6.53.58,12.85,6.42,11.82s6.58-7.47,6.58-14V118l6-1V152.3c0,8-4.14,14.14-12.5,15.63S17,164.73,17,156.6V121.28Z"/><path class="cls-1" d="M55.9,118.32A14.77,14.77,0,0,1,65,112.08c8.29-1.45,9,6.29,9,12.86v34.38l-6,1.05V126.63c0-5.72-.23-10-5.15-9.18-6.72,1.19-6.85,8.81-6.85,13.88v31.2l-6,1.05V115.52l5.91-1Z"/><path class="cls-1" d="M106.71,155.35c0,9-.13,17.41-11.95,19.5C86.59,176.29,83,171.9,83,163.64v-1.76l5-1v.84c0,4.5,1.49,8.32,6.58,7.42,6.65-1.17,6.42-7.07,6.42-12.23v-5.62A11.83,11.83,0,0,1,93.3,156c-11.62,2-11.89-14.5-11.89-23,0-8.07.89-23.86,11.69-25.78a7.66,7.66,0,0,1,7.63,2.7l.26,0v-3.27l5.82-1Zm-11.92-4.63c6.26-1.12,6.55-10.62,6.55-21.12,0-8.81-.55-18.84-7-17.7-4.27.76-6.88,4.22-6.91,21.84C87.42,139,87.34,152,94.79,150.72Z"/><path class="cls-1" d="M120,128.51v1.41c0,4.78.66,16.26,7.12,15.13,5.18-.92,5.85-8.57,5.84-12.39l6.05-1.08c-.08,7.33-2.84,17.55-11.49,19.07-12.26,2.17-13.88-12.53-13.9-22.17,0-8.64,1.81-25.26,13.09-27.26,10.9-1.92,12.61,12.48,12.61,20.93l.17,2.91ZM133.32,121l-.08-.83c-.18-4.55-.35-14.28-6.54-13.18-5.64,1-6.92,12.1-6.92,16.41Z"/><path class="cls-3" d="M745.09,279.28,735.53,281v20.1l9.56-1.68a7.55,7.55,0,0,0,4.69-2.63,7.72,7.72,0,0,0,1.76-5.11v-7a5,5,0,0,0-6.45-5.36Z"/><path class="cls-3" d="M459.13,327.9a9.26,9.26,0,0,0-5.92,3.54,10.87,10.87,0,0,0-2.23,6.8v36.1a7.87,7.87,0,0,0,2.23,6,6.5,6.5,0,0,0,5.92,1.46,9.22,9.22,0,0,0,5.92-3.54,10.87,10.87,0,0,0,2.23-6.8v-36.1a7.87,7.87,0,0,0-2.23-6A6.5,6.5,0,0,0,459.13,327.9Z"/><path class="cls-3" d="M548.45,312.15a9.25,9.25,0,0,0-5.91,3.54,10.82,10.82,0,0,0-2.24,6.8v36.1a7.84,7.84,0,0,0,2.24,6,6.44,6.44,0,0,0,5.91,1.46,9.22,9.22,0,0,0,5.92-3.54,10.87,10.87,0,0,0,2.23-6.8V319.62a7.88,7.88,0,0,0-2.23-6A6.5,6.5,0,0,0,548.45,312.15Z"/><path class="cls-4" d="M360.15,310.75V434.4L848,348.32V224.67ZM431,344a3.58,3.58,0,0,1-2.82,3.3l-6.2,1.09a2.34,2.34,0,0,1-2.82-2.3v-2.2a8.47,8.47,0,0,0-2-6q-2-2.21-6.11-1.48a9.26,9.26,0,0,0-6.11,3.43,11.18,11.18,0,0,0-2,6.91v1c0,2,.55,3.44,1.65,4.31a30.75,30.75,0,0,0,5.24,3.08l12.6,6.17a18.24,18.24,0,0,1,4.47,2.77,11.24,11.24,0,0,1,2.61,3.38,13.09,13.09,0,0,1,1.26,4.43,51.4,51.4,0,0,1,.3,6,24.5,24.5,0,0,1-1.46,8.61,20.65,20.65,0,0,1-4.12,6.82,23,23,0,0,1-6.4,4.88,28,28,0,0,1-8.2,2.75,23.74,23.74,0,0,1-7.95.15,14.28,14.28,0,0,1-6.35-2.58,13.17,13.17,0,0,1-4.17-5.36,20,20,0,0,1-1.51-8.19v-4.1a3.6,3.6,0,0,1,2.82-3.3l6.2-1.09a2.34,2.34,0,0,1,2.82,2.3v4.1a7.89,7.89,0,0,0,2.23,6,6.4,6.4,0,0,0,5.91,1.51,9.28,9.28,0,0,0,6.11-3.43,11.16,11.16,0,0,0,2-6.91v-1.5c0-2.06-.5-3.51-1.5-4.33a21.13,21.13,0,0,0-4-2.49l-15.32-7.6a11,11,0,0,1-5.87-6.27,25.2,25.2,0,0,1-1.41-8.35q0-9.49,5.48-15.77a24.55,24.55,0,0,1,14.7-7.89,23.83,23.83,0,0,1,8-.16,14.45,14.45,0,0,1,6.3,2.59,13.13,13.13,0,0,1,4.17,5.37,20.08,20.08,0,0,1,1.51,8.18Zm48.1,25.42a23.31,23.31,0,0,1-1.55,8.62,21.73,21.73,0,0,1-4.27,6.85,23.81,23.81,0,0,1-6.35,4.87,26,26,0,0,1-7.81,2.68,22.1,22.1,0,0,1-7.81.08,15.37,15.37,0,0,1-6.35-2.63,13.36,13.36,0,0,1-4.27-5.35,19.28,19.28,0,0,1-1.55-8.08v-36.1a23.35,23.35,0,0,1,1.55-8.62,21.85,21.85,0,0,1,4.27-6.85,24,24,0,0,1,6.35-4.87,26,26,0,0,1,7.81-2.68,22.34,22.34,0,0,1,7.81-.08,15.37,15.37,0,0,1,6.35,2.63,13.43,13.43,0,0,1,4.27,5.35,19.32,19.32,0,0,1,1.55,8.08Zm42.19,7.26a3.28,3.28,0,0,1-.83,2.1,3.23,3.23,0,0,1-2,1.19l-27.08,4.78a2.32,2.32,0,0,1-2.79-2.31V317.1a3.22,3.22,0,0,1,.82-2.09,3.28,3.28,0,0,1,2-1.2l6.25-1.1a2.27,2.27,0,0,1,2,.5,2.29,2.29,0,0,1,.82,1.81v57.5l18-3.18a2.34,2.34,0,0,1,2.82,2.3Zm47.13-23a23.31,23.31,0,0,1-1.55,8.62,21.73,21.73,0,0,1-4.27,6.85,23.81,23.81,0,0,1-6.35,4.87,26,26,0,0,1-7.81,2.68,22.1,22.1,0,0,1-7.81.08,15.37,15.37,0,0,1-6.35-2.63,13.36,13.36,0,0,1-4.27-5.35,19.28,19.28,0,0,1-1.55-8.08v-36.1A23.35,23.35,0,0,1,530,316a21.85,21.85,0,0,1,4.27-6.85,24,24,0,0,1,6.35-4.87,26,26,0,0,1,7.81-2.68,22.34,22.34,0,0,1,7.81-.08,15.37,15.37,0,0,1,6.35,2.63,13.43,13.43,0,0,1,4.27,5.35,19.32,19.32,0,0,1,1.55,8.08Zm46.45-53.92a3.37,3.37,0,0,1-.82,2.21,3.18,3.18,0,0,1-1.89,1.2l-11.06,1.95v57.5a3.56,3.56,0,0,1-2.79,3.29l-6.25,1.1a2.32,2.32,0,0,1-2.79-2.3V307.15l-11.06,2a2.18,2.18,0,0,1-1.89-.52,2.42,2.42,0,0,1-.82-1.93v-4.74a3.41,3.41,0,0,1,.82-2.22,3.16,3.16,0,0,1,1.89-1.19l33.95-6a2.18,2.18,0,0,1,1.89.52,2.41,2.41,0,0,1,.82,1.93Zm48.11,52a3.22,3.22,0,0,1-.82,2.09,3.28,3.28,0,0,1-2,1.2l-6.25,1.1a2.31,2.31,0,0,1-2.79-2.31v-28.8l-16.39,2.89v28.8a3.3,3.3,0,0,1-.82,2.1,3.22,3.22,0,0,1-2,1.19L625.72,361a2.29,2.29,0,0,1-2-.51,2.26,2.26,0,0,1-.82-1.8v-65.3a3.54,3.54,0,0,1,2.79-3.29L632,289a2.32,2.32,0,0,1,2.79,2.3v25.91l16.39-2.89V288.43a3.51,3.51,0,0,1,2.79-3.28l6.25-1.1a2.32,2.32,0,0,1,2.79,2.31Zm50.33-23.58a23.11,23.11,0,0,1-1.55,8.62,21.87,21.87,0,0,1-4.26,6.86,24.28,24.28,0,0,1-6.36,4.87,26.16,26.16,0,0,1-7.81,2.67,22,22,0,0,1-7.8.08,15.26,15.26,0,0,1-6.35-2.63,13.19,13.19,0,0,1-4.27-5.35,19.11,19.11,0,0,1-1.55-8.07v-50.6a3.23,3.23,0,0,1,.82-2.1,3.3,3.3,0,0,1,2-1.2l6.21-1.1a2.34,2.34,0,0,1,2,.5,2.29,2.29,0,0,1,.83,1.81V333a7.87,7.87,0,0,0,2.23,6,6.47,6.47,0,0,0,5.91,1.45,9.22,9.22,0,0,0,5.92-3.54,10.78,10.78,0,0,0,2.23-6.79v-50.6a3.24,3.24,0,0,1,.83-2.1,3.27,3.27,0,0,1,2-1.2l6.21-1.1a2.35,2.35,0,0,1,2,.5,2.29,2.29,0,0,1,.82,1.81Zm50.43,5.81a3.55,3.55,0,0,1-2.81,3.29l-6.3,1.11a2.31,2.31,0,0,1-2-.49,2.26,2.26,0,0,1-.82-1.81V315a5.26,5.26,0,0,0-1.91-4.46,5.87,5.87,0,0,0-4.83-.95l-9.56,1.68v27.6a3.56,3.56,0,0,1-2.79,3.3l-6.25,1.1A2.32,2.32,0,0,1,723.7,341v-65.3a3.23,3.23,0,0,1,.83-2.1,3.27,3.27,0,0,1,2-1.2l23.67-4.17a11.34,11.34,0,0,1,5.09.15,9.21,9.21,0,0,1,3.88,2.17,10.32,10.32,0,0,1,2.47,3.71,13,13,0,0,1,.87,4.8v10a19.67,19.67,0,0,1-1.79,8.57,9.68,9.68,0,0,1-6.55,5.1,9.2,9.2,0,0,1,4.76.71,7.57,7.57,0,0,1,3,2.63,10.33,10.33,0,0,1,1.51,4,30.29,30.29,0,0,1,.38,4.83Zm52.72-7.35a3.23,3.23,0,0,1-2,1.2l-8,1.41a2,2,0,0,1-2-.49,9.88,9.88,0,0,1-1.07-1.77l-18.91-41v44.3a3.56,3.56,0,0,1-2.79,3.29l-6.25,1.1a2.31,2.31,0,0,1-2.79-2.31V267a3.55,3.55,0,0,1,2.81-3.29l8-1.4a2,2,0,0,1,2,.49,9.78,9.78,0,0,1,1.07,1.76l18.91,41V261.33a3.56,3.56,0,0,1,2.79-3.29l6.25-1.1a2.32,2.32,0,0,1,2.79,2.31v65.2A3.27,3.27,0,0,1,816.47,326.54Z"/><path class="cls-5" d="M425.33,328.21a14.45,14.45,0,0,0-6.3-2.59,23.83,23.83,0,0,0-8,.16,24.55,24.55,0,0,0-14.7,7.89q-5.47,6.27-5.48,15.77a25.2,25.2,0,0,0,1.41,8.35,11,11,0,0,0,5.87,6.27l15.32,7.6a21.13,21.13,0,0,1,4,2.49c1,.82,1.5,2.27,1.5,4.33V380a11.16,11.16,0,0,1-2,6.91,9.28,9.28,0,0,1-6.11,3.43,6.4,6.4,0,0,1-5.91-1.51,7.89,7.89,0,0,1-2.23-6v-4.1a2.34,2.34,0,0,0-2.82-2.3l-6.2,1.09a3.6,3.6,0,0,0-2.82,3.3v4.1a20,20,0,0,0,1.51,8.19,13.17,13.17,0,0,0,4.17,5.36,14.28,14.28,0,0,0,6.35,2.58,23.74,23.74,0,0,0,7.95-.15,28,28,0,0,0,8.2-2.75,23,23,0,0,0,6.4-4.88,20.65,20.65,0,0,0,4.12-6.82,24.5,24.5,0,0,0,1.46-8.61,51.4,51.4,0,0,0-.3-6,13.09,13.09,0,0,0-1.26-4.43,11.24,11.24,0,0,0-2.61-3.38,18.24,18.24,0,0,0-4.47-2.77l-12.6-6.17a30.75,30.75,0,0,1-5.24-3.08c-1.1-.87-1.65-2.31-1.65-4.31v-1a11.18,11.18,0,0,1,2-6.91,9.26,9.26,0,0,1,6.11-3.43q4.07-.72,6.11,1.48a8.47,8.47,0,0,1,2,6v2.2a2.34,2.34,0,0,0,2.82,2.3l6.2-1.09A3.58,3.58,0,0,0,431,344v-2.2a20.08,20.08,0,0,0-1.51-8.18A13.13,13.13,0,0,0,425.33,328.21Z"/><path class="cls-5" d="M473.29,319.85a15.37,15.37,0,0,0-6.35-2.63,22.34,22.34,0,0,0-7.81.08,26,26,0,0,0-7.81,2.68,24,24,0,0,0-6.35,4.87,21.85,21.85,0,0,0-4.27,6.85,23.35,23.35,0,0,0-1.55,8.62v36.1a19.28,19.28,0,0,0,1.55,8.08,13.36,13.36,0,0,0,4.27,5.35,15.37,15.37,0,0,0,6.35,2.63,22.1,22.1,0,0,0,7.81-.08,26,26,0,0,0,7.81-2.68,23.81,23.81,0,0,0,6.35-4.87,21.73,21.73,0,0,0,4.27-6.85,23.31,23.31,0,0,0,1.55-8.62v-36.1a19.32,19.32,0,0,0-1.55-8.08A13.43,13.43,0,0,0,473.29,319.85Zm-6,51.61a10.87,10.87,0,0,1-2.23,6.8,9.22,9.22,0,0,1-5.92,3.54,6.5,6.5,0,0,1-5.92-1.46,7.87,7.87,0,0,1-2.23-6v-36.1a10.87,10.87,0,0,1,2.23-6.8,9.26,9.26,0,0,1,5.92-3.54,6.5,6.5,0,0,1,5.92,1.46,7.87,7.87,0,0,1,2.23,6Z"/><path class="cls-5" d="M518.48,369.34l-18,3.18V315a2.29,2.29,0,0,0-.82-1.81,2.27,2.27,0,0,0-2-.5l-6.25,1.1a3.28,3.28,0,0,0-2,1.2,3.22,3.22,0,0,0-.82,2.09v65.3a2.32,2.32,0,0,0,2.79,2.31l27.08-4.78a3.23,3.23,0,0,0,2-1.19,3.28,3.28,0,0,0,.83-2.1v-5a2.34,2.34,0,0,0-2.82-2.3Z"/><path class="cls-5" d="M562.61,304.1a15.37,15.37,0,0,0-6.35-2.63,22.34,22.34,0,0,0-7.81.08,26,26,0,0,0-7.81,2.68,24,24,0,0,0-6.35,4.87A21.85,21.85,0,0,0,530,316a23.35,23.35,0,0,0-1.55,8.62v36.1a19.28,19.28,0,0,0,1.55,8.08,13.36,13.36,0,0,0,4.27,5.35,15.37,15.37,0,0,0,6.35,2.63,22.1,22.1,0,0,0,7.81-.08,26,26,0,0,0,7.81-2.68,23.81,23.81,0,0,0,6.35-4.87,21.73,21.73,0,0,0,4.27-6.85,23.31,23.31,0,0,0,1.55-8.62v-36.1a19.32,19.32,0,0,0-1.55-8.08A13.43,13.43,0,0,0,562.61,304.1Zm-6,51.61a10.87,10.87,0,0,1-2.23,6.8,9.22,9.22,0,0,1-5.92,3.54,6.44,6.44,0,0,1-5.91-1.46,7.84,7.84,0,0,1-2.24-6v-36.1a10.82,10.82,0,0,1,2.24-6.8,9.25,9.25,0,0,1,5.91-3.54,6.5,6.5,0,0,1,5.92,1.46,7.88,7.88,0,0,1,2.23,6Z"/><path class="cls-5" d="M612.17,292.52l-33.95,6a3.16,3.16,0,0,0-1.89,1.19,3.41,3.41,0,0,0-.82,2.22v4.74a2.42,2.42,0,0,0,.82,1.93,2.18,2.18,0,0,0,1.89.52l11.06-2v57.51a2.32,2.32,0,0,0,2.79,2.3l6.25-1.1a3.56,3.56,0,0,0,2.79-3.29v-57.5l11.06-1.95a3.18,3.18,0,0,0,1.89-1.2,3.37,3.37,0,0,0,.82-2.21V295a2.41,2.41,0,0,0-.82-1.93A2.18,2.18,0,0,0,612.17,292.52Z"/><path class="cls-5" d="M660.2,284.05l-6.25,1.1a3.51,3.51,0,0,0-2.79,3.28v25.91l-16.39,2.89V291.32A2.32,2.32,0,0,0,632,289l-6.26,1.11a3.54,3.54,0,0,0-2.79,3.29v65.3a2.26,2.26,0,0,0,.82,1.8,2.29,2.29,0,0,0,2,.51l6.26-1.11a3.22,3.22,0,0,0,2-1.19,3.3,3.3,0,0,0,.82-2.1v-28.8l16.39-2.89v28.8a2.31,2.31,0,0,0,2.79,2.31l6.25-1.1a3.28,3.28,0,0,0,2-1.2,3.22,3.22,0,0,0,.82-2.09v-65.3a2.32,2.32,0,0,0-2.79-2.31Z"/><path class="cls-5" d="M710.51,275.17l-6.21,1.1a3.27,3.27,0,0,0-2,1.2,3.24,3.24,0,0,0-.83,2.1v50.6a10.78,10.78,0,0,1-2.23,6.79,9.22,9.22,0,0,1-5.92,3.54,6.47,6.47,0,0,1-5.91-1.45,7.87,7.87,0,0,1-2.23-6v-50.6a2.29,2.29,0,0,0-.83-1.81,2.34,2.34,0,0,0-2-.5l-6.21,1.1a3.3,3.3,0,0,0-2,1.2,3.23,3.23,0,0,0-.82,2.1v50.6a19.11,19.11,0,0,0,1.55,8.07,13.19,13.19,0,0,0,4.27,5.35,15.26,15.26,0,0,0,6.35,2.63,22,22,0,0,0,7.8-.08,26.16,26.16,0,0,0,7.81-2.67,24.28,24.28,0,0,0,6.36-4.87,21.87,21.87,0,0,0,4.26-6.86,23.11,23.11,0,0,0,1.55-8.62v-50.6a2.29,2.29,0,0,0-.82-1.81A2.35,2.35,0,0,0,710.51,275.17Z"/><path class="cls-5" d="M761.86,306a7.57,7.57,0,0,0-3-2.63,9.2,9.2,0,0,0-4.76-.71,9.68,9.68,0,0,0,6.55-5.1,19.67,19.67,0,0,0,1.79-8.57V279a13,13,0,0,0-.87-4.8,10.32,10.32,0,0,0-2.47-3.71,9.21,9.21,0,0,0-3.88-2.17,11.34,11.34,0,0,0-5.09-.15l-23.67,4.17a3.27,3.27,0,0,0-2,1.2,3.23,3.23,0,0,0-.83,2.1V341a2.32,2.32,0,0,0,2.79,2.31l6.25-1.1a3.56,3.56,0,0,0,2.79-3.3v-27.6l9.56-1.68a5.87,5.87,0,0,1,4.83.95,5.26,5.26,0,0,1,1.91,4.46v21a2.26,2.26,0,0,0,.82,1.81,2.31,2.31,0,0,0,2,.49l6.3-1.11a3.55,3.55,0,0,0,2.81-3.29v-19a30.29,30.29,0,0,0-.38-4.83A10.33,10.33,0,0,0,761.86,306Zm-10.32-14.38a7.72,7.72,0,0,1-1.76,5.11,7.55,7.55,0,0,1-4.69,2.63l-9.56,1.68V281l9.56-1.68a5,5,0,0,1,6.45,5.36Z"/><path class="cls-5" d="M816.47,257.44a2.25,2.25,0,0,0-2-.5l-6.25,1.1a3.56,3.56,0,0,0-2.79,3.29v44.21l-18.91-41a9.78,9.78,0,0,0-1.07-1.76,2,2,0,0,0-2-.49l-8,1.4a3.55,3.55,0,0,0-2.81,3.29v65.3a2.31,2.31,0,0,0,2.79,2.31l6.25-1.1a3.56,3.56,0,0,0,2.79-3.29v-44.3l18.91,41a9.88,9.88,0,0,0,1.07,1.77,2,2,0,0,0,2,.49l8-1.41a3.23,3.23,0,0,0,2-1.2,3.27,3.27,0,0,0,.82-2.09v-65.2A2.26,2.26,0,0,0,816.47,257.44Z"/></g></g></svg>