<?xml version="1.0" encoding="utf-8"?>
<!-- Generator: Adobe Illustrator 24.2.3, SVG Export Plug-In . SVG Version: 6.00 Build 0)  -->
<svg version="1.1" id="Ebene_1" xmlns="http://www.w3.org/2000/svg" xmlns:xlink="http://www.w3.org/1999/xlink" x="0px" y="0px"
	 viewBox="80 360 847.99 387.98" style="enable-background:new 0 0 847.99 387.98" xml:space="preserve">
<style type="text/css">
	.st0{fill:#079BD4;}
	.st1{fill:none;}
	.st2{enable-background:new    ;}
	.st3{fill:#FFFFFF;}
	.st4{fill:#010909;}
	.st5{fill:#B4DC00;}
</style>
<polygon class="st0" points="928,539.3 451.5,623.3 451.5,747 928,662.9 "/>
<polygon class="st1" points="915.4,666.2 480.2,743 471.9,645.9 907.1,569.2 "/>
<g class="st2">
	<path class="st3" d="M493.5,660.4c0,2,0.5,3.4,1.6,4.3c1.1,0.9,2.8,1.9,5.2,3.1L513,674c1.9,0.9,3.4,1.8,4.5,2.8
		c1.1,1,2,2.1,2.6,3.4c0.6,1.3,1.1,2.8,1.3,4.4c0.2,1.7,0.3,3.7,0.3,6c0,3.1-0.5,6-1.5,8.6c-1,2.6-2.3,4.9-4.1,6.8
		c-1.8,1.9-3.9,3.6-6.4,4.9c-2.5,1.3-5.2,2.2-8.2,2.7c-2.8,0.5-5.5,0.6-8,0.2c-2.5-0.4-4.6-1.3-6.4-2.6c-1.8-1.3-3.2-3.1-4.2-5.4
		c-1-2.3-1.5-5-1.5-8.2v-4.1c0-0.7,0.3-1.4,0.8-2.1c0.5-0.7,1.2-1.1,2-1.2l6.2-1.1c0.8-0.1,1.4,0,2,0.5c0.5,0.5,0.8,1.1,0.8,1.8v4.1
		c0,2.5,0.7,4.5,2.2,6c1.5,1.4,3.5,1.9,5.9,1.5c2.7-0.5,4.8-1.6,6.1-3.4c1.4-1.8,2-4.1,2-6.9v-1.5c0-2.1-0.5-3.5-1.5-4.3
		c-1-0.8-2.3-1.7-4-2.5l-15.3-7.6c-3-1.5-4.9-3.6-5.9-6.3c-0.9-2.7-1.4-5.5-1.4-8.4c0-6.3,1.8-11.6,5.5-15.8
		c3.7-4.2,8.6-6.8,14.7-7.9c2.9-0.5,5.6-0.6,8-0.2c2.4,0.4,4.5,1.3,6.3,2.6c1.8,1.3,3.2,3.1,4.2,5.4c1,2.3,1.5,5,1.5,8.2v2.2
		c0,0.7-0.3,1.4-0.8,2.1c-0.5,0.7-1.2,1.1-2,1.2l-6.2,1.1c-0.8,0.1-1.4,0-2-0.5c-0.5-0.5-0.8-1.1-0.8-1.8v-2.2c0-2.5-0.7-4.5-2-6
		c-1.4-1.5-3.4-2-6.1-1.5c-2.7,0.5-4.8,1.6-6.1,3.4c-1.4,1.8-2,4.1-2,6.9V660.4z"/>
	<path class="st3" d="M564.5,629.6c0.7-0.1,1.3,0,1.9,0.5c0.5,0.5,0.8,1.1,0.8,1.9v4.7c0,0.8-0.3,1.5-0.8,2.2
		c-0.5,0.7-1.2,1.1-1.9,1.2l-11.1,1.9v57.5c0,0.7-0.3,1.4-0.8,2.1c-0.5,0.7-1.2,1.1-2,1.2l-6.3,1.1c-0.8,0.1-1.4,0-2-0.5
		c-0.5-0.5-0.8-1.1-0.8-1.8v-57.5l-11.1,1.9c-0.7,0.1-1.3,0-1.9-0.5c-0.5-0.5-0.8-1.1-0.8-1.9V639c0-0.8,0.3-1.5,0.8-2.2
		c0.5-0.7,1.2-1.1,1.9-1.2L564.5,629.6z"/>
	<path class="st3" d="M601.8,623c0.6-0.1,1.1,0,1.5,0.2c0.4,0.3,0.6,0.7,0.8,1.2l14.6,62.7c0.1,0.4,0.2,0.7,0.2,1.1
		c0,0.3,0,0.5,0,0.6c0,0.5-0.2,1.1-0.6,1.6c-0.4,0.5-0.9,0.8-1.6,0.9l-7.2,1.3c-0.6,0.1-1.1,0-1.4-0.4c-0.4-0.4-0.6-0.8-0.7-1.4
		l-2.9-12.1l-18.6,3.3l-2.9,13.1c-0.1,0.6-0.4,1.2-0.7,1.7c-0.4,0.5-0.8,0.8-1.4,0.9l-7.2,1.3c-0.6,0.1-1.2,0-1.6-0.4
		c-0.4-0.4-0.6-0.8-0.6-1.3c0-0.1,0-0.3,0-0.6c0-0.3,0.1-0.7,0.2-1.1l14.6-67.9c0.1-0.6,0.4-1,0.8-1.4c0.4-0.4,0.9-0.7,1.5-0.8
		L601.8,623z M595.3,636.7l-7.1,34.4l14.2-2.5L595.3,636.7z"/>
	<path class="st3" d="M665.5,669.7c0,1.7-0.4,3.5-1.1,5.1c-0.7,1.7-1.7,3.3-3,4.7c-1.3,1.4-2.7,2.6-4.3,3.6c-1.6,1-3.2,1.6-5,1.9
		l-23.2,4.1c-0.8,0.1-1.4,0-2-0.5s-0.8-1.1-0.8-1.8v-65.3c0-0.7,0.3-1.4,0.8-2.1c0.5-0.7,1.2-1.1,2-1.2l23.2-4.1
		c1.7-0.3,3.4-0.3,5,0.2c1.6,0.4,3,1.1,4.3,2.1c1.3,1,2.3,2.2,3,3.6c0.7,1.4,1.1,3,1.1,4.8V669.7z M653.4,631.2c0-2.3-0.6-4-1.7-5
		c-1.1-1-2.7-1.3-4.6-1l-9.2,1.6v50.5l9.2-1.6c2-0.3,3.5-1.2,4.6-2.6c1.1-1.4,1.7-3.2,1.7-5.6V631.2z"/>
	<path class="st3" d="M709.4,604.1c0.7-0.1,1.3,0,1.9,0.5c0.5,0.5,0.8,1.1,0.8,1.9v4.7c0,0.8-0.3,1.5-0.8,2.2
		c-0.6,0.7-1.2,1.1-1.9,1.2l-11.1,1.9v57.5c0,0.7-0.3,1.4-0.8,2.1c-0.5,0.7-1.2,1.1-2,1.2l-6.3,1.1c-0.8,0.1-1.4,0-2-0.5
		c-0.5-0.5-0.8-1.1-0.8-1.8v-57.5l-11.1,1.9c-0.7,0.1-1.3,0-1.9-0.5c-0.5-0.5-0.8-1.1-0.8-1.9v-4.7c0-0.8,0.3-1.5,0.8-2.2
		c0.5-0.7,1.2-1.1,1.9-1.2L709.4,604.1z"/>
	<path class="st3" d="M736,662.2c0-2,0.1-3.4,0.3-4.2c0.2-0.8,0.6-1.7,1.1-2.5l27.3-50l-23.9,4.2c-0.7,0.1-1.3,0-1.9-0.5
		c-0.5-0.5-0.8-1.1-0.8-1.9v-5.3c0-0.8,0.3-1.5,0.8-2.2c0.5-0.7,1.2-1.1,1.9-1.2l35.1-6.2c0.7-0.1,1.3,0,1.9,0.5
		c0.5,0.5,0.8,1.1,0.8,1.9v5.2c0,0.9,0,1.8-0.1,2.5c-0.1,0.7-0.3,1.5-0.7,2.2l-28.3,52.1l26.5-4.7c0.7-0.1,1.3,0,1.9,0.5
		c0.5,0.5,0.8,1.1,0.8,1.9v5.3c0,0.8-0.3,1.5-0.8,2.2s-1.2,1.1-1.9,1.2l-37.3,6.6c-0.7,0.1-1.3,0-1.9-0.5c-0.6-0.5-0.8-1.1-0.8-1.9
		V662.2z"/>
	<path class="st3" d="M814.8,588.3c0-0.7,0.3-1.4,0.8-2.1c0.5-0.7,1.2-1.1,2-1.2l6.2-1.1c0.8-0.1,1.4,0,2,0.5
		c0.5,0.5,0.8,1.1,0.8,1.8v50.6c0,3.1-0.5,6-1.6,8.6c-1,2.6-2.5,4.9-4.3,6.9c-1.8,2-3.9,3.6-6.4,4.9c-2.4,1.3-5,2.2-7.8,2.7
		c-2.8,0.5-5.4,0.5-7.8,0.1c-2.4-0.4-4.5-1.3-6.4-2.6c-1.8-1.3-3.2-3.1-4.3-5.3c-1-2.3-1.6-4.9-1.6-8.1v-50.6c0-0.7,0.3-1.4,0.8-2.1
		c0.5-0.7,1.2-1.1,2-1.2l6.2-1.1c0.8-0.1,1.4,0,2,0.5c0.5,0.5,0.8,1.1,0.8,1.8v50.6c0,2.6,0.7,4.6,2.2,6c1.5,1.4,3.5,1.9,5.9,1.5
		c2.5-0.4,4.4-1.6,5.9-3.5c1.5-1.9,2.2-4.2,2.2-6.8V588.3z M803.3,577.7c0,0.7-0.3,1.4-0.8,2.1c-0.5,0.7-1.1,1-1.8,1.2l-6.8,1.2
		c-0.7,0.1-1.3,0-1.8-0.5c-0.5-0.5-0.8-1.1-0.8-1.8v-5.5c0-0.7,0.3-1.4,0.8-2.1c0.5-0.7,1.1-1,1.8-1.2l6.8-1.2
		c0.7-0.1,1.3,0.1,1.8,0.5c0.5,0.5,0.8,1.1,0.8,1.8V577.7z M822.6,574.3c0,0.7-0.3,1.4-0.8,2.1c-0.5,0.7-1.1,1-1.8,1.2l-6.8,1.2
		c-0.7,0.1-1.3,0-1.8-0.5c-0.5-0.5-0.8-1.1-0.8-1.8v-5.5c0-0.7,0.3-1.4,0.8-2.1c0.5-0.7,1.1-1,1.8-1.2l6.8-1.2
		c0.7-0.1,1.3,0.1,1.8,0.5c0.5,0.5,0.8,1.1,0.8,1.8V574.3z"/>
	<path class="st3" d="M848.9,620v27.6c0,0.7-0.3,1.4-0.8,2.1c-0.5,0.7-1.2,1.1-2,1.2l-6.3,1.1c-0.8,0.1-1.4,0-2-0.5
		c-0.5-0.5-0.8-1.1-0.8-1.8v-65.3c0-0.7,0.3-1.4,0.8-2.1c0.5-0.7,1.2-1.1,2-1.2l23.7-4.2c1.9-0.3,3.6-0.3,5.1,0.2
		c1.5,0.4,2.8,1.2,3.9,2.2c1.1,1,1.9,2.3,2.5,3.7s0.9,3.1,0.9,4.8v10c0,3.2-0.6,6.1-1.8,8.6c-1.2,2.5-3.4,4.2-6.5,5.1
		c1.9-0.1,3.5,0.1,4.8,0.7c1.2,0.6,2.2,1.5,3,2.6c0.7,1.1,1.2,2.5,1.5,4c0.3,1.6,0.4,3.2,0.4,4.8v19c0,0.7-0.3,1.4-0.8,2.1
		c-0.5,0.7-1.2,1.1-2,1.2L868,647c-0.8,0.1-1.4,0-2-0.5s-0.8-1.1-0.8-1.8v-21c0-2-0.6-3.5-1.9-4.5c-1.3-1-2.9-1.3-4.8-1L848.9,620z
		 M864.9,593.3c0-1.9-0.6-3.4-1.8-4.4c-1.2-1-2.7-1.3-4.7-1l-9.6,1.7v20.1l9.6-1.7c2-0.3,3.5-1.2,4.7-2.6c1.2-1.4,1.8-3.1,1.8-5.1
		V593.3z"/>
	<path class="st3" d="M886.5,575.6c0-0.7,0.3-1.4,0.8-2.1c0.5-0.7,1.2-1.1,2-1.2l6.3-1.1c0.8-0.1,1.4,0,2,0.5
		c0.5,0.5,0.8,1.1,0.8,1.8v65.3c0,0.7-0.3,1.4-0.8,2.1s-1.2,1.1-2,1.2l-6.3,1.1c-0.8,0.1-1.4,0-2-0.5c-0.5-0.5-0.8-1.1-0.8-1.8
		V575.6z"/>
</g>
<g>
	<g>
		<path class="st4" d="M152,635.7c0,43.1-12.4,52.8-35.6,56.8c-21.1,3.7-34.4-6.4-34.4-28.8v-3.4l21-3.7
			c-0.5,8.7,2.9,17.7,13.9,15.8c14.6-2.6,13.2-16.9,13.2-28v-20.1l-0.5,0.1c-3,10.3-10.3,18.6-20.9,20C80.7,649.3,80,608.5,80,587.9
			c0-19.4-0.5-63.1,28.1-68.2c11.6-2,16.8,3.8,21.4,12.5l0.5-0.6v-13.9l22-3.9L152,635.7z M116,538.4c-15.1,2.7-13.7,35.5-13.7,44.1
			c0,9.1-1.4,43.1,14.4,40.3c15.8-2.8,13.5-34.2,13.5-44C130.2,569,130.2,535.9,116,538.4z"/>
		<path class="st4" d="M194,521.3l0.3-0.1c5.1-11.4,12.7-19,24.7-21.1v22.3l-3.7,0.4c-16.3,2.9-21.3,13.1-21.3,28.4v76.1l-22,3.9
			V510.3l22-3.9V521.3z"/>
		<path class="st4" d="M256.6,495.5l-0.1,75.7c0,10.8-1.4,26.8,13.4,24.2c14.6-2.6,13-16.9,13-27.7v-76.9l21.8-3.8l0,81.6
			c0,24.9-7,42.5-33.7,47.2c-31.8,5.6-36.1-12-36.1-39.6v-76.9L256.6,495.5z"/>
		<path class="st4" d="M346.8,493.4l0.4-0.1c4.9-10.7,12.1-17.9,23.7-20c23.2-4.1,23.9,17.1,23.9,35.5l0,83.1l-21.9,3.9v-83.6
			c0-8.4-1.3-18.9-12.9-16.9c-14.4,2.5-13.1,19.3-13.1,29.6v75.4l-22,3.8V483.4l21.8-3.9L346.8,493.4z"/>
		<path class="st4" d="M437,584.6l-22,3.9V389.7l22-3.9V584.6z"/>
		<path class="st4" d="M453.2,424.1c0-8.1,6.5-16,14.6-17.4c7.7-1.4,14.4,4.2,14.4,12.3c0,8.4-6.7,16.3-14.4,17.6
			C459.7,438.1,453.2,432.5,453.2,424.1z M478,577.2l-21,3.9V460.2l21-3.9V577.2z"/>
		<path class="st4" d="M498.3,375l21.7-3.9v91.2l0.6-0.1c4.4-10.1,9.8-17,21-19c27.6-4.9,28.4,35.7,28.4,55.9
			c0,19.6-0.4,64-27.6,68.8c-12.5,2.2-17.3-3.9-21.7-13.7l-0.6,0.1v15.6l-21.8,3.9L498.3,375z M547.7,504.4
			c0-9.8,1.9-42.5-14.4-39.6c-14.6,2.6-13.7,35-13.7,44.6s-0.9,42.3,13.7,40C549.5,546.3,547.7,514.3,547.7,504.4z"/>
		<path class="st4" d="M605.7,498.8c0,10.1-0.5,37.9,13.7,35.4c11.6-2,13.7-15.6,13.7-24.9l20.2-3.6c0,22.3-9.5,44.3-34.1,48.6
			c-32.8,5.8-35.8-29.6-35.8-55.2c0-24.6,2.8-63.7,35-69.4c31.8-5.6,35.5,32,35.5,57v3.6L605.7,498.8z M631.7,478.1
			c0-9.3,0-30.6-13.2-28.3c-13.7,2.4-12.8,23.6-12.8,32.9L631.7,478.1z"/>
		<path class="st4" d="M692.6,433.4l0.5-0.1c5.1-11.4,12.9-19,24.9-21.1v22.3l-3.7,0.4c-16.3,2.9-21.3,13.1-21.3,28.5v76.1l-22,3.9
			V422.4l21.7-3.8L692.6,433.4z"/>
		<path class="st4" d="M777,509l-0.4,0.1c-4.4,11.3-9,19.1-21.6,21.3c-27.2,4.8-27.6-39.4-27.7-59.1c0-20.1,0.7-60.9,28.3-65.8
			c10.2-1.8,16.9,3.5,20.9,11.6l0.4-0.1v-13.4l21.8-3.9l0,120.9l-21.8,3.8V509z M777.8,463.9c0-9.6,0.9-42.3-13.7-39.7
			c-16.3,2.9-14.4,34.9-14.4,44.7c0,10-1.9,42.7,14.4,39.8C778.7,506.1,777.8,473.5,777.8,463.9z"/>
		<path class="st4" d="M840.8,513.4l-21.8,3.9V318.5l21.8-3.9L840.8,513.4z"/>
		<path class="st4" d="M879.7,450.5c0,10.1-0.5,37.9,13.7,35.4c11.6-2.1,13.7-15.6,13.7-24.9l20.2-3.6c0,22.3-9.5,44.3-34.1,48.6
			c-32.8,5.8-35.8-29.6-35.8-55.2c0-24.6,2.8-63.7,35.1-69.4c31.8-5.6,35.5,32,35.5,57v3.6L879.7,450.5z M905.7,429.8
			c0-9.4,0-30.6-13.2-28.3c-13.7,2.4-12.8,23.6-12.8,32.9L905.7,429.8z"/>
	</g>
	<path class="st5" d="M342.8,374.8c-6.2,1.1-9,0.6-16.4,1.8c-23.1,3.9-47.4,11.5-60.4,30.6c-17.1,25.1-22.8,67.1-40.5,82
		c11.8-5.6,18.9-19.5,40.1-25.4c16-4.4,32.4-5.3,46.2-18.3c14.2-13.4,21.1-34.5,24.3-52.3c1.1-7.3,2.4-12.2,6.7-18.5L342.8,374.8z
		 M327.6,388c-10.2,9.7-26.9,27.4-36,36.5c-18.5,18.5-55.1,55.1-55.1,55.1c-0.2,0.2-3.9,4.3-4.2,4c-0.4-0.5,3.8-4.5,7-8.1
		c0,0,35.2-38.7,49.6-53.3c18-18.2,35-33.4,35-33.4c14-12.5,17.7-13.4,17.7-13.4S336.4,379.6,327.6,388z"/>
	<g>
		<path class="st4" d="M86.2,428.2c-2.4,0.4-4.4-1.3-4.5-3.8c0-2.5,2-4.9,4.5-5.3c2.4-0.4,4.4,1.3,4.4,3.7
			C90.6,425.4,88.6,427.8,86.2,428.2z M89,503.1l-6,1v-65.8l6-1L89,503.1z"/>
		<path class="st4" d="M103,434.9V465c0,6.5,0.6,12.9,6.4,11.8c6-1.1,6.6-7.5,6.6-14v-30.2l6-1v35.3c0,8.1-4.1,14.1-12.5,15.6
			c-8.3,1.5-12.5-3.2-12.5-11.3v-35.3L103,434.9z"/>
		<path class="st4" d="M135.9,432.9c2.4-3.3,5.5-5.6,9.1-6.2c8.3-1.5,9,6.3,9,12.9v34.4l-6,1v-33.7c0-5.7-0.2-10-5.1-9.2
			c-6.7,1.2-6.9,8.8-6.9,13.9v31.2l-6,1v-48.1l5.9-1L135.9,432.9z"/>
		<path class="st4" d="M186.7,470c0,9-0.1,17.4-11.9,19.5c-8.2,1.4-11.8-3-11.8-11.2v-1.8l5-1v0.8c0,4.5,1.5,8.3,6.6,7.4
			c6.6-1.2,6.4-7.1,6.4-12.2v-5.6c-2,2.7-4.6,4.1-7.7,4.7c-11.6,2-11.9-14.5-11.9-23c0-8.1,0.9-23.9,11.7-25.8
			c3.2-0.6,5.9,0.5,7.6,2.7l0.3,0v-3.3l5.8-1L186.7,470z M174.8,465.3c6.3-1.1,6.6-10.6,6.6-21.1c0-8.8-0.6-18.8-7-17.7
			c-4.3,0.8-6.9,4.2-6.9,21.8C167.4,453.6,167.3,466.6,174.8,465.3z"/>
		<path class="st4" d="M200,443.1v1.4c0,4.8,0.7,16.3,7.1,15.1c5.2-0.9,5.9-8.6,5.8-12.4l6.1-1.1c-0.1,7.3-2.8,17.5-11.5,19.1
			c-12.3,2.2-13.9-12.5-13.9-22.2c0-8.6,1.8-25.3,13.1-27.3c10.9-1.9,12.6,12.5,12.6,20.9l0.2,2.9L200,443.1z M213.3,435.6l-0.1-0.8
			c-0.2-4.6-0.4-14.3-6.5-13.2c-5.6,1-6.9,12.1-6.9,16.4L213.3,435.6z"/>
	</g>
</g>
</svg>
