<svg xmlns="http://www.w3.org/2000/svg" viewBox="0 0 848.12 378.41"><defs><style>.cls-1{fill:#119cd4;}.cls-2{fill:#fff;}.cls-3{fill:#010909;}.cls-4{fill:#b4dc00;}</style></defs><title>Suisse</title><g id="Ebene_2" data-name="Ebene 2"><g id="Ebene_1-2" data-name="Ebene 1"><polygon class="cls-1" points="534.79 254.76 534.79 378.41 848.12 323.12 848.12 199.47 534.79 254.76"/><path class="cls-2" d="M577.52,291.73c0,2,.54,3.44,1.64,4.31a31.16,31.16,0,0,0,5.24,3.08L597,305.29a18.35,18.35,0,0,1,4.46,2.77,11.28,11.28,0,0,1,2.62,3.38,13.32,13.32,0,0,1,1.26,4.43,54,54,0,0,1,.29,6,24.5,24.5,0,0,1-1.45,8.61,20.67,20.67,0,0,1-4.13,6.82,23,23,0,0,1-6.4,4.88,28,28,0,0,1-8.19,2.75,23.75,23.75,0,0,1-8,.15,14.36,14.36,0,0,1-6.36-2.58,13.13,13.13,0,0,1-4.17-5.37,20.09,20.09,0,0,1-1.5-8.18v-4.1a3.22,3.22,0,0,1,.82-2.09,3.29,3.29,0,0,1,2-1.21l6.21-1.09a2.29,2.29,0,0,1,2,.5,2.26,2.26,0,0,1,.82,1.8v4.1a7.89,7.89,0,0,0,2.23,6,6.43,6.43,0,0,0,5.92,1.51,9.3,9.3,0,0,0,6.11-3.43,11.24,11.24,0,0,0,2-6.91v-1.5c0-2.07-.5-3.51-1.5-4.33a20.71,20.71,0,0,0-4-2.49l-15.33-7.6a11,11,0,0,1-5.87-6.27,25.45,25.45,0,0,1-1.4-8.35q0-9.49,5.48-15.77a24.52,24.52,0,0,1,14.69-7.89,23.83,23.83,0,0,1,8-.16,14.44,14.44,0,0,1,6.31,2.59,13.3,13.3,0,0,1,4.17,5.37,20.09,20.09,0,0,1,1.5,8.18V288a3.55,3.55,0,0,1-2.81,3.3l-6.21,1.09a2.29,2.29,0,0,1-2-.5,2.26,2.26,0,0,1-.82-1.8v-2.2a8.43,8.43,0,0,0-2-6c-1.36-1.47-3.39-2-6.11-1.48a9.3,9.3,0,0,0-6.11,3.43,11.18,11.18,0,0,0-2,6.91Z"/><path class="cls-2" d="M642.3,264.81a3.21,3.21,0,0,1,.83-2.1,3.27,3.27,0,0,1,2-1.2l6.21-1.09a2.29,2.29,0,0,1,2,.5,2.26,2.26,0,0,1,.82,1.8v50.6a23.31,23.31,0,0,1-1.55,8.62,21.71,21.71,0,0,1-4.27,6.86,24.07,24.07,0,0,1-6.35,4.87,26.16,26.16,0,0,1-7.81,2.67,22,22,0,0,1-7.8.08,15.35,15.35,0,0,1-6.36-2.63,13.25,13.25,0,0,1-4.26-5.35,19.11,19.11,0,0,1-1.55-8.07v-50.6a3.25,3.25,0,0,1,.82-2.1,3.3,3.3,0,0,1,2-1.2l6.2-1.1a2.35,2.35,0,0,1,2,.5,2.29,2.29,0,0,1,.83,1.81v50.6a7.87,7.87,0,0,0,2.23,6,6.47,6.47,0,0,0,5.91,1.45,9.22,9.22,0,0,0,5.92-3.54,10.78,10.78,0,0,0,2.23-6.79Z"/><path class="cls-2" d="M664.51,260.89a3.22,3.22,0,0,1,.82-2.09,3.16,3.16,0,0,1,2-1.2l6.25-1.1a2.32,2.32,0,0,1,2.79,2.3v65.3a3.56,3.56,0,0,1-2.79,3.3l-6.25,1.1a2.32,2.32,0,0,1-2.79-2.31Z"/><path class="cls-2" d="M697.48,270.58c0,2,.55,3.43,1.65,4.3a30.49,30.49,0,0,0,5.24,3.08L717,284.14a18.66,18.66,0,0,1,4.46,2.76,11.32,11.32,0,0,1,2.62,3.39,13.25,13.25,0,0,1,1.26,4.43,53.7,53.7,0,0,1,.29,6,24.22,24.22,0,0,1-1.46,8.6,20.69,20.69,0,0,1-4.12,6.83,23.15,23.15,0,0,1-6.4,4.88,28,28,0,0,1-8.19,2.74,23.55,23.55,0,0,1-8,.15,14.14,14.14,0,0,1-6.35-2.58A13,13,0,0,1,687,316a20.09,20.09,0,0,1-1.5-8.18v-4.1a3.23,3.23,0,0,1,.82-2.1,3.3,3.3,0,0,1,2-1.2l6.21-1.09a2.3,2.3,0,0,1,2,.5,2.26,2.26,0,0,1,.82,1.8v4.1a7.9,7.9,0,0,0,2.23,6,6.43,6.43,0,0,0,5.92,1.5,9.34,9.34,0,0,0,6.11-3.42,11.24,11.24,0,0,0,2-6.91v-1.5c0-2.07-.5-3.51-1.5-4.34a21.73,21.73,0,0,0-4-2.49l-15.33-7.6a11,11,0,0,1-5.87-6.26,25.5,25.5,0,0,1-1.4-8.35q0-9.51,5.48-15.77a24.42,24.42,0,0,1,14.69-7.89,23.57,23.57,0,0,1,8-.16,14.32,14.32,0,0,1,6.31,2.59,13.34,13.34,0,0,1,4.17,5.36,20.17,20.17,0,0,1,1.5,8.19v2.2a3.27,3.27,0,0,1-.82,2.09,3.23,3.23,0,0,1-2,1.2l-6.21,1.1a2.32,2.32,0,0,1-2-.5,2.26,2.26,0,0,1-.82-1.81v-2.2a8.45,8.45,0,0,0-2-6c-1.36-1.46-3.39-1.95-6.11-1.47a9.28,9.28,0,0,0-6.11,3.43,11.14,11.14,0,0,0-2,6.91Z"/><path class="cls-2" d="M744.91,262.21c0,2,.55,3.44,1.65,4.31a30.1,30.1,0,0,0,5.24,3.08l12.6,6.18a18.23,18.23,0,0,1,4.47,2.76,11.16,11.16,0,0,1,2.61,3.39,13,13,0,0,1,1.26,4.42,51.4,51.4,0,0,1,.3,6,24.46,24.46,0,0,1-1.46,8.61,20.69,20.69,0,0,1-4.12,6.83,23.35,23.35,0,0,1-6.4,4.88,28,28,0,0,1-8.2,2.74,23.74,23.74,0,0,1-8,.15,14.28,14.28,0,0,1-6.35-2.58,13.1,13.1,0,0,1-4.17-5.36,20,20,0,0,1-1.51-8.19v-4.1A3.58,3.58,0,0,1,735.7,292l6.2-1.1a2.32,2.32,0,0,1,2,.5,2.27,2.27,0,0,1,.83,1.81v4.1A7.86,7.86,0,0,0,747,303.3a6.38,6.38,0,0,0,5.91,1.51,9.28,9.28,0,0,0,6.11-3.43,11.16,11.16,0,0,0,2-6.91V293c0-2.06-.5-3.51-1.5-4.33a22.19,22.19,0,0,0-4-2.49l-15.32-7.6a11,11,0,0,1-5.87-6.26,25.26,25.26,0,0,1-1.41-8.36q0-9.49,5.48-15.76a24.44,24.44,0,0,1,14.7-7.89,23.31,23.31,0,0,1,8-.16,14.32,14.32,0,0,1,6.3,2.58,13.13,13.13,0,0,1,4.17,5.37,20.11,20.11,0,0,1,1.51,8.18v2.2a3.24,3.24,0,0,1-.83,2.1,3.3,3.3,0,0,1-2,1.2l-6.2,1.09a2.34,2.34,0,0,1-2.82-2.3v-2.2a8.49,8.49,0,0,0-2-6q-2-2.19-6.11-1.47A9.29,9.29,0,0,0,747,254.3a11.18,11.18,0,0,0-2,6.91Z"/><path class="cls-2" d="M784.84,307.77a2.25,2.25,0,0,1-2-.5,2.29,2.29,0,0,1-.82-1.81v-65.3a3.56,3.56,0,0,1,2.79-3.29l29.8-5.25a2.2,2.2,0,0,1,1.89.51,2.39,2.39,0,0,1,.83,1.91v4.8a3.35,3.35,0,0,1-.83,2.19,3.16,3.16,0,0,1-1.89,1.19l-20.75,3.66v17.6l17.84-3.15a2.18,2.18,0,0,1,1.89.52,2.43,2.43,0,0,1,.83,1.93v4.74a3.42,3.42,0,0,1-.83,2.22,3.11,3.11,0,0,1-1.89,1.19l-17.84,3.15v21.5l21.24-3.75a2.21,2.21,0,0,1,1.89.52,2.36,2.36,0,0,1,.82,1.9v4.8a3.36,3.36,0,0,1-.82,2.2,3.14,3.14,0,0,1-1.89,1.18Z"/><path class="cls-3" d="M22.38,192.38l14.55,81.71.42-.07.65-6.73,7.91-46.41,6.64-33.82L72,183.63,43.56,300.06,30.29,302.4,1,196.16Z"/><path class="cls-3" d="M99.4,238.59c0,9.27-.43,34.93,12.62,32.63,10.7-1.88,12.63-14.36,12.63-23L143.26,245c0,20.51-8.77,40.81-31.45,44.81-30.17,5.32-32.95-27.28-32.95-50.89,0-22.72,2.57-58.69,32.31-63.94,29.31-5.17,32.73,29.53,32.73,52.47v3.31Zm24-19c0-8.6,0-28.24-12.19-26.09-12.63,2.23-11.77,21.72-11.77,30.32Z"/><path class="cls-3" d="M179.42,178.37l.42-.08c4.71-10.53,11.77-17.51,22.9-19.47v20.51l-3.43.38c-15,2.65-19.68,12.08-19.68,26.2v70.16l-20.33,3.58V168.24l20.12-3.55Z"/><path class="cls-3" d="M241,122.28v31.55l10.69-1.89v16.33L241,170.15v95.09l-20.12,3.55V173.7L210,175.63V159.3l10.91-1.92V125.82Z"/><path class="cls-3" d="M271.73,81.35l18.41-3.25-2.57,38.18-13.27,2.34Z"/><path class="cls-3" d="M340.2,247.76l-20.11,3.54V68.19l20.11-3.55Z"/><path class="cls-3" d="M355.39,99.91a16.91,16.91,0,0,1,13.48-16.06,11.15,11.15,0,0,1,13.27,11.34c0,7.72-6.21,15-13.27,16.24C361.38,112.75,355.39,107.63,355.39,99.91ZM378.71,241l-20.11,3.54V133.1l20.11-3.55Z"/><path class="cls-3" d="M397.11,54.61l20.11-3.55v84.06l.43-.08c4.07-9.32,9-15.7,19.26-17.52C462.37,113,463,150.43,463,169c0,18.09-.43,59-25.46,63.4-11.55,2-15.83-3.61-19.9-12.6l-.43.07v14.34l-20.11,3.55Zm45.36,119.3c0-9,1.71-39.14-13.26-36.49-13.49,2.37-12.63,32.23-12.63,41.05s-.86,39,12.63,36.82C444.18,212.43,442.47,183,442.47,173.91Z"/><path class="cls-3" d="M496,168.67c0,9.26-.42,34.93,12.63,32.63,10.7-1.89,12.62-14.36,12.62-23l18.62-3.29c0,20.52-8.78,40.82-31.45,44.82-30.17,5.32-33-27.28-33-50.89,0-22.72,2.57-58.7,32.31-63.94,29.32-5.17,32.74,29.52,32.74,52.47v3.31Zm24-19c0-8.61,0-28.24-12.2-26.09C495.1,125.8,496,145.28,496,153.88Z"/><path class="cls-3" d="M576,108.45l.43-.08c4.71-10.53,11.77-17.52,22.89-19.48v20.52l-3.42.38c-15,2.64-19.69,12.08-19.69,26.2v70.16l-20.32,3.58V98.31L576,94.77Z"/><path class="cls-3" d="M653.85,178.11l-.42.08c-4.07,10.42-8.35,17.57-19.9,19.61-25,4.41-25.47-36.33-25.47-54.42,0-18.53.65-56.15,26.11-60.64,9.41-1.66,15.62,3.2,19.26,10.73l.42-.08V81L674,77.49V188.9l-20.12,3.55Zm.65-41.59c0-8.83.85-39-12.63-36.6-15,2.64-13.26,32.12-13.26,41.17,0,9.26-1.71,39.35,13.27,36.7C655.36,175.42,654.5,145.34,654.5,136.52Z"/><path class="cls-3" d="M712.69,70.66v69.72c0,9.93-1.28,24.71,12.41,22.3,13.48-2.38,12-15.57,12-25.5V66.36l20.11-3.55v75.24c0,22.94-6.63,39.11-31.24,43.45-29.31,5.17-33.38-11.1-33.38-36.47V74.21Z"/><path class="cls-3" d="M792.92,56.52,808.11,92l5.13-17.45L822,51.38l21-3.69L818.6,104.5l29.52,53.7-23.74,4.18-10.7-22.16c-2.79-6.35-6-12.84-7.06-19.93l-.43.07c-.65,8.72-4.07,17.27-7.28,25.77l-8.56,22.25-21,3.7,27-63.66-27-47.76Z"/><path class="cls-4" d="M565.89,0c-5.63,1-8.17.53-14.8,1.65C530.18,5.2,508.25,12.1,496.47,29.33,481,52,475.89,90.06,459.84,103.51c10.7-5.06,17.12-17.64,36.3-22.92,14.42-4,29.27-4.82,41.77-16.53C550.74,52,557,32.9,560,16.78c1-6.62,2.11-11,6.07-16.78ZM552.11,12c-9.26,8.81-24.29,24.79-32.58,33.05-16.74,16.68-49.86,49.84-49.86,49.84-.2.19-3.56,3.89-3.77,3.64-.36-.41,3.44-4.06,6.3-7.3,0,0,31.85-35,44.92-48.14C533.43,26.6,548.8,12.78,548.8,12.78,561.47,1.49,564.85.71,564.85.71S560.09,4.37,552.11,12Z"/><path class="cls-3" d="M7.81,105.22a5,5,0,0,1-3.95,4.67A3.27,3.27,0,0,1,0,106.51a4.73,4.73,0,0,1,3.86-4.57A3.2,3.2,0,0,1,7.81,105.22ZM6.49,118.65v59.88l-5.26.93V119.59Z"/><path class="cls-3" d="M17.72,139.65v1.45c0,9.86,2.63,14.64,6.75,13.91,3.34-.59,5.88-4.83,6.06-11.65l5-.88c-.44,9.85-4.92,16.06-11.14,17.16-7.81,1.38-11.76-5.35-11.76-20.09s4.65-23.61,12-24.91,11.4,5.5,11.4,20.33v1.45Zm7.1-20.16c-4,.72-6.75,6.08-7.1,15.73l13.42-2.37C31.05,123.37,28.6,118.83,24.82,119.49Z"/><path class="cls-3" d="M46.05,111.68v28.4c0,7.42,1.32,10.62,5.88,9.82s5.79-4.46,5.79-11.87V109.62l5.17-.91V138c0,10-3.16,15.39-11,16.77s-11-2.85-11-12.89V112.59Z"/><path class="cls-3" d="M75.88,106.42v4A11.31,11.31,0,0,1,84,104.46c6.22-1.1,8.51,3,8.51,12.33v30l-5.18.92V116.89c0-6.24-1-8.68-5.18-8s-6.22,4.81-6.22,12v28.86l-5.18.91V107.34Z"/><path class="cls-3" d="M103.07,124.6v1.45c0,9.86,2.63,14.64,6.75,13.91,3.34-.58,5.88-4.83,6.06-11.65l5-.88c-.44,9.85-4.91,16.06-11.14,17.16C101.93,146,98,139.25,98,124.5s4.65-23.61,12-24.91,11.41,5.5,11.4,20.33c0,.45,0,1,0,1.45Zm7.11-20.15c-4,.71-6.76,6.07-7.11,15.72l13.42-2.37C116.41,108.32,114,103.78,110.18,104.45Z"/><path class="cls-3" d="M132.46,135.79a7.92,7.92,0,0,0,6.57-7.94c0-3.89-2.8-5.66-7-8.62-4.92-3.48-8.07-6-8.07-11.42a12.57,12.57,0,0,1,17.8-11.47v5.52a8.55,8.55,0,0,0-6.93-2,7.17,7.17,0,0,0-6,6.93c0,3.62,2.54,5.25,6.32,7.84,5.43,3.74,8.86,6.4,8.86,12.28a13.84,13.84,0,0,1-11.23,13.82,11.06,11.06,0,0,1-8.34-1.69v-6.33C127.1,135.29,129.82,136.25,132.46,135.79Z"/></g></g></svg>