<!-- <svg version="1.1" id="Layer_1" xmlns="http://www.w3.org/2000/svg" xmlns:xlink="http://www.w3.org/1999/xlink" x="0px" y="0px"> -->
<svg xmlns="http://www.w3.org/2000/svg" viewBox="90 300 848.99 408.96">
<style type="text/css">
	.st0{fill:#020203;}
	.st1{fill:#B2CC23;}
	.st2{fill:#179CD4;}
	.st3{fill:#FFFFFF;}
</style>
<g>
	<path class="st0" d="M118.09,500.86l14.57,81.82l0.43-0.08l0.64-6.74l7.93-46.47l6.64-33.87l19.5-3.44l-28.5,116.59l-13.28,2.34
		L96.66,504.64L118.09,500.86z"/>
	<path class="st0" d="M195.22,547.13c0,9.28-0.43,34.98,12.64,32.68c10.71-1.89,12.64-14.38,12.64-22.99l18.64-3.29
		c0,20.54-8.78,40.87-31.5,44.88c-30.21,5.33-33-27.32-33-50.96c0-22.75,2.57-58.78,32.35-64.03c29.35-5.18,32.78,29.57,32.78,52.54
		v3.31L195.22,547.13z M219.21,528.1c0-8.61,0-28.28-12.21-26.12c-12.64,2.23-11.78,21.74-11.78,30.36L219.21,528.1z"/>
	<path class="st0" d="M275.34,486.83l0.43-0.08c4.71-10.55,11.78-17.54,22.93-19.51v20.55l-3.43,0.38
		c-15,2.64-19.71,12.09-19.71,26.23v70.25l-20.35,3.59V476.68l20.14-3.55L275.34,486.83L275.34,486.83z"/>
	<path class="st0" d="M355.47,556.21l-0.43,0.08c-4.07,10.44-8.57,17.64-19.93,19.64c-25.07,4.42-25.5-36.38-25.5-54.49
		c0-18.56,0.64-56.23,26.14-60.72c10.28-1.81,15.21,3.06,19.28,10.74l0.43-0.08v-84.17l20.14-3.55v183.36l-20.14,3.55v-14.36H355.47
		z M356.11,514.56c0-8.84,0.86-39.03-12.64-36.65c-15,2.64-13.28,32.17-13.28,41.22c0,9.28-1.71,39.41,13.28,36.76
		C356.97,553.51,356.11,523.4,356.11,514.56z"/>
	<path class="st0" d="M390.81,418.97c0-7.51,6-14.75,13.5-16.08c7.07-1.25,13.28,3.84,13.28,11.35c0,7.73-6.21,15.01-13.28,16.26
		C396.81,431.83,390.81,426.7,390.81,418.97z M414.17,560.22l-20.14,3.55V452.2l20.14-3.55L414.17,560.22L414.17,560.22z"/>
	<path class="st0" d="M496.65,545.67l-20.14,3.55V365.86l20.14-3.55L496.65,545.67L496.65,545.67z"/>
	<path class="st0" d="M511.85,397.63c0-7.51,6-14.75,13.5-16.08c7.07-1.25,13.28,3.84,13.28,11.35c0,7.73-6.21,15.01-13.28,16.26
		C517.85,410.49,511.85,405.36,511.85,397.63z M535.21,538.87l-20.14,3.55V430.86l20.14-3.55V538.87z"/>
	<path class="st0" d="M553.63,352.26l20.14-3.55v84.17l0.43-0.08c4.07-9.33,9-15.73,19.28-17.54c25.5-4.5,26.14,32.95,26.14,51.5
		c0,18.11-0.43,59.06-25.5,63.48c-11.57,2.04-15.85-3.61-19.93-12.61l-0.43,0.08v14.36l-20.14,3.55L553.63,352.26L553.63,352.26z
		 M599.05,471.72c0-9.06,1.71-39.18-13.29-36.54c-13.5,2.38-12.64,32.27-12.64,41.11s-0.86,39.03,12.64,36.87
		C600.77,510.3,599.05,480.78,599.05,471.72z"/>
	<path class="st0" d="M652.61,466.48c0,9.28-0.43,34.98,12.64,32.68c10.71-1.89,12.64-14.38,12.64-22.99l18.64-3.29
		c0,20.54-8.79,40.87-31.5,44.88c-30.21,5.33-32.99-27.32-32.99-50.96c0-22.75,2.57-58.78,32.35-64.03
		c29.35-5.18,32.78,29.57,32.78,52.54v3.31L652.61,466.48z M676.61,447.44c0-8.61,0-28.28-12.21-26.12
		c-12.64,2.23-11.78,21.74-11.78,30.36L676.61,447.44z"/>
	<path class="st0" d="M732.74,406.18l0.43-0.08c4.71-10.55,11.78-17.54,22.92-19.51v20.55l-3.43,0.38
		c-15,2.64-19.71,12.09-19.71,26.23V504l-20.35,3.59V396.03l20.14-3.55V406.18z"/>
	<path class="st0" d="M811.76,475.75l-0.43,0.08c-4.07,10.44-8.36,17.6-19.93,19.64c-25.07,4.42-25.5-36.38-25.5-54.49
		c0-18.56,0.64-56.23,26.14-60.72c9.43-1.66,15.64,3.21,19.28,10.74l0.43-0.08v-12.37L831.9,375v111.56l-20.14,3.55V475.75z
		 M812.4,434.1c0-8.84,0.86-39.03-12.64-36.65c-15,2.64-13.28,32.17-13.28,41.22c0,9.28-1.71,39.4,13.28,36.76
		C813.26,473.06,812.4,442.94,812.4,434.1z"/>
	<path class="st0" d="M870.46,479.76l-20.14,3.55V299.95l20.14-3.55V479.76z"/>
	<path class="st0" d="M885.66,331.71c0-7.51,6-14.75,13.5-16.08c7.07-1.25,13.28,3.84,13.28,11.35c0,7.73-6.21,15.01-13.28,16.26
		C891.66,344.58,885.66,339.45,885.66,331.71z M909.02,472.96l-20.14,3.55V364.95l20.14-3.55V472.96z"/>
</g>
<path class="st1" d="M724.88,297.41c-5.63,0.98-8.18,0.53-14.81,1.65c-20.94,3.54-42.9,10.45-54.7,27.7
	c-15.52,22.7-20.61,60.81-36.68,74.28c10.71-5.06,17.14-17.66,36.35-22.94c14.44-3.97,29.31-4.83,41.83-16.55
	c12.84-12.11,19.1-31.21,22.07-47.35c0.99-6.63,2.12-11.02,6.07-16.8L724.88,297.41z M711.09,309.36
	c-9.27,8.82-24.32,24.81-32.63,33.09c-16.75,16.7-49.92,49.9-49.92,49.9c-0.2,0.19-3.56,3.9-3.77,3.65
	c-0.36-0.42,3.44-4.08,6.3-7.31c0,0,31.9-35.03,44.98-48.21c16.34-16.46,31.72-30.3,31.72-30.3c12.69-11.3,16.07-12.08,16.07-12.08
	S719.08,301.76,711.09,309.36z"/>
<g>
	<path class="st0" d="M118.27,468.75c0,8.06-0.32,15.59-10.91,17.45c-7.33,1.29-10.75-2.64-10.75-10.03v-1.59l5.21-0.92v0.76
		c0,4.03,1.06,7.45,5.62,6.65c5.94-1.05,5.45-6.33,5.45-10.95v-5.04c-1.79,2.41-3.99,3.72-6.76,4.21
		c-10.42,1.84-10.58-12.99-10.58-20.63c0-7.22,0.81-21.38,10.5-23.09c2.85-0.5,5.21,0.43,6.76,2.42l0.16-0.03v-2.94l5.29-0.93
		L118.27,468.75L118.27,468.75z M107.6,464.58c5.62-0.99,5.86-9.51,5.86-18.91c0-7.89-0.49-16.87-6.27-15.85
		c-3.83,0.67-6.19,3.78-6.19,19.56C101.01,454.08,100.93,465.76,107.6,464.58z"/>
	<path class="st0" d="M128.28,413.69c-2.2,0.39-3.99-1.14-3.99-3.41c0-2.18,1.79-4.35,3.99-4.73c2.12-0.37,3.91,1.16,3.91,3.34
		C132.19,411.15,130.4,413.31,128.28,413.69z M130.89,464.93l-5.29,0.93v-43.05l5.29-0.93V464.93z"/>
	<path class="st0" d="M160.93,438.06c0,8.14-0.98,22.41-11.97,24.35s-11.97-11.99-11.97-20.13c0-8.06,0.98-22.33,11.97-24.27
		S160.93,430,160.93,438.06z M142.45,441.32c0,4.2,0.16,17.09,6.51,15.97c6.35-1.12,6.51-14.07,6.51-18.27
		c0-4.11-0.16-17.01-6.51-15.89S142.45,437.21,142.45,441.32z"/>
	<path class="st0" d="M179.33,456.39l-5.7,1l-9.52-41.38l5.37-0.95l5.37,25.99c0.57,2.59,0.97,5.2,1.55,7.79l0.32-0.06
		c0.33-2.75,0.65-5.57,1.14-8.26l5.29-27.87l5.45-0.96L179.33,456.39z"/>
	<path class="st0" d="M213.92,450.29l-5.29,0.93v-3.36l-0.16,0.03c-1.55,2.71-3.91,4.72-6.92,5.25c-6.67,1.18-9.93-2.11-9.93-20.91
		c0-9.65,0.33-21.8,10.42-23.58c2.93-0.52,4.8,0.41,6.43,2.48l0.16-0.03v-2.94l5.29-0.93L213.92,450.29L213.92,450.29z
		 M203.26,412.89c-5.86,1.03-6.19,10.66-6.19,17.96c0,17.79,2.85,18.13,5.94,17.59c5.13-0.9,6.11-6.03,6.11-19.54
		C209.12,419.58,208.47,411.97,203.26,412.89z"/>
	<path class="st0" d="M226.55,408.44c2.12-2.89,4.96-4.99,8.22-5.56c7.41-1.31,8.06,5.63,8.06,11.51v30.8l-5.29,0.93v-30.21
		c0-5.12-0.32-9.01-4.72-8.23c-6.02,1.06-6.27,7.9-6.27,12.44v27.95l-5.29,0.93v-43.05l5.29-0.93V408.44z"/>
	<path class="st0" d="M252.84,391.72c-2.2,0.39-3.99-1.14-3.99-3.41c0-2.18,1.79-4.35,3.99-4.73c2.12-0.37,3.91,1.16,3.91,3.34
		C256.75,389.19,254.96,391.35,252.84,391.72z M255.45,442.96l-5.29,0.93v-43.05l5.29-0.93V442.96z"/>
</g>
<g>
	<g>
		<polygon class="st2" points="490.67,587.95 490.67,711.6 909.02,637.78 909.02,514.13 		"/>
	</g>
	<g>
		<path class="st3" d="M533.4,624.92c0,2,0.55,3.44,1.65,4.31c1.1,0.87,2.84,1.9,5.24,3.08l12.61,6.18
			c1.87,0.87,3.36,1.79,4.46,2.76c1.1,0.97,1.97,2.1,2.62,3.39c0.65,1.29,1.07,2.76,1.26,4.43s0.29,3.67,0.29,6
			c0,3.13-0.49,6-1.46,8.61c-0.97,2.61-2.34,4.88-4.12,6.83c-1.78,1.95-3.91,3.57-6.4,4.88c-2.49,1.3-5.22,2.22-8.2,2.74
			c-2.85,0.5-5.5,0.55-7.95,0.15c-2.46-0.4-4.58-1.26-6.35-2.58c-1.78-1.32-3.17-3.11-4.17-5.36s-1.5-4.98-1.5-8.18v-4.1
			c0-0.73,0.27-1.43,0.82-2.1c0.55-0.66,1.21-1.06,1.99-1.2l6.21-1.09c0.78-0.14,1.44,0.03,1.99,0.5s0.82,1.07,0.82,1.8v4.1
			c0,2.53,0.74,4.52,2.23,5.96s3.46,1.94,5.91,1.51c2.72-0.48,4.75-1.62,6.11-3.43c1.36-1.8,2.04-4.11,2.04-6.91v-1.5
			c0-2.07-0.5-3.51-1.5-4.33s-2.34-1.65-4.02-2.49l-15.32-7.6c-2.98-1.47-4.93-3.56-5.87-6.27c-0.94-2.7-1.41-5.48-1.41-8.35
			c0-6.33,1.83-11.59,5.48-15.77c3.65-4.18,8.55-6.81,14.69-7.89c2.91-0.51,5.58-0.57,8-0.16c2.42,0.41,4.52,1.27,6.3,2.59
			c1.78,1.32,3.17,3.11,4.17,5.37s1.5,4.99,1.5,8.19v2.2c0,0.73-0.28,1.43-0.82,2.1c-0.55,0.66-1.21,1.06-1.99,1.2l-6.21,1.09
			c-0.78,0.14-1.44-0.03-1.99-0.5s-0.82-1.07-0.82-1.8v-2.2c0-2.53-0.68-4.53-2.04-5.99c-1.36-1.46-3.39-1.95-6.11-1.47
			c-2.72,0.48-4.75,1.62-6.11,3.43s-2.04,4.11-2.04,6.91v0.96H533.4z"/>
		<path class="st3" d="M599.74,597.82c0.13-0.82,0.52-1.57,1.16-2.25c0.65-0.68,1.36-1.09,2.13-1.23l6.21-1.09
			c0.71-0.13,1.29-0.01,1.75,0.34c0.45,0.35,0.68,0.9,0.68,1.63c0,0.13-0.07,0.55-0.19,1.23l-11.83,67.29
			c-0.13,0.62-0.45,1.18-0.97,1.67c-0.52,0.49-1.1,0.79-1.75,0.91l-15.32,2.7c-0.65,0.11-1.23,0.02-1.75-0.29s-0.84-0.75-0.97-1.33
			l-11.83-63.11c-0.13-0.64-0.19-1.03-0.19-1.17c0-0.73,0.23-1.36,0.68-1.87s1.03-0.83,1.75-0.96l6.21-1.09
			c0.78-0.14,1.49,0.02,2.13,0.47c0.65,0.45,1.03,1.07,1.16,1.84l10.47,57.15L599.74,597.82z"/>
		<path class="st3" d="M618.75,594.37c0-0.73,0.27-1.43,0.82-2.09c0.55-0.66,1.2-1.06,1.97-1.2l6.25-1.1
			c0.77-0.14,1.43,0.03,1.97,0.5s0.82,1.07,0.82,1.81v65.3c0,0.73-0.27,1.43-0.82,2.09c-0.55,0.66-1.2,1.06-1.97,1.2l-6.25,1.1
			c-0.77,0.14-1.43-0.03-1.97-0.5c-0.55-0.47-0.82-1.07-0.82-1.81V594.37z"/>
		<path class="st3" d="M640.08,650.61c0-2,0.11-3.4,0.34-4.21c0.22-0.8,0.6-1.65,1.11-2.55l27.25-50.01l-23.86,4.21
			c-0.71,0.13-1.34-0.05-1.89-0.52c-0.55-0.47-0.82-1.11-0.82-1.9v-5.3c0-0.8,0.27-1.53,0.82-2.2c0.55-0.66,1.18-1.06,1.89-1.18
			l35.11-6.19c0.71-0.13,1.34,0.05,1.89,0.52c0.55,0.47,0.82,1.11,0.82,1.9v5.2c0,0.93-0.03,1.77-0.1,2.52
			c-0.06,0.75-0.29,1.49-0.68,2.22l-28.32,52.09l26.48-4.67c0.71-0.13,1.34,0.05,1.89,0.52c0.55,0.47,0.82,1.1,0.82,1.9v5.3
			c0,0.8-0.28,1.53-0.82,2.2c-0.55,0.66-1.18,1.06-1.89,1.18l-37.34,6.58c-0.71,0.13-1.34-0.05-1.89-0.52
			c-0.55-0.47-0.82-1.1-0.82-1.91v-5.18H640.08z"/>
		<path class="st3" d="M689.93,641.82c0-2,0.11-3.4,0.34-4.21c0.23-0.81,0.6-1.66,1.12-2.55l27.25-50.01l-23.86,4.21
			c-0.71,0.13-1.34-0.05-1.89-0.52c-0.55-0.47-0.82-1.1-0.82-1.91v-5.3c0-0.8,0.27-1.53,0.82-2.2c0.55-0.66,1.18-1.06,1.89-1.18
			l35.11-6.19c0.71-0.13,1.34,0.05,1.89,0.52c0.55,0.47,0.82,1.1,0.82,1.9v5.2c0,0.93-0.03,1.77-0.1,2.52
			c-0.06,0.75-0.29,1.49-0.68,2.22l-28.32,52.09l26.48-4.67c0.71-0.13,1.34,0.05,1.89,0.52c0.55,0.47,0.82,1.1,0.82,1.9v5.3
			c0,0.8-0.28,1.53-0.82,2.2c-0.55,0.66-1.18,1.06-1.89,1.18l-37.34,6.58c-0.71,0.13-1.34-0.05-1.89-0.52
			c-0.55-0.47-0.82-1.1-0.82-1.91V641.82z"/>
		<path class="st3" d="M743.93,640.4c-0.77,0.14-1.43-0.03-1.97-0.5c-0.55-0.47-0.82-1.07-0.82-1.81v-65.3
			c0-0.73,0.27-1.43,0.82-2.09c0.54-0.66,1.2-1.06,1.97-1.2l29.8-5.25c0.71-0.13,1.34,0.05,1.89,0.52c0.55,0.47,0.82,1.11,0.82,1.9
			v4.8c0,0.8-0.28,1.53-0.82,2.2c-0.55,0.66-1.18,1.06-1.89,1.18l-20.75,3.66v17.6l17.85-3.15c0.71-0.13,1.34,0.05,1.89,0.53
			c0.55,0.47,0.83,1.12,0.83,1.92v4.74c0,0.81-0.28,1.55-0.83,2.22s-1.18,1.07-1.89,1.19l-17.85,3.15v21.5l21.24-3.74
			c0.71-0.13,1.34,0.05,1.89,0.52c0.55,0.47,0.82,1.1,0.82,1.9v4.8c0,0.8-0.28,1.53-0.82,2.2c-0.55,0.66-1.18,1.06-1.89,1.18
			L743.93,640.4z"/>
		<path class="st3" d="M797.39,600.57v27.6c0,0.73-0.27,1.43-0.82,2.09c-0.55,0.66-1.2,1.06-1.97,1.2l-6.25,1.1
			c-0.77,0.14-1.43-0.03-1.97-0.5c-0.55-0.47-0.82-1.07-0.82-1.81v-65.3c0-0.73,0.28-1.43,0.83-2.1c0.55-0.66,1.21-1.06,1.99-1.2
			l23.66-4.17c1.87-0.33,3.57-0.28,5.09,0.15c1.52,0.43,2.81,1.15,3.88,2.17c1.07,1.01,1.89,2.25,2.47,3.71
			c0.58,1.46,0.87,3.06,0.87,4.79v10c0,3.2-0.6,6.06-1.79,8.57c-1.2,2.51-3.38,4.21-6.55,5.1c1.94-0.14,3.52,0.1,4.75,0.71
			c1.23,0.62,2.21,1.49,2.96,2.63c0.74,1.14,1.24,2.48,1.5,4.04c0.26,1.55,0.39,3.17,0.39,4.83v19c0,0.73-0.28,1.43-0.82,2.09
			c-0.55,0.66-1.21,1.06-1.99,1.2l-6.3,1.11c-0.78,0.14-1.44-0.03-1.99-0.5s-0.83-1.07-0.83-1.8v-21c0-2-0.63-3.49-1.9-4.46
			c-1.27-0.98-2.88-1.29-4.83-0.95L797.39,600.57z M813.39,573.95c0-1.93-0.59-3.4-1.76-4.39s-2.73-1.32-4.68-0.97l-9.56,1.69v20.1
			l9.56-1.69c1.95-0.34,3.51-1.22,4.68-2.63c1.17-1.41,1.76-3.11,1.76-5.11V573.95z"/>
		<path class="st3" d="M861.59,548.75c0.58-0.1,1.07-0.02,1.46,0.24c0.39,0.27,0.65,0.65,0.78,1.16l14.65,62.72
			c0.13,0.38,0.21,0.73,0.24,1.06c0.03,0.33,0.05,0.53,0.05,0.59c0,0.53-0.19,1.05-0.58,1.55s-0.91,0.81-1.55,0.92l-7.18,1.26
			c-0.58,0.1-1.05-0.03-1.41-0.4s-0.6-0.84-0.73-1.42l-2.91-12.09l-18.62,3.28l-2.91,13.11c-0.13,0.62-0.37,1.18-0.73,1.68
			s-0.83,0.8-1.41,0.9l-7.18,1.26c-0.65,0.12-1.16-0.01-1.55-0.38c-0.39-0.36-0.58-0.81-0.58-1.35c0-0.07,0.01-0.27,0.05-0.61
			c0.03-0.34,0.11-0.72,0.24-1.14l14.64-67.88c0.13-0.56,0.39-1.03,0.78-1.44c0.39-0.4,0.87-0.65,1.46-0.76L861.59,548.75z
			 M855.09,562.39l-7.08,34.45l14.16-2.5L855.09,562.39z"/>
	</g>
</g>
</svg>
