<svg xmlns="http://www.w3.org/2000/svg" viewBox="0 0 847.99 419.19"><defs><style>.cls-1{fill:#081111;}.cls-2{fill:#beda33;}.cls-3{fill:#5799d0;}.cls-4{fill:#fff;}</style></defs><title>Element 2</title><g id="Ebene_2" data-name="Ebene 2"><g id="Ebene_1-2" data-name="Ebene 1"><path class="cls-1" d="M72,321.12c0,43.1-12.35,52.75-35.59,56.84C15.29,381.69,2,371.61,2,349.12v-3.37L23,342c-.47,8.72,2.95,17.66,13.86,15.75C51.45,355.18,50,340.83,50,329.8V309.69l-.48.08c-3,10.35-10.25,18.58-20.94,20C.72,334.65,0,293.83,0,273.24c0-19.39-.47-63.13,28.09-68.17,11.65-2,16.77,3.77,21.43,12.53L50,217V203.15l22-3.91ZM36,223.79c-15.08,2.65-13.68,35.47-13.68,44.1,0,9.1-1.4,43.09,14.39,40.31S50.16,274,50.16,264.15,50.17,221.28,36,223.79Z"/><path class="cls-1" d="M114,206.68l.31-.08c5.11-11.42,12.69-19,24.69-21.14v22.27l-3.67.41C119,211,114,221.26,114,236.58v76.14l-22,3.89V195.69l22-3.85Z"/><path class="cls-1" d="M176.65,180.83l-.08,75.65c0,10.78-1.42,26.83,13.44,24.21,14.63-2.58,13-16.89,13-27.66V176.15l21.82-3.84,0,81.65c0,24.91-7,42.46-33.72,47.16C159.24,306.74,155,289.07,155,261.55V184.67Z"/><path class="cls-1" d="M266.83,178.79l.44-.09c4.88-10.68,12.09-17.92,23.7-20,23.21-4.09,23.91,17.09,23.92,35.52l0,83.09L293,281.2V197.62c0-8.39-1.28-18.91-12.89-16.87C265.7,183.28,267,200.08,267,210.39v75.43l-22,3.84V168.74l21.82-3.85Z"/><path class="cls-1" d="M357,270l-22,3.86V75.09l22-3.84Z"/><path class="cls-1" d="M373.17,109.52A18.35,18.35,0,0,1,387.8,92.08c7.66-1.35,14.39,4.17,14.39,12.32,0,8.38-6.72,16.26-14.39,17.61C379.68,123.45,373.17,117.89,373.17,109.52ZM398,262.6l-21,3.86V145.53l21-3.85Z"/><path class="cls-1" d="M418.33,60.35,440,56.5v91.22l.62-.08c4.4-10.11,9.83-17,20.95-19,27.64-4.85,28.38,35.71,28.37,55.85,0,19.6-.43,64-27.62,68.79-12.53,2.22-17.29-3.9-21.71-13.68l-.61.08v15.57l-21.75,3.85Zm49.34,129.46c0-9.82,1.87-42.47-14.38-39.6-14.64,2.58-13.72,35-13.72,44.56s-.92,42.31,13.72,40C469.54,231.64,467.67,199.64,467.67,189.81Z"/><path class="cls-1" d="M525.71,184.13c0,10.06-.45,37.92,13.71,35.42,11.61-2.06,13.71-15.57,13.72-24.93l20.19-3.56c0,22.28-9.52,44.3-34.12,48.63-32.75,5.78-35.78-29.6-35.78-55.22,0-24.65,2.79-63.7,35.05-69.4,31.83-5.6,35.51,32,35.51,57v3.57Zm26-20.64c0-9.33,0-30.64-13.23-28.31-13.71,2.42-12.78,23.56-12.78,32.91Z"/><path class="cls-1" d="M612.59,118.77l.49-.07c5.11-11.43,12.91-19,24.91-21.14v22.25l-3.68.42C618.05,123.1,613,133.33,613,148.68v76.14l-22,3.88V107.78l21.7-3.85Z"/><path class="cls-1" d="M697,194.38l-.44.1c-4.4,11.31-9,19.06-21.56,21.29-27.16,4.78-27.63-39.45-27.64-59.06,0-20.13.71-60.94,28.34-65.82,10.23-1.81,16.92,3.48,20.86,11.64l.44-.08V89l21.85-3.85V206.11L697,209.94Zm.76-45.13c0-9.58.94-42.31-13.69-39.73-16.26,2.87-14.41,34.86-14.41,44.69,0,10-1.86,42.7,14.41,39.83C698.69,191.47,697.75,158.83,697.75,149.25Z"/><path class="cls-1" d="M760.76,198.74,739,202.58V3.85L760.8,0Z"/><path class="cls-1" d="M799.7,135.82c0,10.07-.48,37.92,13.69,35.42,11.62-2.06,13.7-15.58,13.7-24.92l20.22-3.57c0,22.28-9.52,44.31-34.13,48.64-32.75,5.79-35.77-29.62-35.77-55.23,0-24.65,2.78-63.7,35.06-69.39,31.8-5.61,35.52,32,35.52,57v3.59Zm26-20.63c0-9.35,0-30.65-13.23-28.31-13.71,2.4-12.78,23.55-12.78,32.91Z"/><path class="cls-2" d="M262.83,60.22c-6.2,1.08-9,.57-16.36,1.82-23.11,3.9-47.36,11.54-60.4,30.57-17.12,25.07-22.75,67.16-40.48,82,11.82-5.59,18.91-19.5,40.11-25.35,16-4.38,32.37-5.32,46.23-18.26C246.1,117.65,253,96.55,256.27,78.74c1.09-7.33,2.35-12.17,6.71-18.54ZM247.6,73.41c-10.24,9.74-26.87,27.38-36,36.52-18.48,18.45-55.1,55.13-55.1,55.13-.2.18-3.93,4.29-4.16,4-.39-.47,3.8-4.52,7-8.08,0,0,35.21-38.69,49.65-53.26,18.05-18.15,35-33.42,35-33.42C257.94,61.84,261.67,61,261.67,61S256.42,65,247.6,73.41Z"/><path class="cls-1" d="M6.2,113.57a3.7,3.7,0,0,1-4.47-3.8A5.58,5.58,0,0,1,6.2,104.5a3.64,3.64,0,0,1,4.35,3.72A5.59,5.59,0,0,1,6.2,113.57ZM9,188.5l-6,1V123.77l6-1Z"/><path class="cls-1" d="M23,120.23v30.18c0,6.53.58,12.85,6.42,11.82s6.58-7.47,6.58-14V118l6-1V152.3c0,8-4.14,14.14-12.5,15.63S17,164.73,17,156.6V121.28Z"/><path class="cls-1" d="M55.9,118.32A14.84,14.84,0,0,1,65,112.08c8.29-1.45,9,6.29,9,12.86v34.38l-6,1.05V126.63c0-5.72-.23-10-5.15-9.18-6.72,1.19-6.85,8.81-6.85,13.89v31.19l-6,1.05V115.52l5.91-1Z"/><path class="cls-1" d="M106.71,155.35c0,9-.13,17.41-11.95,19.5C86.59,176.29,83,171.9,83,163.64v-1.76l5-1v.84c0,4.5,1.49,8.32,6.58,7.42,6.65-1.17,6.42-7.08,6.42-12.23v-5.62A11.83,11.83,0,0,1,93.3,156c-11.62,2-11.89-14.5-11.89-23,0-8.07.89-23.87,11.69-25.78a7.66,7.66,0,0,1,7.63,2.7l.26,0v-3.27l5.82-1Zm-11.92-4.63c6.26-1.12,6.55-10.62,6.55-21.12,0-8.81-.55-18.84-7-17.7-4.27.76-6.88,4.22-6.91,21.84C87.42,139,87.34,152,94.79,150.72Z"/><path class="cls-1" d="M120,128.51v1.41c0,4.78.66,16.26,7.12,15.13,5.18-.92,5.85-8.57,5.84-12.39l6.05-1.08c-.08,7.33-2.84,17.55-11.49,19.07-12.26,2.17-13.88-12.53-13.9-22.17,0-8.64,1.82-25.26,13.1-27.26,10.89-1.92,12.6,12.48,12.6,20.93l.17,2.91ZM133.33,121l-.09-.83c-.18-4.56-.35-14.28-6.54-13.18-5.64,1-6.92,12.1-6.92,16.41Z"/><polygon class="cls-3" points="444.56 295.54 444.56 419.19 847.99 348.06 847.99 224.41 444.56 295.54"/><path class="cls-4" d="M505.22,317.94a3.23,3.23,0,0,1,.82-2.1,3.32,3.32,0,0,1,2-1.2l6.21-1.1a2.36,2.36,0,0,1,2,.5,2.28,2.28,0,0,1,.82,1.81v50.6a23.31,23.31,0,0,1-1.55,8.62,21.89,21.89,0,0,1-4.27,6.86,24.23,24.23,0,0,1-6.35,4.87,26.26,26.26,0,0,1-7.81,2.67,22.1,22.1,0,0,1-7.81.08,15.37,15.37,0,0,1-6.35-2.63,13.36,13.36,0,0,1-4.27-5.35,19.28,19.28,0,0,1-1.55-8.08V322.9a3.23,3.23,0,0,1,.82-2.1,3.28,3.28,0,0,1,2-1.2l6.21-1.1a2.33,2.33,0,0,1,2,.5,2.29,2.29,0,0,1,.82,1.81v50.6a7.87,7.87,0,0,0,2.23,6,6.49,6.49,0,0,0,5.92,1.45,9.2,9.2,0,0,0,5.91-3.54,10.78,10.78,0,0,0,2.23-6.79v-50.6Z"/><path class="cls-4" d="M559.72,308.42a3.22,3.22,0,0,1,.82-2.09,3.28,3.28,0,0,1,2-1.2l6.26-1.1a2.25,2.25,0,0,1,2,.5,2.29,2.29,0,0,1,.82,1.81v65.2a3.58,3.58,0,0,1-2.82,3.29l-8,1.4a2,2,0,0,1-2-.49,9.42,9.42,0,0,1-1.06-1.76l-18.92-41v44.3a3.54,3.54,0,0,1-2.78,3.29l-6.26,1.1a2.32,2.32,0,0,1-2.79-2.31V314.1a3.58,3.58,0,0,1,2.82-3.29l8-1.41a2,2,0,0,1,2,.5,8.93,8.93,0,0,1,1.07,1.76l18.91,41Z"/><path class="cls-4" d="M581.93,304.41a3.26,3.26,0,0,1,.82-2.1,3.19,3.19,0,0,1,2-1.19L591,300a2.31,2.31,0,0,1,2,.51,2.28,2.28,0,0,1,.81,1.8v65.3a3.29,3.29,0,0,1-.81,2.1,3.24,3.24,0,0,1-2,1.19L584.72,372a2.33,2.33,0,0,1-2.79-2.31Z"/><path class="cls-4" d="M624.6,365a2.26,2.26,0,0,1-2-.49,2.3,2.3,0,0,1-.83-1.81v-65.3a3.58,3.58,0,0,1,2.81-3.3l22.79-4a10.67,10.67,0,0,1,5,.22,9.39,9.39,0,0,1,3.88,2.27,11.36,11.36,0,0,1,2.52,3.75,11.79,11.79,0,0,1,.92,4.59v9.3a15.09,15.09,0,0,1-1.69,7.05,12.94,12.94,0,0,1-5.39,5.3,9.45,9.45,0,0,1,4.41,1,8.26,8.26,0,0,1,2.87,2.55,10,10,0,0,1,1.5,3.58,19.13,19.13,0,0,1,.44,4v11.6a14.89,14.89,0,0,1-.88,4.9,16.23,16.23,0,0,1-2.52,4.64,17.09,17.09,0,0,1-3.93,3.7,13.14,13.14,0,0,1-5.19,2.06Zm24.25-58.47a5.43,5.43,0,0,0-1.75-4.39,5.33,5.33,0,0,0-4.65-1l-9,1.59v19l9-1.59a7.56,7.56,0,0,0,4.65-2.62,7.73,7.73,0,0,0,1.75-5.11Zm-15.42,46.82,9.6-1.7a7.51,7.51,0,0,0,4.66-2.62,7.73,7.73,0,0,0,1.74-5.1v-8.7a5.58,5.58,0,0,0-1.74-4.49,5.36,5.36,0,0,0-4.66-1l-9.6,1.69Z"/><path class="cls-4" d="M697.34,281.26a1.91,1.91,0,0,1,1.46.24,2,2,0,0,1,.77,1.17l14.65,62.71a4.56,4.56,0,0,1,.24,1.06c0,.33,0,.52,0,.59a2.47,2.47,0,0,1-.58,1.55,2.44,2.44,0,0,1-1.55.93l-7.18,1.26a1.47,1.47,0,0,1-1.41-.4,3,3,0,0,1-.73-1.42l-2.91-12.09-18.62,3.29-2.91,13.11a4.51,4.51,0,0,1-.72,1.68,2.17,2.17,0,0,1-1.41.9l-7.18,1.26a1.71,1.71,0,0,1-1.55-.37,1.79,1.79,0,0,1-.58-1.35c0-.07,0-.27.05-.61a5.55,5.55,0,0,1,.24-1.14l14.64-67.89a3,3,0,0,1,.78-1.43,2.59,2.59,0,0,1,1.46-.76Zm-10.28-8.09a3.38,3.38,0,0,1-.77,2.09,3,3,0,0,1-1.85,1.17l-6.79,1.2a2.06,2.06,0,0,1-1.84-.52,2.35,2.35,0,0,1-.77-1.82v-5.5a3.29,3.29,0,0,1,.77-2.08,3,3,0,0,1,1.84-1.18l6.79-1.2a2.11,2.11,0,0,1,1.85.53,2.36,2.36,0,0,1,.77,1.81Zm3.78,21.73-7.08,34.45,14.16-2.49Zm15.52-25.13a3.38,3.38,0,0,1-.77,2.09,3,3,0,0,1-1.85,1.17l-6.79,1.2a2.06,2.06,0,0,1-1.84-.53,2.34,2.34,0,0,1-.78-1.81v-5.5a3.33,3.33,0,0,1,.78-2.09,3,3,0,0,1,1.84-1.17l6.79-1.2a2.07,2.07,0,0,1,1.85.52,2.4,2.4,0,0,1,.77,1.82Z"/><path class="cls-4" d="M733.52,315.38V343a3.27,3.27,0,0,1-.82,2.09,3.19,3.19,0,0,1-2,1.2l-6.26,1.11a2.29,2.29,0,0,1-2-.51,2.26,2.26,0,0,1-.82-1.8v-65.3a3.24,3.24,0,0,1,.83-2.1,3.3,3.3,0,0,1,2-1.2l23.66-4.17a11.34,11.34,0,0,1,5.09.15,9.19,9.19,0,0,1,3.88,2.16,10.47,10.47,0,0,1,2.48,3.72,12.89,12.89,0,0,1,.87,4.8v10a19.6,19.6,0,0,1-1.8,8.56,9.7,9.7,0,0,1-6.54,5.11,9,9,0,0,1,4.75.71,7.52,7.52,0,0,1,3,2.63,10.43,10.43,0,0,1,1.5,4,29.34,29.34,0,0,1,.39,4.83v19a3.58,3.58,0,0,1-2.81,3.3l-6.31,1.11a2.27,2.27,0,0,1-2-.5,2.24,2.24,0,0,1-.83-1.8v-21a5.32,5.32,0,0,0-1.9-4.47,5.91,5.91,0,0,0-4.83-.95Zm16-26.62a5,5,0,0,0-6.44-5.37l-9.57,1.69v20.1l9.57-1.69a7.58,7.58,0,0,0,4.68-2.62,7.74,7.74,0,0,0,1.76-5.11Z"/><path class="cls-4" d="M803.44,265.45a3.22,3.22,0,0,1,.82-2.09,3.16,3.16,0,0,1,2-1.2l6.25-1.1a2.31,2.31,0,0,1,2.79,2.31v65.19a3.23,3.23,0,0,1-.82,2.1,3.3,3.3,0,0,1-2,1.2l-8,1.4a2,2,0,0,1-2-.49,9.22,9.22,0,0,1-1.06-1.76l-18.92-41v44.3a3.51,3.51,0,0,1-2.79,3.29l-6.25,1.11a2.32,2.32,0,0,1-2.79-2.31v-65.3a3.58,3.58,0,0,1,2.82-3.3l7.95-1.4a2,2,0,0,1,2,.49,9.56,9.56,0,0,1,1.07,1.76l18.91,41v-44.2Z"/></g></g></svg>