<svg id="Ebene_1" data-name="Ebene 1" xmlns="http://www.w3.org/2000/svg" viewBox="0 0 848.15 378.74"><defs><style>.cls-1{fill:#1d1d1b;}.cls-2{fill:#aac811;}.cls-3{fill:#0f9cd8;}.cls-4{fill:#fff;}</style></defs><g id="Ebene_2" data-name="Ebene 2"><g id="Ebene_1-2" data-name="Ebene 1-2"><path class="cls-1" d="M72,321.11c0,43.11-12.37,52.76-35.6,56.89C15.28,381.69,2,371.6,2,349.12v-3.37L23,342c-.47,8.72,2.95,17.66,13.86,15.75C51.45,355.18,50,340.83,50,329.8V309.69l-.48.08c-3,10.35-10.25,18.58-20.94,20C.72,334.65,0,293.83,0,273.24c0-19.39-.47-63.13,28.09-68.17,11.65-2,16.77,3.77,21.43,12.53L50,217V203.15l22-3.9ZM36,223.79c-15.08,2.65-13.68,35.47-13.68,44.1,0,9.1-1.4,43.09,14.39,40.31S50.15,274,50.15,264.15,50.16,221.29,36,223.79Z" transform="translate(0 0)"/><path class="cls-1" d="M114,206.67l.31-.07c5.11-11.43,12.69-19,24.69-21.14v22.27l-3.67.41C119,211,114,221.26,114,236.58v76.14l-22,3.89V195.69l22-3.85Z" transform="translate(0 0)"/><path class="cls-1" d="M176.65,180.83l-.08,75.65c0,10.79-1.42,26.84,13.44,24.21,14.63-2.58,13-16.89,13-27.66V176.15l21.82-3.84V254c0,24.91-7,42.46-33.72,47.16C159.24,306.73,155,289.07,155,261.55V184.67Z" transform="translate(0 0)"/><path class="cls-1" d="M266.83,178.79l.44-.09c4.88-10.68,12.09-17.92,23.7-20,23.21-4.09,23.91,17.09,23.92,35.52v83.09L293,281.2V197.62c0-8.39-1.28-18.91-12.89-16.86C265.7,183.29,267,200.08,267,210.39v75.43l-22,3.84V168.74l21.82-3.85Z" transform="translate(0 0)"/><path class="cls-1" d="M357,270l-22,3.86V75.09l22-3.84Z" transform="translate(0 0)"/><path class="cls-1" d="M373.17,109.52A18.34,18.34,0,0,1,387.8,92.08c7.66-1.35,14.39,4.17,14.39,12.32,0,8.38-6.72,16.26-14.39,17.61C379.68,123.45,373.17,117.89,373.17,109.52ZM398,262.6l-21,3.86V145.53l21-3.85Z" transform="translate(0 0)"/><path class="cls-1" d="M418.33,60.35,440,56.5v91.22l.62-.08c4.4-10.11,9.83-17,20.95-19,27.64-4.85,28.38,35.71,28.37,55.85,0,19.6-.43,64-27.62,68.79-12.53,2.22-17.29-3.9-21.71-13.68l-.61.08v15.57l-21.75,3.86Zm49.34,129.46c0-9.82,1.87-42.47-14.39-39.6-14.63,2.58-13.71,35-13.71,44.56s-.92,42.31,13.71,40c16.26-3.13,14.39-35.13,14.39-45Z" transform="translate(0 0)"/><path class="cls-1" d="M525.7,184.13c0,10.06-.44,37.92,13.72,35.41,11.61-2,13.71-15.57,13.72-24.92l20.19-3.56c0,22.28-9.52,44.3-34.12,48.63-32.76,5.78-35.78-29.6-35.78-55.22,0-24.65,2.79-63.7,35.05-69.4,31.83-5.6,35.51,32,35.51,57v3.57Zm26-20.64c0-9.33,0-30.64-13.23-28.31-13.71,2.42-12.78,23.55-12.78,32.91Z" transform="translate(0 0)"/><path class="cls-1" d="M612.59,118.77l.49-.07c5.11-11.43,12.91-19,24.91-21.15v22.26l-3.68.42C618.05,123.1,613,133.33,613,148.68v76.14l-22,3.88V107.78l21.7-3.85Z" transform="translate(0 0)"/><path class="cls-1" d="M697,194.38l-.44.1c-4.4,11.31-9,19.06-21.56,21.28-27.16,4.79-27.63-39.44-27.64-59,0-20.13.71-60.94,28.34-65.82,10.23-1.81,16.92,3.48,20.86,11.64l.44-.09V89l21.85-3.85v121L697,209.94Zm.76-45.13c0-9.58.94-42.31-13.69-39.73-16.26,2.87-14.41,34.86-14.41,44.69,0,10-1.86,42.7,14.41,39.83,14.62-2.57,13.68-35.21,13.68-44.79Z" transform="translate(0 0)"/><path class="cls-1" d="M760.76,198.73,739,202.58V3.85L760.8,0Z" transform="translate(0 0)"/><path class="cls-1" d="M799.7,135.82c0,10.07-.48,37.92,13.69,35.42,11.61-2.06,13.7-15.58,13.7-24.92l20.22-3.57c0,22.28-9.52,44.31-34.13,48.64-32.75,5.78-35.77-29.62-35.77-55.23,0-24.65,2.78-63.7,35.06-69.39,31.8-5.61,35.52,32,35.52,57v3.58Zm26-20.63c0-9.35,0-30.65-13.22-28.32-13.71,2.42-12.78,23.56-12.78,32.92Z" transform="translate(0 0)"/><path class="cls-2" d="M262.83,60.22c-6.2,1.08-9,.57-16.36,1.82-23.11,3.9-47.37,11.54-60.4,30.57-17.12,25.06-22.75,67.15-40.48,82,11.82-5.59,18.91-19.5,40.11-25.35,16-4.38,32.37-5.32,46.23-18.26C246.1,117.65,253,96.55,256.27,78.74c1.09-7.33,2.35-12.17,6.71-18.55ZM247.6,73.41c-10.24,9.74-26.87,27.38-36,36.52-18.48,18.45-55.1,55.13-55.1,55.13-.2.18-3.93,4.29-4.16,4-.4-.47,3.8-4.52,7-8.08,0,0,35.21-38.69,49.65-53.25,18-18.16,35-33.43,35-33.43C257.94,61.84,261.67,61,261.67,61S256.42,65,247.6,73.41Z" transform="translate(0 0)"/><path class="cls-1" d="M6.2,113.57a3.69,3.69,0,0,1-4.39-2.84,3.54,3.54,0,0,1-.08-1A5.57,5.57,0,0,1,6.2,104.5a3.64,3.64,0,0,1,4.28,2.86,3.53,3.53,0,0,1,.07.86A5.59,5.59,0,0,1,6.2,113.57ZM9,188.5l-6,1V123.77l6-1Z" transform="translate(0 0)"/><path class="cls-1" d="M23,120.23v30.18c0,6.53.58,12.85,6.42,11.82s6.58-7.47,6.58-14V118l6-1v35.3c0,8-4.14,14.14-12.5,15.63S17,164.73,17,156.6V121.28Z" transform="translate(0 0)"/><path class="cls-1" d="M55.9,118.32a14.75,14.75,0,0,1,9.1-6.24c8.29-1.45,9,6.29,9,12.86v34.38l-6,1.05V126.63c0-5.72-.23-10-5.15-9.18-6.72,1.19-6.85,8.81-6.85,13.88v31.2l-6,1.05V115.52l5.91-1Z" transform="translate(0 0)"/><path class="cls-1" d="M106.71,155.35c0,9-.13,17.41-11.95,19.5C86.59,176.29,83,171.9,83,163.64v-1.76l5-1v.84c0,4.5,1.49,8.32,6.58,7.42,6.65-1.17,6.42-7.07,6.42-12.23v-5.62A11.8,11.8,0,0,1,93.3,156c-11.62,2-11.89-14.5-11.89-23,0-8.07.89-23.86,11.69-25.78a7.65,7.65,0,0,1,7.63,2.7H101v-3.27l5.82-1Zm-11.92-4.63c6.26-1.12,6.55-10.62,6.55-21.12,0-8.81-.55-18.84-7-17.7-4.27.76-6.88,4.22-6.91,21.84C87.42,139,87.34,152,94.79,150.72Z" transform="translate(0 0)"/><path class="cls-1" d="M120,128.51v1.41c0,4.78.66,16.26,7.12,15.13,5.18-.92,5.85-8.57,5.84-12.39l6-1.08c-.08,7.33-2.84,17.55-11.49,19.07-12.26,2.17-13.88-12.53-13.9-22.17,0-8.64,1.81-25.26,13.09-27.26,10.9-1.92,12.61,12.48,12.61,20.93l.17,2.91ZM133.32,121l-.08-.83c-.18-4.55-.35-14.28-6.54-13.18-5.64,1-6.92,12.1-6.92,16.41Z" transform="translate(0 0)"/></g><polygon class="cls-3" points="848.15 336.29 668.34 366.89 668.34 243.56 848.15 212.96 848.15 336.29"/><path class="cls-4" d="M723.09,331.12q-8.22,1.39-12.79-.73a11.78,11.78,0,0,1-6.31-7.22,39.23,39.23,0,0,1-1.74-12.58V262.25L715.41,260v49.84a40.41,40.41,0,0,0,.46,6.23,7.14,7.14,0,0,0,2.15,4.39c1.12,1,2.81,1.33,5.07.95a7.85,7.85,0,0,0,5.16-2.69,11.23,11.23,0,0,0,2.11-5.12,39.79,39.79,0,0,0,.5-6.39V257.38l13.07-2.22v48.33a45.12,45.12,0,0,1-1.74,13.18,19,19,0,0,1-6.26,9.36C732.92,328.48,728.63,330.18,723.09,331.12Z" transform="translate(0 0)"/><path class="cls-4" d="M754.53,324.8V253.35l17.73-3a39.31,39.31,0,0,1,12.65-.44,11.53,11.53,0,0,1,7.86,4.53q2.7,3.69,2.7,10.83a35.17,35.17,0,0,1-.82,7.9,17.6,17.6,0,0,1-2.79,6.34,16,16,0,0,1-5.44,4.68l10.33,33.44-13.53,2.3-9-31.2-6.22,1V322.5Zm13.52-43.23,4.21-.72a16.73,16.73,0,0,0,6.26-2.16,8.35,8.35,0,0,0,3.33-4.1,17.77,17.77,0,0,0,1-6.39c0-3.58-.69-6.16-2.06-7.72s-4-2-7.81-1.36l-4.94.84Z" transform="translate(0 0)"/><path class="cls-4" d="M806,316V244.6l13.34-2.27v71.44Z" transform="translate(0 0)"/></g></svg>