<svg xmlns="http://www.w3.org/2000/svg" viewBox="0 0 848.12 367.94"><defs><style>.cls-1{fill:#010909;}.cls-2{fill:#b4dc00;}.cls-3{fill:#fff;}.cls-4{fill:#119cd4;}</style></defs><title>Element 3</title><g id="Ebene_2" data-name="Ebene 2"><g id="Ebene_1-2" data-name="Ebene 1"><path class="cls-1" d="M22.38,192.38l14.55,81.71.42-.07.65-6.73,7.91-46.41,6.64-33.82L72,183.63,43.56,300.06,30.29,302.4,1,196.16Z"/><path class="cls-1" d="M99.4,238.59c0,9.27-.43,34.93,12.62,32.63,10.7-1.88,12.63-14.36,12.63-23L143.26,245c0,20.51-8.77,40.81-31.45,44.81-30.17,5.32-32.95-27.28-32.95-50.89,0-22.72,2.56-58.69,32.31-63.94,29.31-5.17,32.73,29.53,32.73,52.47v3.31Zm24-19c0-8.6,0-28.24-12.19-26.09-12.63,2.23-11.77,21.72-11.77,30.32Z"/><path class="cls-1" d="M179.42,178.37l.42-.08c4.71-10.53,11.77-17.51,22.9-19.47v20.51l-3.43.38c-15,2.65-19.68,12.08-19.68,26.2v70.16l-20.33,3.58V168.24l20.12-3.55Z"/><path class="cls-1" d="M241,122.28v31.55l10.69-1.89v16.33L241,170.15v95.09l-20.12,3.55V173.7L210,175.63V159.3l10.91-1.92V125.82Z"/><path class="cls-1" d="M271.73,81.35l18.41-3.25-2.57,38.18-13.27,2.34Z"/><path class="cls-1" d="M340.2,247.76l-20.11,3.54V68.19l20.11-3.55Z"/><path class="cls-1" d="M355.39,99.91a16.91,16.91,0,0,1,13.48-16.06,11.15,11.15,0,0,1,13.27,11.34c0,7.72-6.21,15-13.27,16.24C361.38,112.75,355.39,107.63,355.39,99.91ZM378.71,241l-20.11,3.54V133.1l20.11-3.55Z"/><path class="cls-1" d="M397.11,54.61l20.11-3.55v84.06l.43-.08c4.07-9.32,9-15.7,19.26-17.52C462.37,113,463,150.43,463,169c0,18.09-.43,59-25.46,63.4-11.56,2-15.83-3.61-19.9-12.6l-.43.07v14.34l-20.11,3.55Zm45.36,119.3c0-9,1.71-39.14-13.26-36.49-13.49,2.37-12.63,32.23-12.63,41.05s-.86,39,12.63,36.82C444.18,212.43,442.47,183,442.47,173.91Z"/><path class="cls-1" d="M496,168.67c0,9.26-.42,34.93,12.63,32.63,10.7-1.89,12.62-14.36,12.62-23l18.62-3.29c0,20.52-8.78,40.82-31.45,44.82-30.17,5.32-33-27.28-33-50.89,0-22.72,2.57-58.7,32.31-63.94,29.32-5.17,32.74,29.52,32.74,52.47v3.31Zm24-19c0-8.61,0-28.24-12.2-26.09C495.1,125.8,496,145.28,496,153.88Z"/><path class="cls-1" d="M576,108.45l.43-.08c4.71-10.53,11.77-17.52,22.89-19.48v20.52l-3.42.38c-15,2.64-19.68,12.08-19.68,26.2v70.16l-20.33,3.58V98.31L576,94.77Z"/><path class="cls-1" d="M653.85,178.11l-.42.08c-4.07,10.42-8.35,17.57-19.91,19.61-25,4.41-25.46-36.32-25.46-54.42,0-18.53.64-56.15,26.11-60.64,9.41-1.66,15.62,3.2,19.26,10.73l.42-.08V81L674,77.49V188.9l-20.12,3.55Zm.65-41.59c0-8.83.85-39-12.63-36.6-15,2.64-13.26,32.12-13.26,41.17,0,9.26-1.71,39.35,13.26,36.7C655.36,175.42,654.5,145.34,654.5,136.52Z"/><path class="cls-1" d="M712.69,70.66v69.72c0,9.93-1.29,24.71,12.41,22.3,13.48-2.38,12-15.57,12-25.5V66.36l20.11-3.55v75.24c0,22.94-6.63,39.11-31.24,43.45-29.31,5.17-33.38-11.1-33.38-36.47V74.21Z"/><path class="cls-1" d="M792.92,56.52,808.11,92l5.13-17.45L822,51.38l21-3.69-24.4,56.81,29.53,53.7-23.75,4.18-10.69-22.16c-2.79-6.35-6-12.84-7.06-19.93l-.43.07c-.65,8.72-4.07,17.27-7.28,25.77l-8.56,22.25-21,3.7,27-63.66-27-47.76Z"/><path class="cls-2" d="M565.89,0c-5.63,1-8.17.53-14.8,1.65C530.18,5.2,508.24,12.1,496.47,29.33,481,52,475.89,90.06,459.84,103.51c10.7-5.06,17.12-17.64,36.3-22.92,14.42-4,29.27-4.82,41.77-16.53C550.74,52,557,32.9,560,16.78c1-6.62,2.11-11,6.07-16.78Z"/><path class="cls-3" d="M564.85.71s-3.38.78-16.05,12.07c0,0-15.37,13.82-31.68,30.25C504.05,56.2,472.2,91.18,472.2,91.18c-2.86,3.24-6.66,6.89-6.3,7.3.21.25,3.57-3.45,3.77-3.64,0,0,33.12-33.16,49.86-49.84,8.29-8.26,23.32-24.24,32.58-33C560.09,4.37,564.85.71,564.85.71Z"/><path class="cls-1" d="M7.81,105.22a5.05,5.05,0,0,1-3.95,4.68A3.28,3.28,0,0,1,0,106.51a4.73,4.73,0,0,1,3.86-4.57A3.2,3.2,0,0,1,7.81,105.22ZM6.49,118.65v59.88l-5.26.93V119.59Z"/><path class="cls-1" d="M17.72,139.65v1.45c0,9.86,2.63,14.64,6.75,13.91,3.33-.59,5.88-4.83,6.06-11.65l5-.88c-.44,9.84-4.92,16.06-11.15,17.16-7.8,1.38-11.75-5.35-11.75-20.09s4.65-23.61,12-24.91,11.4,5.5,11.4,20.33v1.45Zm7.1-20.16c-4,.72-6.75,6.08-7.1,15.73l13.42-2.37C31.05,123.37,28.6,118.83,24.82,119.49Z"/><path class="cls-1" d="M46.05,111.68v28.4c0,7.42,1.32,10.62,5.88,9.82s5.79-4.46,5.79-11.87V109.62l5.17-.91V138c0,10-3.16,15.39-11,16.76s-11-2.84-11-12.88V112.59Z"/><path class="cls-1" d="M75.88,106.42v4A11.34,11.34,0,0,1,84,104.46c6.22-1.1,8.51,3,8.51,12.33v30l-5.18.92V116.89c0-6.24-1-8.68-5.18-8s-6.22,4.81-6.22,12v28.86l-5.18.91V107.34Z"/><path class="cls-1" d="M103.07,124.6v1.45c0,9.86,2.63,14.64,6.75,13.91,3.34-.58,5.88-4.83,6.06-11.65l5-.88c-.44,9.85-4.92,16.06-11.14,17.16C101.93,146,98,139.25,98,124.5s4.65-23.61,12-24.91,11.41,5.5,11.4,20.33c0,.45,0,1,0,1.45Zm7.1-20.15c-4,.71-6.75,6.07-7.1,15.72l13.42-2.37C116.41,108.32,114,103.78,110.17,104.45Z"/><path class="cls-1" d="M132.46,135.79a7.92,7.92,0,0,0,6.57-7.94c0-3.89-2.8-5.66-7-8.62-4.92-3.48-8.07-6-8.07-11.42a12.57,12.57,0,0,1,17.8-11.47v5.52a8.51,8.51,0,0,0-6.93-2,7.17,7.17,0,0,0-6,6.93c0,3.62,2.54,5.25,6.32,7.84,5.43,3.74,8.86,6.4,8.86,12.28A13.84,13.84,0,0,1,132.8,140.7a11,11,0,0,1-8.33-1.69v-6.33C127.1,135.29,129.82,136.25,132.46,135.79Z"/><polygon class="cls-4" points="594.12 244.29 594.12 367.94 848.12 323.12 848.12 199.47 594.12 244.29"/><path class="cls-3" d="M656.15,262.52a4.22,4.22,0,0,1,1.16-2.25,3.9,3.9,0,0,1,2.14-1.23l6.2-1.09a2.12,2.12,0,0,1,1.75.34,2,2,0,0,1,.68,1.63,11.45,11.45,0,0,1-.2,1.23l-11.83,67.29a3.16,3.16,0,0,1-1,1.67,3.35,3.35,0,0,1-1.74.91L638,333.72a2.41,2.41,0,0,1-1.74-.29,2,2,0,0,1-1-1.33L623.46,269a11.37,11.37,0,0,1-.19-1.17A2.76,2.76,0,0,1,624,266a3,3,0,0,1,1.75-1l6.2-1.09a2.83,2.83,0,0,1,3.3,2.32l10.47,57.15Z"/><path class="cls-3" d="M701.73,251.59a1.91,1.91,0,0,1,1.46.24A2,2,0,0,1,704,253l14.65,62.72a4.56,4.56,0,0,1,.24,1.06c0,.33,0,.52,0,.59a2.55,2.55,0,0,1-.58,1.55,2.48,2.48,0,0,1-1.56.93l-7.17,1.26a1.48,1.48,0,0,1-1.41-.4,3,3,0,0,1-.73-1.42l-2.91-12.09-18.62,3.28L683,323.59a4.4,4.4,0,0,1-.72,1.67,2.13,2.13,0,0,1-1.41.9l-7.18,1.27a1.71,1.71,0,0,1-1.55-.38,1.75,1.75,0,0,1-.58-1.34c0-.07,0-.27,0-.61a5.77,5.77,0,0,1,.24-1.15l14.64-67.88a3.08,3.08,0,0,1,.78-1.44,2.57,2.57,0,0,1,1.46-.75Zm-6.5,13.64-7.08,34.45,14.16-2.5Z"/><path class="cls-3" d="M753.71,245.22a3.6,3.6,0,0,1,2.82-3.3l6.21-1.09a2.33,2.33,0,0,1,2.81,2.3v50.6a23.37,23.37,0,0,1-1.55,8.63,21.85,21.85,0,0,1-4.27,6.85,24,24,0,0,1-6.35,4.87,26.28,26.28,0,0,1-7.81,2.68,22.09,22.09,0,0,1-7.81.07,15.23,15.23,0,0,1-6.35-2.63,13.24,13.24,0,0,1-4.27-5.34,19.32,19.32,0,0,1-1.55-8.08v-50.6a3.26,3.26,0,0,1,.82-2.1,3.32,3.32,0,0,1,2-1.2l6.21-1.09a2.29,2.29,0,0,1,2,.5,2.26,2.26,0,0,1,.82,1.8v50.6a7.85,7.85,0,0,0,2.23,6,6.5,6.5,0,0,0,5.92,1.46,9.25,9.25,0,0,0,5.91-3.55,10.76,10.76,0,0,0,2.23-6.79Z"/><path class="cls-3" d="M815.2,289.48a12.81,12.81,0,0,1-1.11,5.15,18,18,0,0,1-3,4.67,18.82,18.82,0,0,1-4.27,3.61,14.1,14.1,0,0,1-5,1.93l-23.18,4.09a2.32,2.32,0,0,1-2-.5,2.26,2.26,0,0,1-.82-1.81v-65.3a3.55,3.55,0,0,1,2.81-3.29l23.18-4.09a11.44,11.44,0,0,1,5,.17,11.77,11.77,0,0,1,4.27,2.1,10.8,10.8,0,0,1,3,3.62,10.2,10.2,0,0,1,1.11,4.75Zm-12-38.48q0-3.5-1.71-5a5.29,5.29,0,0,0-4.64-1l-9.17,1.61v50.5l9.17-1.61a7.53,7.53,0,0,0,4.64-2.57,8.41,8.41,0,0,0,1.71-5.55Z"/></g></g></svg>