<svg id="Ebene_1" xmlns="http://www.w3.org/2000/svg" viewBox="0 0 847.99 387.98"><defs><style>.cls-1{fill:#139DD4;}.cls-2{fill:#fff;}.cls-3{fill:#081111;}.cls-4{fill:#beda33;}</style></defs><title>sdvdf</title><polygon class="cls-1" points="623.21 264.33 623.21 387.98 847.99 348.32 847.99 224.67 623.21 264.33"/><path class="cls-2" d="M1059.31,469.84a17.57,17.57,0,0,1,.34-4.21,11,11,0,0,1,1.11-2.55l27.26-50-23.86,4.21a2.19,2.19,0,0,1-1.89-.52,2.36,2.36,0,0,1-.83-1.91v-5.3a3.3,3.3,0,0,1,.83-2.19,3.15,3.15,0,0,1,1.89-1.19l35.11-6.19a2.21,2.21,0,0,1,1.89.52,2.38,2.38,0,0,1,.82,1.91v5.2c0,.93,0,1.77-.1,2.51a5.8,5.8,0,0,1-.67,2.22l-28.33,52.1,26.48-4.67a2.2,2.2,0,0,1,1.89.51,2.39,2.39,0,0,1,.83,1.91v5.3a3.35,3.35,0,0,1-.83,2.19,3.16,3.16,0,0,1-1.89,1.19L1062,477.46a2.17,2.17,0,0,1-1.89-.51,2.38,2.38,0,0,1-.82-1.91Z" transform="translate(-405.01 -121.99)"/><path class="cls-2" d="M1138.15,395.94a3.26,3.26,0,0,1,.83-2.1,3.3,3.3,0,0,1,2-1.2l6.21-1.09a2.33,2.33,0,0,1,2.81,2.3v50.6a23.31,23.31,0,0,1-1.55,8.62,21.78,21.78,0,0,1-4.27,6.86,24.23,24.23,0,0,1-6.35,4.87,26.26,26.26,0,0,1-7.81,2.67,22.1,22.1,0,0,1-7.81.08,15.23,15.23,0,0,1-6.35-2.63,13.29,13.29,0,0,1-4.27-5.35,19.27,19.27,0,0,1-1.55-8.07V400.9a3.25,3.25,0,0,1,.82-2.1,3.32,3.32,0,0,1,2-1.2l6.21-1.1a2.35,2.35,0,0,1,2,.5,2.29,2.29,0,0,1,.82,1.81v50.6a7.87,7.87,0,0,0,2.23,6,6.49,6.49,0,0,0,5.92,1.45,9.24,9.24,0,0,0,5.92-3.54,10.83,10.83,0,0,0,2.22-6.79Zm-11.53-10.57a3.37,3.37,0,0,1-.78,2.09,2.94,2.94,0,0,1-1.84,1.17l-6.79,1.2a2.07,2.07,0,0,1-1.85-.52,2.39,2.39,0,0,1-.77-1.82V382a3.33,3.33,0,0,1,.77-2.08,3,3,0,0,1,1.85-1.18l6.79-1.2a2.06,2.06,0,0,1,1.84.53,2.37,2.37,0,0,1,.78,1.81Zm19.29-3.4a3.38,3.38,0,0,1-.77,2.09,3,3,0,0,1-1.85,1.17l-6.78,1.2a2.07,2.07,0,0,1-1.85-.53,2.36,2.36,0,0,1-.77-1.81v-5.5a3.38,3.38,0,0,1,.77-2.09,3,3,0,0,1,1.85-1.17l6.78-1.2a2,2,0,0,1,1.85.53,2.36,2.36,0,0,1,.77,1.81Z" transform="translate(-405.01 -121.99)"/><path class="cls-2" d="M1172.2,427.63v27.61a3.56,3.56,0,0,1-2.79,3.29l-6.26,1.1a2.32,2.32,0,0,1-2.79-2.31V392a3.6,3.6,0,0,1,2.82-3.3l23.66-4.17a11.2,11.2,0,0,1,5.09.16,9.13,9.13,0,0,1,3.88,2.16,10.34,10.34,0,0,1,2.48,3.71,13,13,0,0,1,.87,4.8v10a19.64,19.64,0,0,1-1.8,8.57,9.66,9.66,0,0,1-6.54,5.1,9.16,9.16,0,0,1,4.75.71,7.6,7.6,0,0,1,3,2.63,10.48,10.48,0,0,1,1.5,4,29.16,29.16,0,0,1,.39,4.83v19a3.58,3.58,0,0,1-2.81,3.29l-6.31,1.12a2.33,2.33,0,0,1-2-.5,2.26,2.26,0,0,1-.82-1.81v-21a5.28,5.28,0,0,0-1.9-4.46,5.87,5.87,0,0,0-4.83-.95Zm16-26.62a5,5,0,0,0-6.44-5.36l-9.56,1.68v20.1l9.56-1.68a7.55,7.55,0,0,0,4.68-2.63,7.72,7.72,0,0,0,1.76-5.11Z" transform="translate(-405.01 -121.99)"/><path class="cls-2" d="M1209.82,383.3a3.27,3.27,0,0,1,.82-2.09,3.21,3.21,0,0,1,2-1.2l6.25-1.11a2.33,2.33,0,0,1,2.79,2.31v65.3a3.28,3.28,0,0,1-.82,2.1,3.22,3.22,0,0,1-2,1.19l-6.25,1.11a2.32,2.32,0,0,1-2.8-2.31Z" transform="translate(-405.01 -121.99)"/><path class="cls-3" d="M477,443.1c0,43.11-12.36,52.75-35.59,56.85C420.29,503.67,407,493.59,407,471.1v-3.37L428,464c-.47,8.72,3,17.66,13.86,15.75,14.64-2.59,13.18-16.94,13.18-28V431.68l-.48.08c-3,10.35-10.25,18.58-20.94,20-27.85,4.91-28.55-35.91-28.57-56.5,0-19.39-.47-63.13,28.09-68.17,11.65-2.05,16.77,3.77,21.43,12.53L455,339V325.13l22-3.9Zm-36-97.32c-15.08,2.65-13.68,35.47-13.68,44.1,0,9.09-1.4,43.09,14.39,40.31s13.47-34.24,13.47-44.05S455.17,343.27,441,345.78Z" transform="translate(-405.01 -121.99)"/><path class="cls-3" d="M519,328.66l.31-.07c5.11-11.43,12.69-19,24.69-21.14v22.27l-3.67.41C524.05,333,519,343.25,519,358.56v76.15l-22,3.89V317.68l22-3.86Z" transform="translate(-405.01 -121.99)"/><path class="cls-3" d="M581.66,302.81l-.08,75.66c0,10.78-1.42,26.83,13.44,24.21,14.63-2.58,13-16.89,13-27.66V298.14l21.82-3.84,0,81.65c0,24.9-7,42.45-33.72,47.16C564.25,428.72,560,411.06,560,383.54V306.66Z" transform="translate(-405.01 -121.99)"/><path class="cls-3" d="M671.84,300.77l.44-.08c4.88-10.68,12.09-17.92,23.7-20,23.21-4.08,23.91,17.1,23.92,35.52l0,83.09L698,403.19V319.61c0-8.39-1.28-18.91-12.89-16.87-14.4,2.53-13.11,19.33-13.11,29.64V407.8l-22,3.85V290.73l21.82-3.85Z" transform="translate(-405.01 -121.99)"/><path class="cls-3" d="M762,392l-22,3.85V197.08l22-3.85Z" transform="translate(-405.01 -121.99)"/><path class="cls-3" d="M778.18,231.51a18.34,18.34,0,0,1,14.63-17.44c7.66-1.36,14.39,4.17,14.39,12.32,0,8.38-6.72,16.26-14.39,17.61C784.69,245.44,778.18,239.88,778.18,231.51ZM803,384.59l-21,3.85V267.52l21-3.85Z" transform="translate(-405.01 -121.99)"/><path class="cls-3" d="M823.34,182.34,845,178.49v91.22l.62-.08c4.4-10.12,9.83-17,21-19,27.64-4.85,28.38,35.71,28.37,55.85,0,19.59-.43,64-27.62,68.79-12.53,2.21-17.29-3.91-21.71-13.68l-.61.08v15.57l-21.75,3.85ZM872.68,311.8c0-9.82,1.87-42.47-14.39-39.6-14.63,2.58-13.71,35-13.71,44.56s-.92,42.31,13.71,40C874.55,353.63,872.68,321.63,872.68,311.8Z" transform="translate(-405.01 -121.99)"/><path class="cls-3" d="M930.71,306.11c0,10.07-.44,37.93,13.72,35.42,11.61-2,13.71-15.57,13.72-24.92l20.19-3.56c0,22.27-9.52,44.3-34.12,48.63-32.76,5.78-35.78-29.6-35.78-55.22,0-24.65,2.79-63.7,35-69.4,31.83-5.6,35.51,32,35.51,57v3.57Zm26-20.63c0-9.33,0-30.64-13.23-28.31-13.71,2.42-12.78,23.55-12.78,32.9Z" transform="translate(-405.01 -121.99)"/><path class="cls-3" d="M1017.6,240.76l.49-.07c5.11-11.43,12.91-19,24.91-21.15V241.8l-3.68.42c-16.26,2.87-21.32,13.1-21.32,28.45V346.8l-22,3.89V229.76l21.7-3.84Z" transform="translate(-405.01 -121.99)"/><path class="cls-3" d="M1102,316.36l-.44.1c-4.4,11.31-9,19.07-21.56,21.29-27.16,4.79-27.63-39.44-27.64-59.05,0-20.13.71-60.94,28.34-65.82,10.23-1.81,16.92,3.48,20.86,11.63l.44-.08V211l21.85-3.85V328.09L1102,331.93Zm.75-45.12c0-9.59,1-42.31-13.68-39.73-16.26,2.87-14.41,34.86-14.41,44.69,0,10.05-1.86,42.7,14.41,39.83C1103.7,313.46,1102.75,280.82,1102.75,271.24Z" transform="translate(-405.01 -121.99)"/><path class="cls-3" d="M1165.77,320.72,1144,324.57V125.84l21.81-3.85Z" transform="translate(-405.01 -121.99)"/><path class="cls-3" d="M1204.71,257.81c0,10.07-.48,37.91,13.69,35.42,11.61-2.06,13.7-15.58,13.7-24.92l20.22-3.58c0,22.29-9.52,44.31-34.13,48.65-32.75,5.78-35.77-29.62-35.77-55.23,0-24.65,2.78-63.7,35.06-69.39,31.8-5.62,35.52,32,35.52,57v3.58Zm26-20.64c0-9.34,0-30.64-13.22-28.31-13.71,2.41-12.78,23.56-12.78,32.91Z" transform="translate(-405.01 -121.99)"/><path class="cls-4" d="M667.84,182.21c-6.2,1.08-9,.57-16.36,1.82-23.11,3.89-47.37,11.53-60.4,30.57-17.12,25.06-22.75,67.15-40.48,82,11.82-5.59,18.91-19.5,40.11-25.35,15.95-4.38,32.37-5.33,46.23-18.26,14.17-13.37,21.07-34.47,24.34-52.28,1.09-7.33,2.35-12.17,6.71-18.55ZM652.61,195.4c-10.24,9.74-26.87,27.38-36.05,36.52-18.48,18.45-55.1,55.13-55.1,55.13-.2.18-3.93,4.29-4.16,4-.4-.47,3.8-4.53,7-8.08,0,0,35.21-38.69,49.65-53.26,18-18.15,35-33.42,35-33.42C663,183.83,666.68,183,666.68,183S661.43,187,652.61,195.4Z" transform="translate(-405.01 -121.99)"/><path class="cls-3" d="M411.21,235.56a3.7,3.7,0,0,1-4.47-3.81,5.59,5.59,0,0,1,4.47-5.27,3.65,3.65,0,0,1,4.35,3.73A5.61,5.61,0,0,1,411.21,235.56ZM414,310.49l-6,1V245.76l6-1Z" transform="translate(-405.01 -121.99)"/><path class="cls-3" d="M428,242.22v30.17c0,6.54.58,12.86,6.42,11.83s6.58-7.47,6.58-14V240l6-1v35.33c0,8-4.14,14.14-12.5,15.63s-12.5-3.2-12.5-11.33V243.26Z" transform="translate(-405.01 -121.99)"/><path class="cls-3" d="M460.91,240.31a14.77,14.77,0,0,1,9.12-6.24c8.29-1.45,9,6.28,9,12.86v34.38l-6,1.05V248.62c0-5.73-.23-10-5.15-9.18-6.72,1.19-6.85,8.81-6.85,13.88v31.2l-6,1.05V237.5l5.91-1Z" transform="translate(-405.01 -121.99)"/><path class="cls-3" d="M511.72,277.34c0,9-.13,17.41-12,19.5-8.17,1.44-11.77-3-11.77-11.21v-1.76l5-1v.84c0,4.5,1.49,8.32,6.58,7.42,6.65-1.17,6.42-7.08,6.42-12.23v-5.62a11.83,11.83,0,0,1-7.69,4.71c-11.62,2-11.89-14.5-11.89-23,0-8.07.89-23.87,11.69-25.78a7.66,7.66,0,0,1,7.63,2.7l.26,0v-3.26l5.82-1.05ZM499.8,272.7c6.26-1.11,6.55-10.61,6.55-21.11,0-8.81-.55-18.84-7-17.7-4.27.75-6.88,4.22-6.91,21.83C492.43,261,492.35,274,499.8,272.7Z" transform="translate(-405.01 -121.99)"/><path class="cls-3" d="M525,250.5v1.4c0,4.79.66,16.27,7.12,15.14,5.18-.93,5.85-8.57,5.84-12.39l6-1.08c-.08,7.33-2.84,17.54-11.49,19.07-12.26,2.17-13.88-12.54-13.9-22.17,0-8.64,1.81-25.26,13.09-27.26,10.9-1.92,12.61,12.48,12.61,20.93l.16,2.91Zm13.33-7.56-.08-.83c-.18-4.56-.35-14.28-6.54-13.18-5.64,1-6.92,12.09-6.92,16.41Z" transform="translate(-405.01 -121.99)"/></svg>
